<?xml version="1.0" encoding="utf-8" standalone="no"?>
<!DOCTYPE svg PUBLIC "-//W3C//DTD SVG 1.1//EN"
  "http://www.w3.org/Graphics/SVG/1.1/DTD/svg11.dtd">
<svg xmlns:xlink="http://www.w3.org/1999/xlink" width="783.3975pt" height="333.001758pt" viewBox="0 0 783.3975 333.001758" xmlns="http://www.w3.org/2000/svg" version="1.1">
 <metadata>
  <rdf:RDF xmlns:dc="http://purl.org/dc/elements/1.1/" xmlns:cc="http://creativecommons.org/ns#" xmlns:rdf="http://www.w3.org/1999/02/22-rdf-syntax-ns#">
   <cc:Work>
    <dc:type rdf:resource="http://purl.org/dc/dcmitype/StillImage"/>
    <dc:date>2026-06-30T07:52:13.290615</dc:date>
    <dc:format>image/svg+xml</dc:format>
    <dc:creator>
     <cc:Agent>
      <dc:title>Matplotlib v3.11.0, https://matplotlib.org/</dc:title>
     </cc:Agent>
    </dc:creator>
   </cc:Work>
  </rdf:RDF>
 </metadata>
 <defs>
  <style type="text/css">*{stroke-linejoin: round; stroke-linecap: butt}</style>
 </defs>
 <g id="figure_1">
  <g id="patch_1">
   <path d="M 0 333.001758 
L 783.3975 333.001758 
L 783.3975 -0 
L 0 -0 
z
" style="fill: #ffffff"/>
  </g>
  <g id="axes_1">
   <g id="patch_2">
    <path d="M 43.200078 278.096695 
L 379.058789 278.096695 
L 379.058789 65.067094 
L 43.200078 65.067094 
z
" style="fill: #ffffff"/>
   </g>
   <g id="matplotlib.axis_1">
    <g id="xtick_1">
     <g id="line2d_1">
      <path d="M 90.605973 278.096695 
L 90.605973 65.067094 
" clip-path="url(#p00d387126b)" style="fill: none; stroke: #dddddd; stroke-width: 0.7; stroke-linecap: square"/>
     </g>
     <g id="line2d_2">
      <defs>
       <path id="md13c295596" d="M 0 0 
L 0 3.5 
" style="stroke: #000000; stroke-width: 0.8"/>
      </defs>
      <g>
       <use xlink:href="#md13c295596" x="90.605973" y="278.096695" style="stroke: #000000; stroke-width: 0.8"/>
      </g>
     </g>
     <g id="text_1">
      <!-- Theoremus -->
      <g transform="translate(66.785387 292.406197) scale(0.085 -0.085)">
       <defs>
        <path id="DejaVuSans-37" d="M -19 4666 
L 3928 4666 
L 3928 4134 
L 2272 4134 
L 2272 0 
L 1638 0 
L 1638 4134 
L -19 4134 
L -19 4666 
z
" transform="scale(0.015625)"/>
        <path id="DejaVuSans-4b" d="M 3513 2113 
L 3513 0 
L 2938 0 
L 2938 2094 
Q 2938 2591 2744 2837 
Q 2550 3084 2163 3084 
Q 1697 3084 1428 2787 
Q 1159 2491 1159 1978 
L 1159 0 
L 581 0 
L 581 4863 
L 1159 4863 
L 1159 2956 
Q 1366 3272 1645 3428 
Q 1925 3584 2291 3584 
Q 2894 3584 3203 3211 
Q 3513 2838 3513 2113 
z
" transform="scale(0.015625)"/>
        <path id="DejaVuSans-48" d="M 3597 1894 
L 3597 1613 
L 953 1613 
Q 991 1019 1311 708 
Q 1631 397 2203 397 
Q 2534 397 2845 478 
Q 3156 559 3463 722 
L 3463 178 
Q 3153 47 2828 -22 
Q 2503 -91 2169 -91 
Q 1331 -91 842 396 
Q 353 884 353 1716 
Q 353 2575 817 3079 
Q 1281 3584 2069 3584 
Q 2775 3584 3186 3129 
Q 3597 2675 3597 1894 
z
M 3022 2063 
Q 3016 2534 2758 2815 
Q 2500 3097 2075 3097 
Q 1594 3097 1305 2825 
Q 1016 2553 972 2059 
L 3022 2063 
z
" transform="scale(0.015625)"/>
        <path id="DejaVuSans-52" d="M 1959 3097 
Q 1497 3097 1228 2736 
Q 959 2375 959 1747 
Q 959 1119 1226 758 
Q 1494 397 1959 397 
Q 2419 397 2687 759 
Q 2956 1122 2956 1747 
Q 2956 2369 2687 2733 
Q 2419 3097 1959 3097 
z
M 1959 3584 
Q 2709 3584 3137 3096 
Q 3566 2609 3566 1747 
Q 3566 888 3137 398 
Q 2709 -91 1959 -91 
Q 1206 -91 779 398 
Q 353 888 353 1747 
Q 353 2609 779 3096 
Q 1206 3584 1959 3584 
z
" transform="scale(0.015625)"/>
        <path id="DejaVuSans-55" d="M 2631 2963 
Q 2534 3019 2420 3045 
Q 2306 3072 2169 3072 
Q 1681 3072 1420 2755 
Q 1159 2438 1159 1844 
L 1159 0 
L 581 0 
L 581 3500 
L 1159 3500 
L 1159 2956 
Q 1341 3275 1631 3429 
Q 1922 3584 2338 3584 
Q 2397 3584 2469 3576 
Q 2541 3569 2628 3553 
L 2631 2963 
z
" transform="scale(0.015625)"/>
        <path id="DejaVuSans-50" d="M 3328 2828 
Q 3544 3216 3844 3400 
Q 4144 3584 4550 3584 
Q 5097 3584 5394 3201 
Q 5691 2819 5691 2113 
L 5691 0 
L 5113 0 
L 5113 2094 
Q 5113 2597 4934 2840 
Q 4756 3084 4391 3084 
Q 3944 3084 3684 2787 
Q 3425 2491 3425 1978 
L 3425 0 
L 2847 0 
L 2847 2094 
Q 2847 2600 2669 2842 
Q 2491 3084 2119 3084 
Q 1678 3084 1418 2786 
Q 1159 2488 1159 1978 
L 1159 0 
L 581 0 
L 581 3500 
L 1159 3500 
L 1159 2956 
Q 1356 3278 1631 3431 
Q 1906 3584 2284 3584 
Q 2666 3584 2933 3390 
Q 3200 3197 3328 2828 
z
" transform="scale(0.015625)"/>
        <path id="DejaVuSans-58" d="M 544 1381 
L 544 3500 
L 1119 3500 
L 1119 1403 
Q 1119 906 1312 657 
Q 1506 409 1894 409 
Q 2359 409 2629 706 
Q 2900 1003 2900 1516 
L 2900 3500 
L 3475 3500 
L 3475 0 
L 2900 0 
L 2900 538 
Q 2691 219 2414 64 
Q 2138 -91 1772 -91 
Q 1169 -91 856 284 
Q 544 659 544 1381 
z
M 1991 3584 
L 1991 3584 
z
" transform="scale(0.015625)"/>
        <path id="DejaVuSans-56" d="M 2834 3397 
L 2834 2853 
Q 2591 2978 2328 3040 
Q 2066 3103 1784 3103 
Q 1356 3103 1142 2972 
Q 928 2841 928 2578 
Q 928 2378 1081 2264 
Q 1234 2150 1697 2047 
L 1894 2003 
Q 2506 1872 2764 1633 
Q 3022 1394 3022 966 
Q 3022 478 2636 193 
Q 2250 -91 1575 -91 
Q 1294 -91 989 -36 
Q 684 19 347 128 
L 347 722 
Q 666 556 975 473 
Q 1284 391 1588 391 
Q 1994 391 2212 530 
Q 2431 669 2431 922 
Q 2431 1156 2273 1281 
Q 2116 1406 1581 1522 
L 1381 1569 
Q 847 1681 609 1914 
Q 372 2147 372 2553 
Q 372 3047 722 3315 
Q 1072 3584 1716 3584 
Q 2034 3584 2315 3537 
Q 2597 3491 2834 3397 
z
" transform="scale(0.015625)"/>
       </defs>
       <use xlink:href="#DejaVuSans-37"/>
       <use xlink:href="#DejaVuSans-4b" transform="translate(61.078125 0)"/>
       <use xlink:href="#DejaVuSans-48" transform="translate(124.453125 0)"/>
       <use xlink:href="#DejaVuSans-52" transform="translate(185.984375 0)"/>
       <use xlink:href="#DejaVuSans-55" transform="translate(247.171875 0)"/>
       <use xlink:href="#DejaVuSans-48" transform="translate(286.078125 0)"/>
       <use xlink:href="#DejaVuSans-50" transform="translate(347.609375 0)"/>
       <use xlink:href="#DejaVuSans-58" transform="translate(445.015625 0)"/>
       <use xlink:href="#DejaVuSans-56" transform="translate(508.390625 0)"/>
      </g>
      <!-- (Go, 1 step) -->
      <g transform="translate(65.446637 302.607857) scale(0.085 -0.085)">
       <defs>
        <path id="DejaVuSans-b" d="M 1984 4856 
Q 1566 4138 1362 3434 
Q 1159 2731 1159 2009 
Q 1159 1288 1364 580 
Q 1569 -128 1984 -844 
L 1484 -844 
Q 1016 -109 783 600 
Q 550 1309 550 2009 
Q 550 2706 781 3412 
Q 1013 4119 1484 4856 
L 1984 4856 
z
" transform="scale(0.015625)"/>
        <path id="DejaVuSans-2a" d="M 3809 666 
L 3809 1919 
L 2778 1919 
L 2778 2438 
L 4434 2438 
L 4434 434 
Q 4069 175 3628 42 
Q 3188 -91 2688 -91 
Q 1594 -91 976 548 
Q 359 1188 359 2328 
Q 359 3472 976 4111 
Q 1594 4750 2688 4750 
Q 3144 4750 3555 4637 
Q 3966 4525 4313 4306 
L 4313 3634 
Q 3963 3931 3569 4081 
Q 3175 4231 2741 4231 
Q 1884 4231 1454 3753 
Q 1025 3275 1025 2328 
Q 1025 1384 1454 906 
Q 1884 428 2741 428 
Q 3075 428 3337 486 
Q 3600 544 3809 666 
z
" transform="scale(0.015625)"/>
        <path id="DejaVuSans-f" d="M 750 794 
L 1409 794 
L 1409 256 
L 897 -744 
L 494 -744 
L 750 256 
L 750 794 
z
" transform="scale(0.015625)"/>
        <path id="DejaVuSans-3" transform="scale(0.015625)"/>
        <path id="DejaVuSans-14" d="M 794 531 
L 1825 531 
L 1825 4091 
L 703 3866 
L 703 4441 
L 1819 4666 
L 2450 4666 
L 2450 531 
L 3481 531 
L 3481 0 
L 794 0 
L 794 531 
z
" transform="scale(0.015625)"/>
        <path id="DejaVuSans-57" d="M 1172 4494 
L 1172 3500 
L 2356 3500 
L 2356 3053 
L 1172 3053 
L 1172 1153 
Q 1172 725 1289 603 
Q 1406 481 1766 481 
L 2356 481 
L 2356 0 
L 1766 0 
Q 1100 0 847 248 
Q 594 497 594 1153 
L 594 3053 
L 172 3053 
L 172 3500 
L 594 3500 
L 594 4494 
L 1172 4494 
z
" transform="scale(0.015625)"/>
        <path id="DejaVuSans-53" d="M 1159 525 
L 1159 -1331 
L 581 -1331 
L 581 3500 
L 1159 3500 
L 1159 2969 
Q 1341 3281 1617 3432 
Q 1894 3584 2278 3584 
Q 2916 3584 3314 3078 
Q 3713 2572 3713 1747 
Q 3713 922 3314 415 
Q 2916 -91 2278 -91 
Q 1894 -91 1617 61 
Q 1341 213 1159 525 
z
M 3116 1747 
Q 3116 2381 2855 2742 
Q 2594 3103 2138 3103 
Q 1681 3103 1420 2742 
Q 1159 2381 1159 1747 
Q 1159 1113 1420 752 
Q 1681 391 2138 391 
Q 2594 391 2855 752 
Q 3116 1113 3116 1747 
z
" transform="scale(0.015625)"/>
        <path id="DejaVuSans-c" d="M 513 4856 
L 1013 4856 
Q 1481 4119 1714 3412 
Q 1947 2706 1947 2009 
Q 1947 1309 1714 600 
Q 1481 -109 1013 -844 
L 513 -844 
Q 928 -128 1133 580 
Q 1338 1288 1338 2009 
Q 1338 2731 1133 3434 
Q 928 4138 513 4856 
z
" transform="scale(0.015625)"/>
       </defs>
       <use xlink:href="#DejaVuSans-b"/>
       <use xlink:href="#DejaVuSans-2a" transform="translate(39.015625 0)"/>
       <use xlink:href="#DejaVuSans-52" transform="translate(116.5 0)"/>
       <use xlink:href="#DejaVuSans-f" transform="translate(177.6875 0)"/>
       <use xlink:href="#DejaVuSans-3" transform="translate(209.46875 0)"/>
       <use xlink:href="#DejaVuSans-14" transform="translate(241.25 0)"/>
       <use xlink:href="#DejaVuSans-3" transform="translate(304.875 0)"/>
       <use xlink:href="#DejaVuSans-56" transform="translate(336.65625 0)"/>
       <use xlink:href="#DejaVuSans-57" transform="translate(388.75 0)"/>
       <use xlink:href="#DejaVuSans-48" transform="translate(427.953125 0)"/>
       <use xlink:href="#DejaVuSans-53" transform="translate(489.484375 0)"/>
       <use xlink:href="#DejaVuSans-c" transform="translate(552.96875 0)"/>
      </g>
     </g>
    </g>
    <g id="xtick_2">
     <g id="line2d_3">
      <path d="M 170.954947 278.096695 
L 170.954947 65.067094 
" clip-path="url(#p00d387126b)" style="fill: none; stroke: #dddddd; stroke-width: 0.7; stroke-linecap: square"/>
     </g>
     <g id="line2d_4">
      <g>
       <use xlink:href="#md13c295596" x="170.954947" y="278.096695" style="stroke: #000000; stroke-width: 0.8"/>
      </g>
     </g>
     <g id="text_2">
      <!-- PID-Transit -->
      <g transform="translate(148.645767 292.406197) scale(0.085 -0.085)">
       <defs>
        <path id="DejaVuSans-33" d="M 1259 4147 
L 1259 2394 
L 2053 2394 
Q 2494 2394 2734 2622 
Q 2975 2850 2975 3272 
Q 2975 3691 2734 3919 
Q 2494 4147 2053 4147 
L 1259 4147 
z
M 628 4666 
L 2053 4666 
Q 2838 4666 3239 4311 
Q 3641 3956 3641 3272 
Q 3641 2581 3239 2228 
Q 2838 1875 2053 1875 
L 1259 1875 
L 1259 0 
L 628 0 
L 628 4666 
z
" transform="scale(0.015625)"/>
        <path id="DejaVuSans-2c" d="M 628 4666 
L 1259 4666 
L 1259 0 
L 628 0 
L 628 4666 
z
" transform="scale(0.015625)"/>
        <path id="DejaVuSans-27" d="M 1259 4147 
L 1259 519 
L 2022 519 
Q 2988 519 3436 956 
Q 3884 1394 3884 2338 
Q 3884 3275 3436 3711 
Q 2988 4147 2022 4147 
L 1259 4147 
z
M 628 4666 
L 1925 4666 
Q 3281 4666 3915 4102 
Q 4550 3538 4550 2338 
Q 4550 1131 3912 565 
Q 3275 0 1925 0 
L 628 0 
L 628 4666 
z
" transform="scale(0.015625)"/>
        <path id="DejaVuSans-10" d="M 313 2009 
L 1997 2009 
L 1997 1497 
L 313 1497 
L 313 2009 
z
" transform="scale(0.015625)"/>
        <path id="DejaVuSans-44" d="M 2194 1759 
Q 1497 1759 1228 1600 
Q 959 1441 959 1056 
Q 959 750 1161 570 
Q 1363 391 1709 391 
Q 2188 391 2477 730 
Q 2766 1069 2766 1631 
L 2766 1759 
L 2194 1759 
z
M 3341 1997 
L 3341 0 
L 2766 0 
L 2766 531 
Q 2569 213 2275 61 
Q 1981 -91 1556 -91 
Q 1019 -91 701 211 
Q 384 513 384 1019 
Q 384 1609 779 1909 
Q 1175 2209 1959 2209 
L 2766 2209 
L 2766 2266 
Q 2766 2663 2505 2880 
Q 2244 3097 1772 3097 
Q 1472 3097 1187 3025 
Q 903 2953 641 2809 
L 641 3341 
Q 956 3463 1253 3523 
Q 1550 3584 1831 3584 
Q 2591 3584 2966 3190 
Q 3341 2797 3341 1997 
z
" transform="scale(0.015625)"/>
        <path id="DejaVuSans-51" d="M 3513 2113 
L 3513 0 
L 2938 0 
L 2938 2094 
Q 2938 2591 2744 2837 
Q 2550 3084 2163 3084 
Q 1697 3084 1428 2787 
Q 1159 2491 1159 1978 
L 1159 0 
L 581 0 
L 581 3500 
L 1159 3500 
L 1159 2956 
Q 1366 3272 1645 3428 
Q 1925 3584 2291 3584 
Q 2894 3584 3203 3211 
Q 3513 2838 3513 2113 
z
" transform="scale(0.015625)"/>
        <path id="DejaVuSans-4c" d="M 603 3500 
L 1178 3500 
L 1178 0 
L 603 0 
L 603 3500 
z
M 603 4863 
L 1178 4863 
L 1178 4134 
L 603 4134 
L 603 4863 
z
" transform="scale(0.015625)"/>
       </defs>
       <use xlink:href="#DejaVuSans-33"/>
       <use xlink:href="#DejaVuSans-2c" transform="translate(60.296875 0)"/>
       <use xlink:href="#DejaVuSans-27" transform="translate(89.796875 0)"/>
       <use xlink:href="#DejaVuSans-10" transform="translate(166.796875 0)"/>
       <use xlink:href="#DejaVuSans-37" transform="translate(193.703125 0)"/>
       <use xlink:href="#DejaVuSans-55" transform="translate(240.078125 0)"/>
       <use xlink:href="#DejaVuSans-44" transform="translate(281.1875 0)"/>
       <use xlink:href="#DejaVuSans-51" transform="translate(342.46875 0)"/>
       <use xlink:href="#DejaVuSans-56" transform="translate(405.84375 0)"/>
       <use xlink:href="#DejaVuSans-4c" transform="translate(457.9375 0)"/>
       <use xlink:href="#DejaVuSans-57" transform="translate(485.71875 0)"/>
      </g>
      <!-- NeTEx→SQLite -->
      <g transform="translate(139.928619 302.608521) scale(0.085 -0.085)">
       <defs>
        <path id="DejaVuSans-31" d="M 628 4666 
L 1478 4666 
L 3547 763 
L 3547 4666 
L 4159 4666 
L 4159 0 
L 3309 0 
L 1241 3903 
L 1241 0 
L 628 0 
L 628 4666 
z
" transform="scale(0.015625)"/>
        <path id="DejaVuSans-28" d="M 628 4666 
L 3578 4666 
L 3578 4134 
L 1259 4134 
L 1259 2753 
L 3481 2753 
L 3481 2222 
L 1259 2222 
L 1259 531 
L 3634 531 
L 3634 0 
L 628 0 
L 628 4666 
z
" transform="scale(0.015625)"/>
        <path id="DejaVuSans-5b" d="M 3513 3500 
L 2247 1797 
L 3578 0 
L 2900 0 
L 1881 1375 
L 863 0 
L 184 0 
L 1544 1831 
L 300 3500 
L 978 3500 
L 1906 2253 
L 2834 3500 
L 3513 3500 
z
" transform="scale(0.015625)"/>
        <path id="DejaVuSans-c1c" d="M 5050 2147 
L 5050 1866 
L 3822 638 
L 3447 1013 
L 4175 1741 
L 366 1741 
L 366 2272 
L 4175 2272 
L 3447 3000 
L 3822 3375 
L 5050 2147 
z
" transform="scale(0.015625)"/>
        <path id="DejaVuSans-36" d="M 3425 4513 
L 3425 3897 
Q 3066 4069 2747 4153 
Q 2428 4238 2131 4238 
Q 1616 4238 1336 4038 
Q 1056 3838 1056 3469 
Q 1056 3159 1242 3001 
Q 1428 2844 1947 2747 
L 2328 2669 
Q 3034 2534 3370 2195 
Q 3706 1856 3706 1288 
Q 3706 609 3251 259 
Q 2797 -91 1919 -91 
Q 1588 -91 1214 -16 
Q 841 59 441 206 
L 441 856 
Q 825 641 1194 531 
Q 1563 422 1919 422 
Q 2459 422 2753 634 
Q 3047 847 3047 1241 
Q 3047 1584 2836 1778 
Q 2625 1972 2144 2069 
L 1759 2144 
Q 1053 2284 737 2584 
Q 422 2884 422 3419 
Q 422 4038 858 4394 
Q 1294 4750 2059 4750 
Q 2388 4750 2728 4690 
Q 3069 4631 3425 4513 
z
" transform="scale(0.015625)"/>
        <path id="DejaVuSans-34" d="M 2522 4238 
Q 1834 4238 1429 3725 
Q 1025 3213 1025 2328 
Q 1025 1447 1429 934 
Q 1834 422 2522 422 
Q 3209 422 3611 934 
Q 4013 1447 4013 2328 
Q 4013 3213 3611 3725 
Q 3209 4238 2522 4238 
z
M 3406 84 
L 4238 -825 
L 3475 -825 
L 2784 -78 
Q 2681 -84 2626 -87 
Q 2572 -91 2522 -91 
Q 1538 -91 948 567 
Q 359 1225 359 2328 
Q 359 3434 948 4092 
Q 1538 4750 2522 4750 
Q 3503 4750 4090 4092 
Q 4678 3434 4678 2328 
Q 4678 1516 4351 937 
Q 4025 359 3406 84 
z
" transform="scale(0.015625)"/>
        <path id="DejaVuSans-2f" d="M 628 4666 
L 1259 4666 
L 1259 531 
L 3531 531 
L 3531 0 
L 628 0 
L 628 4666 
z
" transform="scale(0.015625)"/>
       </defs>
       <use xlink:href="#DejaVuSans-31"/>
       <use xlink:href="#DejaVuSans-48" transform="translate(74.8125 0)"/>
       <use xlink:href="#DejaVuSans-37" transform="translate(136.34375 0)"/>
       <use xlink:href="#DejaVuSans-28" transform="translate(197.421875 0)"/>
       <use xlink:href="#DejaVuSans-5b" transform="translate(260.609375 0)"/>
       <use xlink:href="#DejaVuSans-c1c" transform="translate(319.796875 0)"/>
       <use xlink:href="#DejaVuSans-36" transform="translate(403.59375 0)"/>
       <use xlink:href="#DejaVuSans-34" transform="translate(467.078125 0)"/>
       <use xlink:href="#DejaVuSans-2f" transform="translate(545.796875 0)"/>
       <use xlink:href="#DejaVuSans-4c" transform="translate(601.515625 0)"/>
       <use xlink:href="#DejaVuSans-57" transform="translate(629.296875 0)"/>
       <use xlink:href="#DejaVuSans-48" transform="translate(668.5 0)"/>
      </g>
     </g>
    </g>
    <g id="xtick_3">
     <g id="line2d_5">
      <path d="M 251.303921 278.096695 
L 251.303921 65.067094 
" clip-path="url(#p00d387126b)" style="fill: none; stroke: #dddddd; stroke-width: 0.7; stroke-linecap: square"/>
     </g>
     <g id="line2d_6">
      <g>
       <use xlink:href="#md13c295596" x="251.303921" y="278.096695" style="stroke: #000000; stroke-width: 0.8"/>
      </g>
     </g>
     <g id="text_3">
      <!-- PID-Transit -->
      <g transform="translate(228.994741 292.406197) scale(0.085 -0.085)">
       <use xlink:href="#DejaVuSans-33"/>
       <use xlink:href="#DejaVuSans-2c" transform="translate(60.296875 0)"/>
       <use xlink:href="#DejaVuSans-27" transform="translate(89.796875 0)"/>
       <use xlink:href="#DejaVuSans-10" transform="translate(166.796875 0)"/>
       <use xlink:href="#DejaVuSans-37" transform="translate(193.703125 0)"/>
       <use xlink:href="#DejaVuSans-55" transform="translate(240.078125 0)"/>
       <use xlink:href="#DejaVuSans-44" transform="translate(281.1875 0)"/>
       <use xlink:href="#DejaVuSans-51" transform="translate(342.46875 0)"/>
       <use xlink:href="#DejaVuSans-56" transform="translate(405.84375 0)"/>
       <use xlink:href="#DejaVuSans-4c" transform="translate(457.9375 0)"/>
       <use xlink:href="#DejaVuSans-57" transform="translate(485.71875 0)"/>
      </g>
      <!-- SQLite→GTFS -->
      <g transform="translate(223.063335 302.608521) scale(0.085 -0.085)">
       <defs>
        <path id="DejaVuSans-29" d="M 628 4666 
L 3309 4666 
L 3309 4134 
L 1259 4134 
L 1259 2759 
L 3109 2759 
L 3109 2228 
L 1259 2228 
L 1259 0 
L 628 0 
L 628 4666 
z
" transform="scale(0.015625)"/>
       </defs>
       <use xlink:href="#DejaVuSans-36"/>
       <use xlink:href="#DejaVuSans-34" transform="translate(63.484375 0)"/>
       <use xlink:href="#DejaVuSans-2f" transform="translate(142.203125 0)"/>
       <use xlink:href="#DejaVuSans-4c" transform="translate(197.921875 0)"/>
       <use xlink:href="#DejaVuSans-57" transform="translate(225.703125 0)"/>
       <use xlink:href="#DejaVuSans-48" transform="translate(264.90625 0)"/>
       <use xlink:href="#DejaVuSans-c1c" transform="translate(326.4375 0)"/>
       <use xlink:href="#DejaVuSans-2a" transform="translate(410.234375 0)"/>
       <use xlink:href="#DejaVuSans-37" transform="translate(484.15625 0)"/>
       <use xlink:href="#DejaVuSans-29" transform="translate(545.234375 0)"/>
       <use xlink:href="#DejaVuSans-36" transform="translate(601 0)"/>
      </g>
     </g>
    </g>
    <g id="xtick_4">
     <g id="line2d_7">
      <path d="M 331.652894 278.096695 
L 331.652894 65.067094 
" clip-path="url(#p00d387126b)" style="fill: none; stroke: #dddddd; stroke-width: 0.7; stroke-linecap: square"/>
     </g>
     <g id="line2d_8">
      <g>
       <use xlink:href="#md13c295596" x="331.652894" y="278.096695" style="stroke: #000000; stroke-width: 0.8"/>
      </g>
     </g>
     <g id="text_4">
      <!-- PID-Transit -->
      <g transform="translate(309.343715 292.406197) scale(0.085 -0.085)">
       <use xlink:href="#DejaVuSans-33"/>
       <use xlink:href="#DejaVuSans-2c" transform="translate(60.296875 0)"/>
       <use xlink:href="#DejaVuSans-27" transform="translate(89.796875 0)"/>
       <use xlink:href="#DejaVuSans-10" transform="translate(166.796875 0)"/>
       <use xlink:href="#DejaVuSans-37" transform="translate(193.703125 0)"/>
       <use xlink:href="#DejaVuSans-55" transform="translate(240.078125 0)"/>
       <use xlink:href="#DejaVuSans-44" transform="translate(281.1875 0)"/>
       <use xlink:href="#DejaVuSans-51" transform="translate(342.46875 0)"/>
       <use xlink:href="#DejaVuSans-56" transform="translate(405.84375 0)"/>
       <use xlink:href="#DejaVuSans-4c" transform="translate(457.9375 0)"/>
       <use xlink:href="#DejaVuSans-57" transform="translate(485.71875 0)"/>
      </g>
      <!-- total -->
      <g transform="translate(321.935004 302.608521) scale(0.085 -0.085)">
       <defs>
        <path id="DejaVuSans-4f" d="M 603 4863 
L 1178 4863 
L 1178 0 
L 603 0 
L 603 4863 
z
" transform="scale(0.015625)"/>
       </defs>
       <use xlink:href="#DejaVuSans-57"/>
       <use xlink:href="#DejaVuSans-52" transform="translate(39.203125 0)"/>
       <use xlink:href="#DejaVuSans-57" transform="translate(100.390625 0)"/>
       <use xlink:href="#DejaVuSans-44" transform="translate(139.59375 0)"/>
       <use xlink:href="#DejaVuSans-4f" transform="translate(200.875 0)"/>
      </g>
     </g>
    </g>
   </g>
   <g id="matplotlib.axis_2">
    <g id="ytick_1">
     <g id="line2d_9">
      <path d="M 43.200078 278.096695 
L 379.058789 278.096695 
" clip-path="url(#p00d387126b)" style="fill: none; stroke: #dddddd; stroke-width: 0.7; stroke-linecap: square"/>
     </g>
     <g id="line2d_10">
      <defs>
       <path id="m0746070609" d="M 0 0 
L -3.5 0 
" style="stroke: #000000; stroke-width: 0.8"/>
      </defs>
      <g>
       <use xlink:href="#m0746070609" x="43.200078" y="278.096695" style="stroke: #000000; stroke-width: 0.8"/>
      </g>
     </g>
     <g id="text_5">
      <!-- 0 -->
      <g transform="translate(29.201328 282.275406) scale(0.11 -0.11)">
       <defs>
        <path id="DejaVuSans-13" d="M 2034 4250 
Q 1547 4250 1301 3770 
Q 1056 3291 1056 2328 
Q 1056 1369 1301 889 
Q 1547 409 2034 409 
Q 2525 409 2770 889 
Q 3016 1369 3016 2328 
Q 3016 3291 2770 3770 
Q 2525 4250 2034 4250 
z
M 2034 4750 
Q 2819 4750 3233 4129 
Q 3647 3509 3647 2328 
Q 3647 1150 3233 529 
Q 2819 -91 2034 -91 
Q 1250 -91 836 529 
Q 422 1150 422 2328 
Q 422 3509 836 4129 
Q 1250 4750 2034 4750 
z
" transform="scale(0.015625)"/>
       </defs>
       <use xlink:href="#DejaVuSans-13"/>
      </g>
     </g>
    </g>
    <g id="ytick_2">
     <g id="line2d_11">
      <path d="M 43.200078 237.344199 
L 379.058789 237.344199 
" clip-path="url(#p00d387126b)" style="fill: none; stroke: #dddddd; stroke-width: 0.7; stroke-linecap: square"/>
     </g>
     <g id="line2d_12">
      <g>
       <use xlink:href="#m0746070609" x="43.200078" y="237.344199" style="stroke: #000000; stroke-width: 0.8"/>
      </g>
     </g>
     <g id="text_6">
      <!-- 5 -->
      <g transform="translate(29.201328 241.522909) scale(0.11 -0.11)">
       <defs>
        <path id="DejaVuSans-18" d="M 691 4666 
L 3169 4666 
L 3169 4134 
L 1269 4134 
L 1269 2991 
Q 1406 3038 1543 3061 
Q 1681 3084 1819 3084 
Q 2600 3084 3056 2656 
Q 3513 2228 3513 1497 
Q 3513 744 3044 326 
Q 2575 -91 1722 -91 
Q 1428 -91 1123 -41 
Q 819 9 494 109 
L 494 744 
Q 775 591 1075 516 
Q 1375 441 1709 441 
Q 2250 441 2565 725 
Q 2881 1009 2881 1497 
Q 2881 1984 2565 2268 
Q 2250 2553 1709 2553 
Q 1456 2553 1204 2497 
Q 953 2441 691 2322 
L 691 4666 
z
" transform="scale(0.015625)"/>
       </defs>
       <use xlink:href="#DejaVuSans-18"/>
      </g>
     </g>
    </g>
    <g id="ytick_3">
     <g id="line2d_13">
      <path d="M 43.200078 196.591702 
L 379.058789 196.591702 
" clip-path="url(#p00d387126b)" style="fill: none; stroke: #dddddd; stroke-width: 0.7; stroke-linecap: square"/>
     </g>
     <g id="line2d_14">
      <g>
       <use xlink:href="#m0746070609" x="43.200078" y="196.591702" style="stroke: #000000; stroke-width: 0.8"/>
      </g>
     </g>
     <g id="text_7">
      <!-- 10 -->
      <g transform="translate(22.202578 200.770413) scale(0.11 -0.11)">
       <use xlink:href="#DejaVuSans-14"/>
       <use xlink:href="#DejaVuSans-13" transform="translate(63.625 0)"/>
      </g>
     </g>
    </g>
    <g id="ytick_4">
     <g id="line2d_15">
      <path d="M 43.200078 155.839205 
L 379.058789 155.839205 
" clip-path="url(#p00d387126b)" style="fill: none; stroke: #dddddd; stroke-width: 0.7; stroke-linecap: square"/>
     </g>
     <g id="line2d_16">
      <g>
       <use xlink:href="#m0746070609" x="43.200078" y="155.839205" style="stroke: #000000; stroke-width: 0.8"/>
      </g>
     </g>
     <g id="text_8">
      <!-- 15 -->
      <g transform="translate(22.202578 160.017916) scale(0.11 -0.11)">
       <use xlink:href="#DejaVuSans-14"/>
       <use xlink:href="#DejaVuSans-18" transform="translate(63.625 0)"/>
      </g>
     </g>
    </g>
    <g id="ytick_5">
     <g id="line2d_17">
      <path d="M 43.200078 115.086708 
L 379.058789 115.086708 
" clip-path="url(#p00d387126b)" style="fill: none; stroke: #dddddd; stroke-width: 0.7; stroke-linecap: square"/>
     </g>
     <g id="line2d_18">
      <g>
       <use xlink:href="#m0746070609" x="43.200078" y="115.086708" style="stroke: #000000; stroke-width: 0.8"/>
      </g>
     </g>
     <g id="text_9">
      <!-- 20 -->
      <g transform="translate(22.202578 119.265419) scale(0.11 -0.11)">
       <defs>
        <path id="DejaVuSans-15" d="M 1228 531 
L 3431 531 
L 3431 0 
L 469 0 
L 469 531 
Q 828 903 1448 1529 
Q 2069 2156 2228 2338 
Q 2531 2678 2651 2914 
Q 2772 3150 2772 3378 
Q 2772 3750 2511 3984 
Q 2250 4219 1831 4219 
Q 1534 4219 1204 4116 
Q 875 4013 500 3803 
L 500 4441 
Q 881 4594 1212 4672 
Q 1544 4750 1819 4750 
Q 2544 4750 2975 4387 
Q 3406 4025 3406 3419 
Q 3406 3131 3298 2873 
Q 3191 2616 2906 2266 
Q 2828 2175 2409 1742 
Q 1991 1309 1228 531 
z
" transform="scale(0.015625)"/>
       </defs>
       <use xlink:href="#DejaVuSans-15"/>
       <use xlink:href="#DejaVuSans-13" transform="translate(63.625 0)"/>
      </g>
     </g>
    </g>
    <g id="ytick_6">
     <g id="line2d_19">
      <path d="M 43.200078 74.334212 
L 379.058789 74.334212 
" clip-path="url(#p00d387126b)" style="fill: none; stroke: #dddddd; stroke-width: 0.7; stroke-linecap: square"/>
     </g>
     <g id="line2d_20">
      <g>
       <use xlink:href="#m0746070609" x="43.200078" y="74.334212" style="stroke: #000000; stroke-width: 0.8"/>
      </g>
     </g>
     <g id="text_10">
      <!-- 25 -->
      <g transform="translate(22.202578 78.512922) scale(0.11 -0.11)">
       <use xlink:href="#DejaVuSans-15"/>
       <use xlink:href="#DejaVuSans-18" transform="translate(63.625 0)"/>
      </g>
     </g>
    </g>
    <g id="text_11">
     <!-- Execution time  $T_{exec}$  (s) -->
     <g transform="translate(15.56 239.561895) rotate(-90) scale(0.11 -0.11)">
      <defs>
       <path id="DejaVuSans-46" d="M 3122 3366 
L 3122 2828 
Q 2878 2963 2633 3030 
Q 2388 3097 2138 3097 
Q 1578 3097 1268 2742 
Q 959 2388 959 1747 
Q 959 1106 1268 751 
Q 1578 397 2138 397 
Q 2388 397 2633 464 
Q 2878 531 3122 666 
L 3122 134 
Q 2881 22 2623 -34 
Q 2366 -91 2075 -91 
Q 1284 -91 818 406 
Q 353 903 353 1747 
Q 353 2603 823 3093 
Q 1294 3584 2113 3584 
Q 2378 3584 2631 3529 
Q 2884 3475 3122 3366 
z
" transform="scale(0.015625)"/>
       <path id="DejaVuSans-Oblique-37" d="M 378 4666 
L 4325 4666 
L 4225 4134 
L 2559 4134 
L 1759 0 
L 1125 0 
L 1925 4134 
L 275 4134 
L 378 4666 
z
" transform="scale(0.015625)"/>
       <path id="DejaVuSans-Oblique-48" d="M 3078 2063 
Q 3088 2113 3092 2166 
Q 3097 2219 3097 2272 
Q 3097 2653 2873 2875 
Q 2650 3097 2266 3097 
Q 1838 3097 1509 2826 
Q 1181 2556 1013 2059 
L 3078 2063 
z
M 3578 1613 
L 903 1613 
Q 884 1494 878 1425 
Q 872 1356 872 1306 
Q 872 872 1139 634 
Q 1406 397 1894 397 
Q 2269 397 2603 481 
Q 2938 566 3225 728 
L 3116 159 
Q 2806 34 2476 -28 
Q 2147 -91 1806 -91 
Q 1078 -91 686 257 
Q 294 606 294 1247 
Q 294 1794 489 2264 
Q 684 2734 1063 3103 
Q 1306 3334 1642 3459 
Q 1978 3584 2356 3584 
Q 2950 3584 3301 3228 
Q 3653 2872 3653 2272 
Q 3653 2128 3634 1964 
Q 3616 1800 3578 1613 
z
" transform="scale(0.015625)"/>
       <path id="DejaVuSans-Oblique-5b" d="M 3841 3500 
L 2234 1784 
L 3219 0 
L 2559 0 
L 1819 1388 
L 531 0 
L -166 0 
L 1556 1844 
L 641 3500 
L 1300 3500 
L 1972 2234 
L 3144 3500 
L 3841 3500 
z
" transform="scale(0.015625)"/>
       <path id="DejaVuSans-Oblique-46" d="M 3431 3366 
L 3316 2797 
Q 3109 2947 2876 3022 
Q 2644 3097 2394 3097 
Q 2119 3097 1870 3000 
Q 1622 2903 1453 2725 
Q 1184 2453 1037 2087 
Q 891 1722 891 1331 
Q 891 859 1127 628 
Q 1363 397 1844 397 
Q 2081 397 2348 469 
Q 2616 541 2906 684 
L 2797 116 
Q 2547 13 2283 -39 
Q 2019 -91 1741 -91 
Q 1044 -91 669 257 
Q 294 606 294 1253 
Q 294 1797 489 2255 
Q 684 2713 1069 3078 
Q 1331 3328 1684 3456 
Q 2038 3584 2456 3584 
Q 2700 3584 2940 3529 
Q 3181 3475 3431 3366 
z
" transform="scale(0.015625)"/>
      </defs>
      <use xlink:href="#DejaVuSans-28" transform="translate(0 0.015625)"/>
      <use xlink:href="#DejaVuSans-5b" transform="translate(63.183594 0.015625)"/>
      <use xlink:href="#DejaVuSans-48" transform="translate(119.363281 0.015625)"/>
      <use xlink:href="#DejaVuSans-46" transform="translate(180.886719 0.015625)"/>
      <use xlink:href="#DejaVuSans-58" transform="translate(235.867188 0.015625)"/>
      <use xlink:href="#DejaVuSans-57" transform="translate(299.246094 0.015625)"/>
      <use xlink:href="#DejaVuSans-4c" transform="translate(338.455078 0.015625)"/>
      <use xlink:href="#DejaVuSans-52" transform="translate(366.238281 0.015625)"/>
      <use xlink:href="#DejaVuSans-51" transform="translate(427.419922 0.015625)"/>
      <use xlink:href="#DejaVuSans-3" transform="translate(490.798828 0.015625)"/>
      <use xlink:href="#DejaVuSans-57" transform="translate(522.585938 0.015625)"/>
      <use xlink:href="#DejaVuSans-4c" transform="translate(561.794922 0.015625)"/>
      <use xlink:href="#DejaVuSans-50" transform="translate(589.578125 0.015625)"/>
      <use xlink:href="#DejaVuSans-48" transform="translate(686.990234 0.015625)"/>
      <use xlink:href="#DejaVuSans-3" transform="translate(748.513672 0.015625)"/>
      <use xlink:href="#DejaVuSans-3" transform="translate(780.300781 0.015625)"/>
      <use xlink:href="#DejaVuSans-Oblique-37" transform="translate(812.087891 0.015625)"/>
      <use xlink:href="#DejaVuSans-Oblique-48" transform="translate(873.171875 -14.984326) scale(0.7)"/>
      <use xlink:href="#DejaVuSans-Oblique-5b" transform="translate(916.238281 -14.984326) scale(0.7)"/>
      <use xlink:href="#DejaVuSans-Oblique-48" transform="translate(957.664062 -14.984326) scale(0.7)"/>
      <use xlink:href="#DejaVuSans-Oblique-46" transform="translate(1000.730469 -14.984326) scale(0.7)"/>
      <use xlink:href="#DejaVuSans-3" transform="translate(1041.951172 0.015625)"/>
      <use xlink:href="#DejaVuSans-3" transform="translate(1073.738281 0.015625)"/>
      <use xlink:href="#DejaVuSans-b" transform="translate(1105.525391 0.015625)"/>
      <use xlink:href="#DejaVuSans-56" transform="translate(1144.539062 0.015625)"/>
      <use xlink:href="#DejaVuSans-c" transform="translate(1196.638672 0.015625)"/>
     </g>
    </g>
   </g>
   <g id="patch_3">
    <path d="M 58.466383 278.096695 
L 122.745562 278.096695 
L 122.745562 180.453713 
L 58.466383 180.453713 
z
" clip-path="url(#p00d387126b)" style="fill: #009e73; stroke: #000000; stroke-width: 0.5; stroke-linejoin: miter"/>
   </g>
   <g id="patch_4">
    <path d="M 138.815357 278.096695 
L 203.094536 278.096695 
L 203.094536 159.099405 
L 138.815357 159.099405 
z
" clip-path="url(#p00d387126b)" style="fill: #0072b2; stroke: #000000; stroke-width: 0.5; stroke-linejoin: miter"/>
   </g>
   <g id="patch_5">
    <path d="M 219.164331 278.096695 
L 283.44351 278.096695 
L 283.44351 246.146738 
L 219.164331 246.146738 
z
" clip-path="url(#p00d387126b)" style="fill: #0072b2; stroke: #000000; stroke-width: 0.5; stroke-linejoin: miter"/>
   </g>
   <g id="patch_6">
    <path d="M 299.513305 278.096695 
L 363.792484 278.096695 
L 363.792484 127.067942 
L 299.513305 127.067942 
z
" clip-path="url(#p00d387126b)" style="fill: #0072b2; stroke: #000000; stroke-width: 0.5; stroke-linejoin: miter"/>
   </g>
   <g id="LineCollection_1">
    <path d="M 90.605973 209.958521 
L 90.605973 150.948905 
" clip-path="url(#p00d387126b)" style="fill: none; stroke: #000000; stroke-width: 1.5"/>
    <path d="M 170.954947 161.544555 
L 170.954947 156.654255 
" clip-path="url(#p00d387126b)" style="fill: none; stroke: #000000; stroke-width: 1.5"/>
    <path d="M 251.303921 246.554263 
L 251.303921 245.739213 
" clip-path="url(#p00d387126b)" style="fill: none; stroke: #000000; stroke-width: 1.5"/>
    <path d="M 331.652894 127.067942 
L 331.652894 127.067942 
" clip-path="url(#p00d387126b)" style="fill: none; stroke: #000000; stroke-width: 1.5"/>
   </g>
   <g id="line2d_21">
    <defs>
     <path id="m292c65b35f" d="M 4 0 
L -4 -0 
" style="stroke: #000000"/>
    </defs>
    <g clip-path="url(#p00d387126b)">
     <use xlink:href="#m292c65b35f" x="90.605973" y="209.958521" style="fill: #1f77b4; stroke: #000000"/>
     <use xlink:href="#m292c65b35f" x="170.954947" y="161.544555" style="fill: #1f77b4; stroke: #000000"/>
     <use xlink:href="#m292c65b35f" x="251.303921" y="246.554263" style="fill: #1f77b4; stroke: #000000"/>
     <use xlink:href="#m292c65b35f" x="331.652894" y="127.067942" style="fill: #1f77b4; stroke: #000000"/>
    </g>
   </g>
   <g id="line2d_22">
    <g clip-path="url(#p00d387126b)">
     <use xlink:href="#m292c65b35f" x="90.605973" y="150.948905" style="fill: #1f77b4; stroke: #000000"/>
     <use xlink:href="#m292c65b35f" x="170.954947" y="156.654255" style="fill: #1f77b4; stroke: #000000"/>
     <use xlink:href="#m292c65b35f" x="251.303921" y="245.739213" style="fill: #1f77b4; stroke: #000000"/>
     <use xlink:href="#m292c65b35f" x="331.652894" y="127.067942" style="fill: #1f77b4; stroke: #000000"/>
    </g>
   </g>
   <g id="patch_7">
    <path d="M 43.200078 278.096695 
L 43.200078 65.067094 
" style="fill: none; stroke: #000000; stroke-width: 0.8; stroke-linejoin: miter; stroke-linecap: square"/>
   </g>
   <g id="patch_8">
    <path d="M 43.200078 278.096695 
L 379.058789 278.096695 
" style="fill: none; stroke: #000000; stroke-width: 0.8; stroke-linejoin: miter; stroke-linecap: square"/>
   </g>
   <g id="text_12">
    <!-- 12.0 -->
    <g transform="translate(81.143082 145.906913) scale(0.085 -0.085)">
     <defs>
      <path id="DejaVuSans-11" d="M 684 794 
L 1344 794 
L 1344 0 
L 684 0 
L 684 794 
z
" transform="scale(0.015625)"/>
     </defs>
     <use xlink:href="#DejaVuSans-14"/>
     <use xlink:href="#DejaVuSans-15" transform="translate(63.625 0)"/>
     <use xlink:href="#DejaVuSans-11" transform="translate(127.25 0)"/>
     <use xlink:href="#DejaVuSans-13" transform="translate(159.03125 0)"/>
    </g>
   </g>
   <g id="text_13">
    <!-- 14.6 -->
    <g transform="translate(161.492056 151.612263) scale(0.085 -0.085)">
     <defs>
      <path id="DejaVuSans-17" d="M 2419 4116 
L 825 1625 
L 2419 1625 
L 2419 4116 
z
M 2253 4666 
L 3047 4666 
L 3047 1625 
L 3713 1625 
L 3713 1100 
L 3047 1100 
L 3047 0 
L 2419 0 
L 2419 1100 
L 313 1100 
L 313 1709 
L 2253 4666 
z
" transform="scale(0.015625)"/>
      <path id="DejaVuSans-19" d="M 2113 2584 
Q 1688 2584 1439 2293 
Q 1191 2003 1191 1497 
Q 1191 994 1439 701 
Q 1688 409 2113 409 
Q 2538 409 2786 701 
Q 3034 994 3034 1497 
Q 3034 2003 2786 2293 
Q 2538 2584 2113 2584 
z
M 3366 4563 
L 3366 3988 
Q 3128 4100 2886 4159 
Q 2644 4219 2406 4219 
Q 1781 4219 1451 3797 
Q 1122 3375 1075 2522 
Q 1259 2794 1537 2939 
Q 1816 3084 2150 3084 
Q 2853 3084 3261 2657 
Q 3669 2231 3669 1497 
Q 3669 778 3244 343 
Q 2819 -91 2113 -91 
Q 1303 -91 875 529 
Q 447 1150 447 2328 
Q 447 3434 972 4092 
Q 1497 4750 2381 4750 
Q 2619 4750 2861 4703 
Q 3103 4656 3366 4563 
z
" transform="scale(0.015625)"/>
     </defs>
     <use xlink:href="#DejaVuSans-14"/>
     <use xlink:href="#DejaVuSans-17" transform="translate(63.625 0)"/>
     <use xlink:href="#DejaVuSans-11" transform="translate(127.25 0)"/>
     <use xlink:href="#DejaVuSans-19" transform="translate(159.03125 0)"/>
    </g>
   </g>
   <g id="text_14">
    <!-- 3.9 -->
    <g transform="translate(244.545092 240.697221) scale(0.085 -0.085)">
     <defs>
      <path id="DejaVuSans-16" d="M 2597 2516 
Q 3050 2419 3304 2112 
Q 3559 1806 3559 1356 
Q 3559 666 3084 287 
Q 2609 -91 1734 -91 
Q 1441 -91 1130 -33 
Q 819 25 488 141 
L 488 750 
Q 750 597 1062 519 
Q 1375 441 1716 441 
Q 2309 441 2620 675 
Q 2931 909 2931 1356 
Q 2931 1769 2642 2001 
Q 2353 2234 1838 2234 
L 1294 2234 
L 1294 2753 
L 1863 2753 
Q 2328 2753 2575 2939 
Q 2822 3125 2822 3475 
Q 2822 3834 2567 4026 
Q 2313 4219 1838 4219 
Q 1578 4219 1281 4162 
Q 984 4106 628 3988 
L 628 4550 
Q 988 4650 1302 4700 
Q 1616 4750 1894 4750 
Q 2613 4750 3031 4423 
Q 3450 4097 3450 3541 
Q 3450 3153 3228 2886 
Q 3006 2619 2597 2516 
z
" transform="scale(0.015625)"/>
      <path id="DejaVuSans-1c" d="M 703 97 
L 703 672 
Q 941 559 1184 500 
Q 1428 441 1663 441 
Q 2288 441 2617 861 
Q 2947 1281 2994 2138 
Q 2813 1869 2534 1725 
Q 2256 1581 1919 1581 
Q 1219 1581 811 2004 
Q 403 2428 403 3163 
Q 403 3881 828 4315 
Q 1253 4750 1959 4750 
Q 2769 4750 3195 4129 
Q 3622 3509 3622 2328 
Q 3622 1225 3098 567 
Q 2575 -91 1691 -91 
Q 1453 -91 1209 -44 
Q 966 3 703 97 
z
M 1959 2075 
Q 2384 2075 2632 2365 
Q 2881 2656 2881 3163 
Q 2881 3666 2632 3958 
Q 2384 4250 1959 4250 
Q 1534 4250 1286 3958 
Q 1038 3666 1038 3163 
Q 1038 2656 1286 2365 
Q 1534 2075 1959 2075 
z
" transform="scale(0.015625)"/>
     </defs>
     <use xlink:href="#DejaVuSans-16"/>
     <use xlink:href="#DejaVuSans-11" transform="translate(63.625 0)"/>
     <use xlink:href="#DejaVuSans-1c" transform="translate(95.40625 0)"/>
    </g>
   </g>
   <g id="text_15">
    <!-- 18.5 -->
    <g transform="translate(322.190004 122.02595) scale(0.085 -0.085)">
     <defs>
      <path id="DejaVuSans-1b" d="M 2034 2216 
Q 1584 2216 1326 1975 
Q 1069 1734 1069 1313 
Q 1069 891 1326 650 
Q 1584 409 2034 409 
Q 2484 409 2743 651 
Q 3003 894 3003 1313 
Q 3003 1734 2745 1975 
Q 2488 2216 2034 2216 
z
M 1403 2484 
Q 997 2584 770 2862 
Q 544 3141 544 3541 
Q 544 4100 942 4425 
Q 1341 4750 2034 4750 
Q 2731 4750 3128 4425 
Q 3525 4100 3525 3541 
Q 3525 3141 3298 2862 
Q 3072 2584 2669 2484 
Q 3125 2378 3379 2068 
Q 3634 1759 3634 1313 
Q 3634 634 3220 271 
Q 2806 -91 2034 -91 
Q 1263 -91 848 271 
Q 434 634 434 1313 
Q 434 1759 690 2068 
Q 947 2378 1403 2484 
z
M 1172 3481 
Q 1172 3119 1398 2916 
Q 1625 2713 2034 2713 
Q 2441 2713 2670 2916 
Q 2900 3119 2900 3481 
Q 2900 3844 2670 4047 
Q 2441 4250 2034 4250 
Q 1625 4250 1398 4047 
Q 1172 3844 1172 3481 
z
" transform="scale(0.015625)"/>
     </defs>
     <use xlink:href="#DejaVuSans-14"/>
     <use xlink:href="#DejaVuSans-1b" transform="translate(63.625 0)"/>
     <use xlink:href="#DejaVuSans-11" transform="translate(127.25 0)"/>
     <use xlink:href="#DejaVuSans-18" transform="translate(159.03125 0)"/>
    </g>
   </g>
   <g id="text_16">
    <!-- (a) Execution time -->
    <g transform="translate(160.555215 59.067094) scale(0.11 -0.11)">
     <use xlink:href="#DejaVuSans-b"/>
     <use xlink:href="#DejaVuSans-44" transform="translate(39.015625 0)"/>
     <use xlink:href="#DejaVuSans-c" transform="translate(100.296875 0)"/>
     <use xlink:href="#DejaVuSans-3" transform="translate(139.3125 0)"/>
     <use xlink:href="#DejaVuSans-28" transform="translate(171.09375 0)"/>
     <use xlink:href="#DejaVuSans-5b" transform="translate(234.28125 0)"/>
     <use xlink:href="#DejaVuSans-48" transform="translate(290.390625 0)"/>
     <use xlink:href="#DejaVuSans-46" transform="translate(351.921875 0)"/>
     <use xlink:href="#DejaVuSans-58" transform="translate(406.90625 0)"/>
     <use xlink:href="#DejaVuSans-57" transform="translate(470.28125 0)"/>
     <use xlink:href="#DejaVuSans-4c" transform="translate(509.484375 0)"/>
     <use xlink:href="#DejaVuSans-52" transform="translate(537.265625 0)"/>
     <use xlink:href="#DejaVuSans-51" transform="translate(598.453125 0)"/>
     <use xlink:href="#DejaVuSans-3" transform="translate(661.828125 0)"/>
     <use xlink:href="#DejaVuSans-57" transform="translate(693.609375 0)"/>
     <use xlink:href="#DejaVuSans-4c" transform="translate(732.8125 0)"/>
     <use xlink:href="#DejaVuSans-50" transform="translate(760.59375 0)"/>
     <use xlink:href="#DejaVuSans-48" transform="translate(858 0)"/>
    </g>
   </g>
  </g>
  <g id="axes_2">
   <g id="patch_9">
    <path d="M 440.338789 278.096695 
L 776.1975 278.096695 
L 776.1975 65.067094 
L 440.338789 65.067094 
z
" style="fill: #ffffff"/>
   </g>
   <g id="matplotlib.axis_3">
    <g id="xtick_5">
     <g id="line2d_23">
      <path d="M 487.744684 278.096695 
L 487.744684 65.067094 
" clip-path="url(#p8629fda650)" style="fill: none; stroke: #dddddd; stroke-width: 0.7; stroke-linecap: square"/>
     </g>
     <g id="line2d_24">
      <g>
       <use xlink:href="#md13c295596" x="487.744684" y="278.096695" style="stroke: #000000; stroke-width: 0.8"/>
      </g>
     </g>
     <g id="text_17">
      <!-- Theoremus -->
      <g transform="translate(463.924098 292.406197) scale(0.085 -0.085)">
       <use xlink:href="#DejaVuSans-37"/>
       <use xlink:href="#DejaVuSans-4b" transform="translate(61.078125 0)"/>
       <use xlink:href="#DejaVuSans-48" transform="translate(124.453125 0)"/>
       <use xlink:href="#DejaVuSans-52" transform="translate(185.984375 0)"/>
       <use xlink:href="#DejaVuSans-55" transform="translate(247.171875 0)"/>
       <use xlink:href="#DejaVuSans-48" transform="translate(286.078125 0)"/>
       <use xlink:href="#DejaVuSans-50" transform="translate(347.609375 0)"/>
       <use xlink:href="#DejaVuSans-58" transform="translate(445.015625 0)"/>
       <use xlink:href="#DejaVuSans-56" transform="translate(508.390625 0)"/>
      </g>
      <!-- (Go, 1 step) -->
      <g transform="translate(462.585348 302.607857) scale(0.085 -0.085)">
       <use xlink:href="#DejaVuSans-b"/>
       <use xlink:href="#DejaVuSans-2a" transform="translate(39.015625 0)"/>
       <use xlink:href="#DejaVuSans-52" transform="translate(116.5 0)"/>
       <use xlink:href="#DejaVuSans-f" transform="translate(177.6875 0)"/>
       <use xlink:href="#DejaVuSans-3" transform="translate(209.46875 0)"/>
       <use xlink:href="#DejaVuSans-14" transform="translate(241.25 0)"/>
       <use xlink:href="#DejaVuSans-3" transform="translate(304.875 0)"/>
       <use xlink:href="#DejaVuSans-56" transform="translate(336.65625 0)"/>
       <use xlink:href="#DejaVuSans-57" transform="translate(388.75 0)"/>
       <use xlink:href="#DejaVuSans-48" transform="translate(427.953125 0)"/>
       <use xlink:href="#DejaVuSans-53" transform="translate(489.484375 0)"/>
       <use xlink:href="#DejaVuSans-c" transform="translate(552.96875 0)"/>
      </g>
     </g>
    </g>
    <g id="xtick_6">
     <g id="line2d_25">
      <path d="M 568.093658 278.096695 
L 568.093658 65.067094 
" clip-path="url(#p8629fda650)" style="fill: none; stroke: #dddddd; stroke-width: 0.7; stroke-linecap: square"/>
     </g>
     <g id="line2d_26">
      <g>
       <use xlink:href="#md13c295596" x="568.093658" y="278.096695" style="stroke: #000000; stroke-width: 0.8"/>
      </g>
     </g>
     <g id="text_18">
      <!-- PID-Transit -->
      <g transform="translate(545.784478 292.406197) scale(0.085 -0.085)">
       <use xlink:href="#DejaVuSans-33"/>
       <use xlink:href="#DejaVuSans-2c" transform="translate(60.296875 0)"/>
       <use xlink:href="#DejaVuSans-27" transform="translate(89.796875 0)"/>
       <use xlink:href="#DejaVuSans-10" transform="translate(166.796875 0)"/>
       <use xlink:href="#DejaVuSans-37" transform="translate(193.703125 0)"/>
       <use xlink:href="#DejaVuSans-55" transform="translate(240.078125 0)"/>
       <use xlink:href="#DejaVuSans-44" transform="translate(281.1875 0)"/>
       <use xlink:href="#DejaVuSans-51" transform="translate(342.46875 0)"/>
       <use xlink:href="#DejaVuSans-56" transform="translate(405.84375 0)"/>
       <use xlink:href="#DejaVuSans-4c" transform="translate(457.9375 0)"/>
       <use xlink:href="#DejaVuSans-57" transform="translate(485.71875 0)"/>
      </g>
      <!-- NeTEx→SQLite -->
      <g transform="translate(537.067329 302.608521) scale(0.085 -0.085)">
       <use xlink:href="#DejaVuSans-31"/>
       <use xlink:href="#DejaVuSans-48" transform="translate(74.8125 0)"/>
       <use xlink:href="#DejaVuSans-37" transform="translate(136.34375 0)"/>
       <use xlink:href="#DejaVuSans-28" transform="translate(197.421875 0)"/>
       <use xlink:href="#DejaVuSans-5b" transform="translate(260.609375 0)"/>
       <use xlink:href="#DejaVuSans-c1c" transform="translate(319.796875 0)"/>
       <use xlink:href="#DejaVuSans-36" transform="translate(403.59375 0)"/>
       <use xlink:href="#DejaVuSans-34" transform="translate(467.078125 0)"/>
       <use xlink:href="#DejaVuSans-2f" transform="translate(545.796875 0)"/>
       <use xlink:href="#DejaVuSans-4c" transform="translate(601.515625 0)"/>
       <use xlink:href="#DejaVuSans-57" transform="translate(629.296875 0)"/>
       <use xlink:href="#DejaVuSans-48" transform="translate(668.5 0)"/>
      </g>
     </g>
    </g>
    <g id="xtick_7">
     <g id="line2d_27">
      <path d="M 648.442631 278.096695 
L 648.442631 65.067094 
" clip-path="url(#p8629fda650)" style="fill: none; stroke: #dddddd; stroke-width: 0.7; stroke-linecap: square"/>
     </g>
     <g id="line2d_28">
      <g>
       <use xlink:href="#md13c295596" x="648.442631" y="278.096695" style="stroke: #000000; stroke-width: 0.8"/>
      </g>
     </g>
     <g id="text_19">
      <!-- PID-Transit -->
      <g transform="translate(626.133452 292.406197) scale(0.085 -0.085)">
       <use xlink:href="#DejaVuSans-33"/>
       <use xlink:href="#DejaVuSans-2c" transform="translate(60.296875 0)"/>
       <use xlink:href="#DejaVuSans-27" transform="translate(89.796875 0)"/>
       <use xlink:href="#DejaVuSans-10" transform="translate(166.796875 0)"/>
       <use xlink:href="#DejaVuSans-37" transform="translate(193.703125 0)"/>
       <use xlink:href="#DejaVuSans-55" transform="translate(240.078125 0)"/>
       <use xlink:href="#DejaVuSans-44" transform="translate(281.1875 0)"/>
       <use xlink:href="#DejaVuSans-51" transform="translate(342.46875 0)"/>
       <use xlink:href="#DejaVuSans-56" transform="translate(405.84375 0)"/>
       <use xlink:href="#DejaVuSans-4c" transform="translate(457.9375 0)"/>
       <use xlink:href="#DejaVuSans-57" transform="translate(485.71875 0)"/>
      </g>
      <!-- SQLite→GTFS -->
      <g transform="translate(620.202046 302.608521) scale(0.085 -0.085)">
       <use xlink:href="#DejaVuSans-36"/>
       <use xlink:href="#DejaVuSans-34" transform="translate(63.484375 0)"/>
       <use xlink:href="#DejaVuSans-2f" transform="translate(142.203125 0)"/>
       <use xlink:href="#DejaVuSans-4c" transform="translate(197.921875 0)"/>
       <use xlink:href="#DejaVuSans-57" transform="translate(225.703125 0)"/>
       <use xlink:href="#DejaVuSans-48" transform="translate(264.90625 0)"/>
       <use xlink:href="#DejaVuSans-c1c" transform="translate(326.4375 0)"/>
       <use xlink:href="#DejaVuSans-2a" transform="translate(410.234375 0)"/>
       <use xlink:href="#DejaVuSans-37" transform="translate(484.15625 0)"/>
       <use xlink:href="#DejaVuSans-29" transform="translate(545.234375 0)"/>
       <use xlink:href="#DejaVuSans-36" transform="translate(601 0)"/>
      </g>
     </g>
    </g>
    <g id="xtick_8">
     <g id="line2d_29">
      <path d="M 728.791605 278.096695 
L 728.791605 65.067094 
" clip-path="url(#p8629fda650)" style="fill: none; stroke: #dddddd; stroke-width: 0.7; stroke-linecap: square"/>
     </g>
     <g id="line2d_30">
      <g>
       <use xlink:href="#md13c295596" x="728.791605" y="278.096695" style="stroke: #000000; stroke-width: 0.8"/>
      </g>
     </g>
     <g id="text_20">
      <!-- PID-Transit -->
      <g transform="translate(706.482426 292.406197) scale(0.085 -0.085)">
       <use xlink:href="#DejaVuSans-33"/>
       <use xlink:href="#DejaVuSans-2c" transform="translate(60.296875 0)"/>
       <use xlink:href="#DejaVuSans-27" transform="translate(89.796875 0)"/>
       <use xlink:href="#DejaVuSans-10" transform="translate(166.796875 0)"/>
       <use xlink:href="#DejaVuSans-37" transform="translate(193.703125 0)"/>
       <use xlink:href="#DejaVuSans-55" transform="translate(240.078125 0)"/>
       <use xlink:href="#DejaVuSans-44" transform="translate(281.1875 0)"/>
       <use xlink:href="#DejaVuSans-51" transform="translate(342.46875 0)"/>
       <use xlink:href="#DejaVuSans-56" transform="translate(405.84375 0)"/>
       <use xlink:href="#DejaVuSans-4c" transform="translate(457.9375 0)"/>
       <use xlink:href="#DejaVuSans-57" transform="translate(485.71875 0)"/>
      </g>
      <!-- total -->
      <g transform="translate(719.073715 302.608521) scale(0.085 -0.085)">
       <use xlink:href="#DejaVuSans-57"/>
       <use xlink:href="#DejaVuSans-52" transform="translate(39.203125 0)"/>
       <use xlink:href="#DejaVuSans-57" transform="translate(100.390625 0)"/>
       <use xlink:href="#DejaVuSans-44" transform="translate(139.59375 0)"/>
       <use xlink:href="#DejaVuSans-4f" transform="translate(200.875 0)"/>
      </g>
     </g>
    </g>
   </g>
   <g id="matplotlib.axis_4">
    <g id="ytick_7">
     <g id="line2d_31">
      <path d="M 440.338789 278.096695 
L 776.1975 278.096695 
" clip-path="url(#p8629fda650)" style="fill: none; stroke: #dddddd; stroke-width: 0.7; stroke-linecap: square"/>
     </g>
     <g id="line2d_32">
      <g>
       <use xlink:href="#m0746070609" x="440.338789" y="278.096695" style="stroke: #000000; stroke-width: 0.8"/>
      </g>
     </g>
     <g id="text_21">
      <!-- 0 -->
      <g transform="translate(426.340039 282.275406) scale(0.11 -0.11)">
       <use xlink:href="#DejaVuSans-13"/>
      </g>
     </g>
    </g>
    <g id="ytick_8">
     <g id="line2d_33">
      <path d="M 440.338789 244.153164 
L 776.1975 244.153164 
" clip-path="url(#p8629fda650)" style="fill: none; stroke: #dddddd; stroke-width: 0.7; stroke-linecap: square"/>
     </g>
     <g id="line2d_34">
      <g>
       <use xlink:href="#m0746070609" x="440.338789" y="244.153164" style="stroke: #000000; stroke-width: 0.8"/>
      </g>
     </g>
     <g id="text_22">
      <!-- 200 -->
      <g transform="translate(412.342539 248.331875) scale(0.11 -0.11)">
       <use xlink:href="#DejaVuSans-15"/>
       <use xlink:href="#DejaVuSans-13" transform="translate(63.625 0)"/>
       <use xlink:href="#DejaVuSans-13" transform="translate(127.25 0)"/>
      </g>
     </g>
    </g>
    <g id="ytick_9">
     <g id="line2d_35">
      <path d="M 440.338789 210.209633 
L 776.1975 210.209633 
" clip-path="url(#p8629fda650)" style="fill: none; stroke: #dddddd; stroke-width: 0.7; stroke-linecap: square"/>
     </g>
     <g id="line2d_36">
      <g>
       <use xlink:href="#m0746070609" x="440.338789" y="210.209633" style="stroke: #000000; stroke-width: 0.8"/>
      </g>
     </g>
     <g id="text_23">
      <!-- 400 -->
      <g transform="translate(412.342539 214.388344) scale(0.11 -0.11)">
       <use xlink:href="#DejaVuSans-17"/>
       <use xlink:href="#DejaVuSans-13" transform="translate(63.625 0)"/>
       <use xlink:href="#DejaVuSans-13" transform="translate(127.25 0)"/>
      </g>
     </g>
    </g>
    <g id="ytick_10">
     <g id="line2d_37">
      <path d="M 440.338789 176.266102 
L 776.1975 176.266102 
" clip-path="url(#p8629fda650)" style="fill: none; stroke: #dddddd; stroke-width: 0.7; stroke-linecap: square"/>
     </g>
     <g id="line2d_38">
      <g>
       <use xlink:href="#m0746070609" x="440.338789" y="176.266102" style="stroke: #000000; stroke-width: 0.8"/>
      </g>
     </g>
     <g id="text_24">
      <!-- 600 -->
      <g transform="translate(412.342539 180.444813) scale(0.11 -0.11)">
       <use xlink:href="#DejaVuSans-19"/>
       <use xlink:href="#DejaVuSans-13" transform="translate(63.625 0)"/>
       <use xlink:href="#DejaVuSans-13" transform="translate(127.25 0)"/>
      </g>
     </g>
    </g>
    <g id="ytick_11">
     <g id="line2d_39">
      <path d="M 440.338789 142.322571 
L 776.1975 142.322571 
" clip-path="url(#p8629fda650)" style="fill: none; stroke: #dddddd; stroke-width: 0.7; stroke-linecap: square"/>
     </g>
     <g id="line2d_40">
      <g>
       <use xlink:href="#m0746070609" x="440.338789" y="142.322571" style="stroke: #000000; stroke-width: 0.8"/>
      </g>
     </g>
     <g id="text_25">
      <!-- 800 -->
      <g transform="translate(412.342539 146.501282) scale(0.11 -0.11)">
       <use xlink:href="#DejaVuSans-1b"/>
       <use xlink:href="#DejaVuSans-13" transform="translate(63.625 0)"/>
       <use xlink:href="#DejaVuSans-13" transform="translate(127.25 0)"/>
      </g>
     </g>
    </g>
    <g id="ytick_12">
     <g id="line2d_41">
      <path d="M 440.338789 108.37904 
L 776.1975 108.37904 
" clip-path="url(#p8629fda650)" style="fill: none; stroke: #dddddd; stroke-width: 0.7; stroke-linecap: square"/>
     </g>
     <g id="line2d_42">
      <g>
       <use xlink:href="#m0746070609" x="440.338789" y="108.37904" style="stroke: #000000; stroke-width: 0.8"/>
      </g>
     </g>
     <g id="text_26">
      <!-- 1000 -->
      <g transform="translate(405.343789 112.55775) scale(0.11 -0.11)">
       <use xlink:href="#DejaVuSans-14"/>
       <use xlink:href="#DejaVuSans-13" transform="translate(63.625 0)"/>
       <use xlink:href="#DejaVuSans-13" transform="translate(127.25 0)"/>
       <use xlink:href="#DejaVuSans-13" transform="translate(190.875 0)"/>
      </g>
     </g>
    </g>
    <g id="ytick_13">
     <g id="line2d_43">
      <path d="M 440.338789 74.435508 
L 776.1975 74.435508 
" clip-path="url(#p8629fda650)" style="fill: none; stroke: #dddddd; stroke-width: 0.7; stroke-linecap: square"/>
     </g>
     <g id="line2d_44">
      <g>
       <use xlink:href="#m0746070609" x="440.338789" y="74.435508" style="stroke: #000000; stroke-width: 0.8"/>
      </g>
     </g>
     <g id="text_27">
      <!-- 1200 -->
      <g transform="translate(405.343789 78.614219) scale(0.11 -0.11)">
       <use xlink:href="#DejaVuSans-14"/>
       <use xlink:href="#DejaVuSans-15" transform="translate(63.625 0)"/>
       <use xlink:href="#DejaVuSans-13" transform="translate(127.25 0)"/>
       <use xlink:href="#DejaVuSans-13" transform="translate(190.875 0)"/>
      </g>
     </g>
    </g>
    <g id="text_28">
     <!-- Peak memory  RAM$_{peak}$  (MB) -->
     <g transform="translate(398.043789 250.891895) rotate(-90) scale(0.11 -0.11)">
      <defs>
       <path id="DejaVuSans-4e" d="M 581 4863 
L 1159 4863 
L 1159 1991 
L 2875 3500 
L 3609 3500 
L 1753 1863 
L 3688 0 
L 2938 0 
L 1159 1709 
L 1159 0 
L 581 0 
L 581 4863 
z
" transform="scale(0.015625)"/>
       <path id="DejaVuSans-5c" d="M 2059 -325 
Q 1816 -950 1584 -1140 
Q 1353 -1331 966 -1331 
L 506 -1331 
L 506 -850 
L 844 -850 
Q 1081 -850 1212 -737 
Q 1344 -625 1503 -206 
L 1606 56 
L 191 3500 
L 800 3500 
L 1894 763 
L 2988 3500 
L 3597 3500 
L 2059 -325 
z
" transform="scale(0.015625)"/>
       <path id="DejaVuSans-35" d="M 2841 2188 
Q 3044 2119 3236 1894 
Q 3428 1669 3622 1275 
L 4263 0 
L 3584 0 
L 2988 1197 
Q 2756 1666 2539 1819 
Q 2322 1972 1947 1972 
L 1259 1972 
L 1259 0 
L 628 0 
L 628 4666 
L 2053 4666 
Q 2853 4666 3247 4331 
Q 3641 3997 3641 3322 
Q 3641 2881 3436 2590 
Q 3231 2300 2841 2188 
z
M 1259 4147 
L 1259 2491 
L 2053 2491 
Q 2509 2491 2742 2702 
Q 2975 2913 2975 3322 
Q 2975 3731 2742 3939 
Q 2509 4147 2053 4147 
L 1259 4147 
z
" transform="scale(0.015625)"/>
       <path id="DejaVuSans-24" d="M 2188 4044 
L 1331 1722 
L 3047 1722 
L 2188 4044 
z
M 1831 4666 
L 2547 4666 
L 4325 0 
L 3669 0 
L 3244 1197 
L 1141 1197 
L 716 0 
L 50 0 
L 1831 4666 
z
" transform="scale(0.015625)"/>
       <path id="DejaVuSans-30" d="M 628 4666 
L 1569 4666 
L 2759 1491 
L 3956 4666 
L 4897 4666 
L 4897 0 
L 4281 0 
L 4281 4097 
L 3078 897 
L 2444 897 
L 1241 4097 
L 1241 0 
L 628 0 
L 628 4666 
z
" transform="scale(0.015625)"/>
       <path id="DejaVuSans-Oblique-53" d="M 3175 2156 
Q 3175 2616 2975 2859 
Q 2775 3103 2400 3103 
Q 2144 3103 1911 2972 
Q 1678 2841 1497 2591 
Q 1319 2344 1212 1994 
Q 1106 1644 1106 1300 
Q 1106 863 1306 627 
Q 1506 391 1875 391 
Q 2147 391 2380 519 
Q 2613 647 2778 891 
Q 2956 1147 3065 1494 
Q 3175 1841 3175 2156 
z
M 1394 2969 
Q 1625 3272 1939 3428 
Q 2253 3584 2638 3584 
Q 3175 3584 3472 3232 
Q 3769 2881 3769 2247 
Q 3769 1728 3584 1258 
Q 3400 788 3053 416 
Q 2822 169 2531 39 
Q 2241 -91 1919 -91 
Q 1547 -91 1294 64 
Q 1041 219 916 525 
L 556 -1331 
L -19 -1331 
L 922 3500 
L 1497 3500 
L 1394 2969 
z
" transform="scale(0.015625)"/>
       <path id="DejaVuSans-Oblique-44" d="M 3438 1997 
L 3047 0 
L 2472 0 
L 2578 531 
Q 2325 219 2001 64 
Q 1678 -91 1281 -91 
Q 834 -91 548 182 
Q 263 456 263 884 
Q 263 1497 752 1853 
Q 1241 2209 2100 2209 
L 2900 2209 
L 2931 2363 
Q 2938 2388 2941 2417 
Q 2944 2447 2944 2509 
Q 2944 2788 2717 2942 
Q 2491 3097 2081 3097 
Q 1800 3097 1504 3025 
Q 1209 2953 897 2809 
L 997 3341 
Q 1322 3463 1633 3523 
Q 1944 3584 2234 3584 
Q 2853 3584 3176 3315 
Q 3500 3047 3500 2534 
Q 3500 2431 3484 2292 
Q 3469 2153 3438 1997 
z
M 2816 1759 
L 2241 1759 
Q 1534 1759 1195 1570 
Q 856 1381 856 984 
Q 856 709 1029 553 
Q 1203 397 1509 397 
Q 1978 397 2328 733 
Q 2678 1069 2791 1631 
L 2816 1759 
z
" transform="scale(0.015625)"/>
       <path id="DejaVuSans-Oblique-4e" d="M 1172 4863 
L 1747 4863 
L 1197 2028 
L 3169 3500 
L 3916 3500 
L 1716 1825 
L 3322 0 
L 2625 0 
L 1131 1709 
L 800 0 
L 225 0 
L 1172 4863 
z
" transform="scale(0.015625)"/>
       <path id="DejaVuSans-25" d="M 1259 2228 
L 1259 519 
L 2272 519 
Q 2781 519 3026 730 
Q 3272 941 3272 1375 
Q 3272 1813 3026 2020 
Q 2781 2228 2272 2228 
L 1259 2228 
z
M 1259 4147 
L 1259 2741 
L 2194 2741 
Q 2656 2741 2882 2914 
Q 3109 3088 3109 3444 
Q 3109 3797 2882 3972 
Q 2656 4147 2194 4147 
L 1259 4147 
z
M 628 4666 
L 2241 4666 
Q 2963 4666 3353 4366 
Q 3744 4066 3744 3513 
Q 3744 3084 3544 2831 
Q 3344 2578 2956 2516 
Q 3422 2416 3680 2098 
Q 3938 1781 3938 1306 
Q 3938 681 3513 340 
Q 3088 0 2303 0 
L 628 0 
L 628 4666 
z
" transform="scale(0.015625)"/>
      </defs>
      <use xlink:href="#DejaVuSans-33" transform="translate(0 0.015625)"/>
      <use xlink:href="#DejaVuSans-48" transform="translate(56.302734 0.015625)"/>
      <use xlink:href="#DejaVuSans-44" transform="translate(117.826172 0.015625)"/>
      <use xlink:href="#DejaVuSans-4e" transform="translate(179.105469 0.015625)"/>
      <use xlink:href="#DejaVuSans-3" transform="translate(237.015625 0.015625)"/>
      <use xlink:href="#DejaVuSans-50" transform="translate(268.802734 0.015625)"/>
      <use xlink:href="#DejaVuSans-48" transform="translate(366.214844 0.015625)"/>
      <use xlink:href="#DejaVuSans-50" transform="translate(427.738281 0.015625)"/>
      <use xlink:href="#DejaVuSans-52" transform="translate(525.150391 0.015625)"/>
      <use xlink:href="#DejaVuSans-55" transform="translate(586.332031 0.015625)"/>
      <use xlink:href="#DejaVuSans-5c" transform="translate(627.445312 0.015625)"/>
      <use xlink:href="#DejaVuSans-3" transform="translate(686.625 0.015625)"/>
      <use xlink:href="#DejaVuSans-3" transform="translate(718.412109 0.015625)"/>
      <use xlink:href="#DejaVuSans-35" transform="translate(750.199219 0.015625)"/>
      <use xlink:href="#DejaVuSans-24" transform="translate(815.681641 0.015625)"/>
      <use xlink:href="#DejaVuSans-30" transform="translate(884.089844 0.015625)"/>
      <use xlink:href="#DejaVuSans-Oblique-53" transform="translate(971.326172 -14.984326) scale(0.7)"/>
      <use xlink:href="#DejaVuSans-Oblique-48" transform="translate(1015.759766 -14.984326) scale(0.7)"/>
      <use xlink:href="#DejaVuSans-Oblique-44" transform="translate(1058.826172 -14.984326) scale(0.7)"/>
      <use xlink:href="#DejaVuSans-Oblique-4e" transform="translate(1101.72168 -14.984326) scale(0.7)"/>
      <use xlink:href="#DejaVuSans-3" transform="translate(1144.993164 0.015625)"/>
      <use xlink:href="#DejaVuSans-3" transform="translate(1176.780273 0.015625)"/>
      <use xlink:href="#DejaVuSans-b" transform="translate(1208.567383 0.015625)"/>
      <use xlink:href="#DejaVuSans-30" transform="translate(1247.581055 0.015625)"/>
      <use xlink:href="#DejaVuSans-25" transform="translate(1333.860352 0.015625)"/>
      <use xlink:href="#DejaVuSans-c" transform="translate(1402.463867 0.015625)"/>
     </g>
    </g>
   </g>
   <g id="patch_10">
    <path d="M 455.605094 278.096695 
L 519.884273 278.096695 
L 519.884273 188.146338 
L 455.605094 188.146338 
z
" clip-path="url(#p8629fda650)" style="fill: #009e73; stroke: #000000; stroke-width: 0.5; stroke-linejoin: miter"/>
   </g>
   <g id="patch_11">
    <path d="M 535.954068 278.096695 
L 600.233247 278.096695 
L 600.233247 100.572027 
L 535.954068 100.572027 
z
" clip-path="url(#p8629fda650)" style="fill: #0072b2; stroke: #000000; stroke-width: 0.5; stroke-linejoin: miter"/>
   </g>
   <g id="patch_12">
    <path d="M 616.303042 278.096695 
L 680.582221 278.096695 
L 680.582221 206.306127 
L 616.303042 206.306127 
z
" clip-path="url(#p8629fda650)" style="fill: #0072b2; stroke: #000000; stroke-width: 0.5; stroke-linejoin: miter"/>
   </g>
   <g id="patch_13">
    <path d="M 696.652016 278.096695 
L 760.931195 278.096695 
L 760.931195 100.572027 
L 696.652016 100.572027 
z
" clip-path="url(#p8629fda650)" style="fill: #0072b2; stroke: #000000; stroke-width: 0.5; stroke-linejoin: miter"/>
   </g>
   <g id="patch_14">
    <path d="M 440.338789 278.096695 
L 440.338789 65.067094 
" style="fill: none; stroke: #000000; stroke-width: 0.8; stroke-linejoin: miter; stroke-linecap: square"/>
   </g>
   <g id="patch_15">
    <path d="M 440.338789 278.096695 
L 776.1975 278.096695 
" style="fill: none; stroke: #000000; stroke-width: 0.8; stroke-linejoin: miter; stroke-linecap: square"/>
   </g>
   <g id="text_29">
    <!-- 530 -->
    <g transform="translate(479.632496 183.104346) scale(0.085 -0.085)">
     <use xlink:href="#DejaVuSans-18"/>
     <use xlink:href="#DejaVuSans-16" transform="translate(63.625 0)"/>
     <use xlink:href="#DejaVuSans-13" transform="translate(127.25 0)"/>
    </g>
   </g>
   <g id="text_30">
    <!-- 1046 -->
    <g transform="translate(557.277408 95.530035) scale(0.085 -0.085)">
     <use xlink:href="#DejaVuSans-14"/>
     <use xlink:href="#DejaVuSans-13" transform="translate(63.625 0)"/>
     <use xlink:href="#DejaVuSans-17" transform="translate(127.25 0)"/>
     <use xlink:href="#DejaVuSans-19" transform="translate(190.875 0)"/>
    </g>
   </g>
   <g id="text_31">
    <!-- 423 -->
    <g transform="translate(640.330444 201.264135) scale(0.085 -0.085)">
     <use xlink:href="#DejaVuSans-17"/>
     <use xlink:href="#DejaVuSans-15" transform="translate(63.625 0)"/>
     <use xlink:href="#DejaVuSans-16" transform="translate(127.25 0)"/>
    </g>
   </g>
   <g id="text_32">
    <!-- 1046 -->
    <g transform="translate(717.975355 95.530035) scale(0.085 -0.085)">
     <use xlink:href="#DejaVuSans-14"/>
     <use xlink:href="#DejaVuSans-13" transform="translate(63.625 0)"/>
     <use xlink:href="#DejaVuSans-17" transform="translate(127.25 0)"/>
     <use xlink:href="#DejaVuSans-19" transform="translate(190.875 0)"/>
    </g>
   </g>
   <g id="text_33">
    <!-- (b) Peak resident memory -->
    <g transform="translate(536.765566 59.067094) scale(0.11 -0.11)">
     <defs>
      <path id="DejaVuSans-45" d="M 3116 1747 
Q 3116 2381 2855 2742 
Q 2594 3103 2138 3103 
Q 1681 3103 1420 2742 
Q 1159 2381 1159 1747 
Q 1159 1113 1420 752 
Q 1681 391 2138 391 
Q 2594 391 2855 752 
Q 3116 1113 3116 1747 
z
M 1159 2969 
Q 1341 3281 1617 3432 
Q 1894 3584 2278 3584 
Q 2916 3584 3314 3078 
Q 3713 2572 3713 1747 
Q 3713 922 3314 415 
Q 2916 -91 2278 -91 
Q 1894 -91 1617 61 
Q 1341 213 1159 525 
L 1159 0 
L 581 0 
L 581 4863 
L 1159 4863 
L 1159 2969 
z
" transform="scale(0.015625)"/>
      <path id="DejaVuSans-47" d="M 2906 2969 
L 2906 4863 
L 3481 4863 
L 3481 0 
L 2906 0 
L 2906 525 
Q 2725 213 2448 61 
Q 2172 -91 1784 -91 
Q 1150 -91 751 415 
Q 353 922 353 1747 
Q 353 2572 751 3078 
Q 1150 3584 1784 3584 
Q 2172 3584 2448 3432 
Q 2725 3281 2906 2969 
z
M 947 1747 
Q 947 1113 1208 752 
Q 1469 391 1925 391 
Q 2381 391 2643 752 
Q 2906 1113 2906 1747 
Q 2906 2381 2643 2742 
Q 2381 3103 1925 3103 
Q 1469 3103 1208 2742 
Q 947 2381 947 1747 
z
" transform="scale(0.015625)"/>
     </defs>
     <use xlink:href="#DejaVuSans-b"/>
     <use xlink:href="#DejaVuSans-45" transform="translate(39.015625 0)"/>
     <use xlink:href="#DejaVuSans-c" transform="translate(102.5 0)"/>
     <use xlink:href="#DejaVuSans-3" transform="translate(141.515625 0)"/>
     <use xlink:href="#DejaVuSans-33" transform="translate(173.296875 0)"/>
     <use xlink:href="#DejaVuSans-48" transform="translate(230.03125 0)"/>
     <use xlink:href="#DejaVuSans-44" transform="translate(291.5625 0)"/>
     <use xlink:href="#DejaVuSans-4e" transform="translate(352.84375 0)"/>
     <use xlink:href="#DejaVuSans-3" transform="translate(410.75 0)"/>
     <use xlink:href="#DejaVuSans-55" transform="translate(442.53125 0)"/>
     <use xlink:href="#DejaVuSans-48" transform="translate(481.4375 0)"/>
     <use xlink:href="#DejaVuSans-56" transform="translate(542.96875 0)"/>
     <use xlink:href="#DejaVuSans-4c" transform="translate(595.0625 0)"/>
     <use xlink:href="#DejaVuSans-47" transform="translate(622.84375 0)"/>
     <use xlink:href="#DejaVuSans-48" transform="translate(686.328125 0)"/>
     <use xlink:href="#DejaVuSans-51" transform="translate(747.859375 0)"/>
     <use xlink:href="#DejaVuSans-57" transform="translate(811.234375 0)"/>
     <use xlink:href="#DejaVuSans-3" transform="translate(850.4375 0)"/>
     <use xlink:href="#DejaVuSans-50" transform="translate(882.21875 0)"/>
     <use xlink:href="#DejaVuSans-48" transform="translate(979.625 0)"/>
     <use xlink:href="#DejaVuSans-50" transform="translate(1041.15625 0)"/>
     <use xlink:href="#DejaVuSans-52" transform="translate(1138.5625 0)"/>
     <use xlink:href="#DejaVuSans-55" transform="translate(1199.75 0)"/>
     <use xlink:href="#DejaVuSans-5c" transform="translate(1240.859375 0)"/>
    </g>
   </g>
  </g>
  <g id="text_34">
   <!-- NeTEx → GTFS head-to-head: Theoremus vs PID-Transit -->
   <g transform="translate(188.044687 17.229937) scale(0.132 -0.132)">
    <defs>
     <path id="DejaVuSans-Bold-31" d="M 588 4666 
L 1931 4666 
L 3628 1466 
L 3628 4666 
L 4769 4666 
L 4769 0 
L 3425 0 
L 1728 3200 
L 1728 0 
L 588 0 
L 588 4666 
z
" transform="scale(0.015625)"/>
     <path id="DejaVuSans-Bold-48" d="M 4031 1759 
L 4031 1441 
L 1416 1441 
Q 1456 1047 1700 850 
Q 1944 653 2381 653 
Q 2734 653 3104 758 
Q 3475 863 3866 1075 
L 3866 213 
Q 3469 63 3072 -14 
Q 2675 -91 2278 -91 
Q 1328 -91 801 392 
Q 275 875 275 1747 
Q 275 2603 792 3093 
Q 1309 3584 2216 3584 
Q 3041 3584 3536 3087 
Q 4031 2591 4031 1759 
z
M 2881 2131 
Q 2881 2450 2695 2645 
Q 2509 2841 2209 2841 
Q 1884 2841 1681 2658 
Q 1478 2475 1428 2131 
L 2881 2131 
z
" transform="scale(0.015625)"/>
     <path id="DejaVuSans-Bold-37" d="M 31 4666 
L 4331 4666 
L 4331 3756 
L 2784 3756 
L 2784 0 
L 1581 0 
L 1581 3756 
L 31 3756 
L 31 4666 
z
" transform="scale(0.015625)"/>
     <path id="DejaVuSans-Bold-28" d="M 588 4666 
L 3834 4666 
L 3834 3756 
L 1791 3756 
L 1791 2888 
L 3713 2888 
L 3713 1978 
L 1791 1978 
L 1791 909 
L 3903 909 
L 3903 0 
L 588 0 
L 588 4666 
z
" transform="scale(0.015625)"/>
     <path id="DejaVuSans-Bold-5b" d="M 1422 1791 
L 159 3500 
L 1344 3500 
L 2059 2463 
L 2784 3500 
L 3969 3500 
L 2706 1797 
L 4031 0 
L 2847 0 
L 2059 1106 
L 1281 0 
L 97 0 
L 1422 1791 
z
" transform="scale(0.015625)"/>
     <path id="DejaVuSans-Bold-3" transform="scale(0.015625)"/>
     <path id="DejaVuSans-Bold-c1c" d="M 5050 2225 
L 5050 1788 
L 3822 559 
L 3369 1013 
L 3988 1631 
L 366 1631 
L 366 2381 
L 3988 2381 
L 3369 3000 
L 3822 3453 
L 5050 2225 
z
" transform="scale(0.015625)"/>
     <path id="DejaVuSans-Bold-2a" d="M 4781 347 
Q 4331 128 3847 18 
Q 3363 -91 2847 -91 
Q 1681 -91 1000 561 
Q 319 1213 319 2328 
Q 319 3456 1012 4103 
Q 1706 4750 2913 4750 
Q 3378 4750 3804 4662 
Q 4231 4575 4609 4403 
L 4609 3438 
Q 4219 3659 3833 3768 
Q 3447 3878 3059 3878 
Q 2341 3878 1952 3476 
Q 1563 3075 1563 2328 
Q 1563 1588 1938 1184 
Q 2313 781 3003 781 
Q 3191 781 3352 804 
Q 3513 828 3641 878 
L 3641 1784 
L 2906 1784 
L 2906 2591 
L 4781 2591 
L 4781 347 
z
" transform="scale(0.015625)"/>
     <path id="DejaVuSans-Bold-29" d="M 588 4666 
L 3834 4666 
L 3834 3756 
L 1791 3756 
L 1791 2888 
L 3713 2888 
L 3713 1978 
L 1791 1978 
L 1791 0 
L 588 0 
L 588 4666 
z
" transform="scale(0.015625)"/>
     <path id="DejaVuSans-Bold-36" d="M 3834 4519 
L 3834 3531 
Q 3450 3703 3084 3790 
Q 2719 3878 2394 3878 
Q 1963 3878 1756 3759 
Q 1550 3641 1550 3391 
Q 1550 3203 1689 3098 
Q 1828 2994 2194 2919 
L 2706 2816 
Q 3484 2659 3812 2340 
Q 4141 2022 4141 1434 
Q 4141 663 3683 286 
Q 3225 -91 2284 -91 
Q 1841 -91 1394 -6 
Q 947 78 500 244 
L 500 1259 
Q 947 1022 1364 901 
Q 1781 781 2169 781 
Q 2563 781 2772 912 
Q 2981 1044 2981 1288 
Q 2981 1506 2839 1625 
Q 2697 1744 2272 1838 
L 1806 1941 
Q 1106 2091 782 2419 
Q 459 2747 459 3303 
Q 459 4000 909 4375 
Q 1359 4750 2203 4750 
Q 2588 4750 2994 4692 
Q 3400 4634 3834 4519 
z
" transform="scale(0.015625)"/>
     <path id="DejaVuSans-Bold-4b" d="M 4056 2131 
L 4056 0 
L 2931 0 
L 2931 347 
L 2931 1625 
Q 2931 2084 2911 2256 
Q 2891 2428 2841 2509 
Q 2775 2619 2662 2680 
Q 2550 2741 2406 2741 
Q 2056 2741 1856 2470 
Q 1656 2200 1656 1722 
L 1656 0 
L 538 0 
L 538 4863 
L 1656 4863 
L 1656 2988 
Q 1909 3294 2193 3439 
Q 2478 3584 2822 3584 
Q 3428 3584 3742 3212 
Q 4056 2841 4056 2131 
z
" transform="scale(0.015625)"/>
     <path id="DejaVuSans-Bold-44" d="M 2106 1575 
Q 1756 1575 1579 1456 
Q 1403 1338 1403 1106 
Q 1403 894 1545 773 
Q 1688 653 1941 653 
Q 2256 653 2472 879 
Q 2688 1106 2688 1447 
L 2688 1575 
L 2106 1575 
z
M 3816 1997 
L 3816 0 
L 2688 0 
L 2688 519 
Q 2463 200 2181 54 
Q 1900 -91 1497 -91 
Q 953 -91 614 226 
Q 275 544 275 1050 
Q 275 1666 698 1953 
Q 1122 2241 2028 2241 
L 2688 2241 
L 2688 2328 
Q 2688 2594 2478 2717 
Q 2269 2841 1825 2841 
Q 1466 2841 1156 2769 
Q 847 2697 581 2553 
L 581 3406 
Q 941 3494 1303 3539 
Q 1666 3584 2028 3584 
Q 2975 3584 3395 3211 
Q 3816 2838 3816 1997 
z
" transform="scale(0.015625)"/>
     <path id="DejaVuSans-Bold-47" d="M 2919 2988 
L 2919 4863 
L 4044 4863 
L 4044 0 
L 2919 0 
L 2919 506 
Q 2688 197 2409 53 
Q 2131 -91 1766 -91 
Q 1119 -91 703 423 
Q 288 938 288 1747 
Q 288 2556 703 3070 
Q 1119 3584 1766 3584 
Q 2128 3584 2408 3439 
Q 2688 3294 2919 2988 
z
M 2181 722 
Q 2541 722 2730 984 
Q 2919 1247 2919 1747 
Q 2919 2247 2730 2509 
Q 2541 2772 2181 2772 
Q 1825 2772 1636 2509 
Q 1447 2247 1447 1747 
Q 1447 1247 1636 984 
Q 1825 722 2181 722 
z
" transform="scale(0.015625)"/>
     <path id="DejaVuSans-Bold-10" d="M 347 2297 
L 2309 2297 
L 2309 1388 
L 347 1388 
L 347 2297 
z
" transform="scale(0.015625)"/>
     <path id="DejaVuSans-Bold-57" d="M 1759 4494 
L 1759 3500 
L 2913 3500 
L 2913 2700 
L 1759 2700 
L 1759 1216 
Q 1759 972 1856 886 
Q 1953 800 2241 800 
L 2816 800 
L 2816 0 
L 1856 0 
Q 1194 0 917 276 
Q 641 553 641 1216 
L 641 2700 
L 84 2700 
L 84 3500 
L 641 3500 
L 641 4494 
L 1759 4494 
z
" transform="scale(0.015625)"/>
     <path id="DejaVuSans-Bold-52" d="M 2203 2784 
Q 1831 2784 1636 2517 
Q 1441 2250 1441 1747 
Q 1441 1244 1636 976 
Q 1831 709 2203 709 
Q 2569 709 2762 976 
Q 2956 1244 2956 1747 
Q 2956 2250 2762 2517 
Q 2569 2784 2203 2784 
z
M 2203 3584 
Q 3106 3584 3614 3096 
Q 4122 2609 4122 1747 
Q 4122 884 3614 396 
Q 3106 -91 2203 -91 
Q 1297 -91 786 396 
Q 275 884 275 1747 
Q 275 2609 786 3096 
Q 1297 3584 2203 3584 
z
" transform="scale(0.015625)"/>
     <path id="DejaVuSans-Bold-1d" d="M 716 3500 
L 1844 3500 
L 1844 2291 
L 716 2291 
L 716 3500 
z
M 716 1209 
L 1844 1209 
L 1844 0 
L 716 0 
L 716 1209 
z
" transform="scale(0.015625)"/>
     <path id="DejaVuSans-Bold-55" d="M 3138 2547 
Q 2991 2616 2845 2648 
Q 2700 2681 2553 2681 
Q 2122 2681 1889 2404 
Q 1656 2128 1656 1613 
L 1656 0 
L 538 0 
L 538 3500 
L 1656 3500 
L 1656 2925 
Q 1872 3269 2151 3426 
Q 2431 3584 2822 3584 
Q 2878 3584 2943 3579 
Q 3009 3575 3134 3559 
L 3138 2547 
z
" transform="scale(0.015625)"/>
     <path id="DejaVuSans-Bold-50" d="M 3781 2919 
Q 3994 3244 4286 3414 
Q 4578 3584 4928 3584 
Q 5531 3584 5847 3212 
Q 6163 2841 6163 2131 
L 6163 0 
L 5038 0 
L 5038 1825 
Q 5041 1866 5042 1909 
Q 5044 1953 5044 2034 
Q 5044 2406 4934 2573 
Q 4825 2741 4581 2741 
Q 4263 2741 4089 2478 
Q 3916 2216 3909 1719 
L 3909 0 
L 2784 0 
L 2784 1825 
Q 2784 2406 2684 2573 
Q 2584 2741 2328 2741 
Q 2006 2741 1831 2477 
Q 1656 2213 1656 1722 
L 1656 0 
L 531 0 
L 531 3500 
L 1656 3500 
L 1656 2988 
Q 1863 3284 2130 3434 
Q 2397 3584 2719 3584 
Q 3081 3584 3359 3409 
Q 3638 3234 3781 2919 
z
" transform="scale(0.015625)"/>
     <path id="DejaVuSans-Bold-58" d="M 500 1363 
L 500 3500 
L 1625 3500 
L 1625 3150 
Q 1625 2866 1622 2436 
Q 1619 2006 1619 1863 
Q 1619 1441 1641 1255 
Q 1663 1069 1716 984 
Q 1784 875 1895 815 
Q 2006 756 2150 756 
Q 2500 756 2700 1025 
Q 2900 1294 2900 1772 
L 2900 3500 
L 4019 3500 
L 4019 0 
L 2900 0 
L 2900 506 
Q 2647 200 2364 54 
Q 2081 -91 1741 -91 
Q 1134 -91 817 281 
Q 500 653 500 1363 
z
" transform="scale(0.015625)"/>
     <path id="DejaVuSans-Bold-56" d="M 3272 3391 
L 3272 2541 
Q 2913 2691 2578 2766 
Q 2244 2841 1947 2841 
Q 1628 2841 1473 2761 
Q 1319 2681 1319 2516 
Q 1319 2381 1436 2309 
Q 1553 2238 1856 2203 
L 2053 2175 
Q 2913 2066 3209 1816 
Q 3506 1566 3506 1031 
Q 3506 472 3093 190 
Q 2681 -91 1863 -91 
Q 1516 -91 1145 -36 
Q 775 19 384 128 
L 384 978 
Q 719 816 1070 734 
Q 1422 653 1784 653 
Q 2113 653 2278 743 
Q 2444 834 2444 1013 
Q 2444 1163 2330 1236 
Q 2216 1309 1875 1350 
L 1678 1375 
Q 931 1469 631 1722 
Q 331 1975 331 2491 
Q 331 3047 712 3315 
Q 1094 3584 1881 3584 
Q 2191 3584 2531 3537 
Q 2872 3491 3272 3391 
z
" transform="scale(0.015625)"/>
     <path id="DejaVuSans-Bold-59" d="M 97 3500 
L 1216 3500 
L 2088 1081 
L 2956 3500 
L 4078 3500 
L 2700 0 
L 1472 0 
L 97 3500 
z
" transform="scale(0.015625)"/>
     <path id="DejaVuSans-Bold-33" d="M 588 4666 
L 2584 4666 
Q 3475 4666 3951 4270 
Q 4428 3875 4428 3144 
Q 4428 2409 3951 2014 
Q 3475 1619 2584 1619 
L 1791 1619 
L 1791 0 
L 588 0 
L 588 4666 
z
M 1791 3794 
L 1791 2491 
L 2456 2491 
Q 2806 2491 2997 2661 
Q 3188 2831 3188 3144 
Q 3188 3456 2997 3625 
Q 2806 3794 2456 3794 
L 1791 3794 
z
" transform="scale(0.015625)"/>
     <path id="DejaVuSans-Bold-2c" d="M 588 4666 
L 1791 4666 
L 1791 0 
L 588 0 
L 588 4666 
z
" transform="scale(0.015625)"/>
     <path id="DejaVuSans-Bold-27" d="M 1791 3756 
L 1791 909 
L 2222 909 
Q 2959 909 3348 1275 
Q 3738 1641 3738 2338 
Q 3738 3031 3350 3393 
Q 2963 3756 2222 3756 
L 1791 3756 
z
M 588 4666 
L 1856 4666 
Q 2919 4666 3439 4514 
Q 3959 4363 4331 4000 
Q 4659 3684 4818 3271 
Q 4978 2859 4978 2338 
Q 4978 1809 4818 1395 
Q 4659 981 4331 666 
Q 3956 303 3431 151 
Q 2906 0 1856 0 
L 588 0 
L 588 4666 
z
" transform="scale(0.015625)"/>
     <path id="DejaVuSans-Bold-51" d="M 4056 2131 
L 4056 0 
L 2931 0 
L 2931 347 
L 2931 1631 
Q 2931 2084 2911 2256 
Q 2891 2428 2841 2509 
Q 2775 2619 2662 2680 
Q 2550 2741 2406 2741 
Q 2056 2741 1856 2470 
Q 1656 2200 1656 1722 
L 1656 0 
L 538 0 
L 538 3500 
L 1656 3500 
L 1656 2988 
Q 1909 3294 2193 3439 
Q 2478 3584 2822 3584 
Q 3428 3584 3742 3212 
Q 4056 2841 4056 2131 
z
" transform="scale(0.015625)"/>
     <path id="DejaVuSans-Bold-4c" d="M 538 3500 
L 1656 3500 
L 1656 0 
L 538 0 
L 538 3500 
z
M 538 4863 
L 1656 4863 
L 1656 3950 
L 538 3950 
L 538 4863 
z
" transform="scale(0.015625)"/>
    </defs>
    <use xlink:href="#DejaVuSans-Bold-31"/>
    <use xlink:href="#DejaVuSans-Bold-48" transform="translate(83.6875 0)"/>
    <use xlink:href="#DejaVuSans-Bold-37" transform="translate(151.515625 0)"/>
    <use xlink:href="#DejaVuSans-Bold-28" transform="translate(219.734375 0)"/>
    <use xlink:href="#DejaVuSans-Bold-5b" transform="translate(288.046875 0)"/>
    <use xlink:href="#DejaVuSans-Bold-3" transform="translate(352.546875 0)"/>
    <use xlink:href="#DejaVuSans-Bold-c1c" transform="translate(387.359375 0)"/>
    <use xlink:href="#DejaVuSans-Bold-3" transform="translate(471.15625 0)"/>
    <use xlink:href="#DejaVuSans-Bold-2a" transform="translate(505.96875 0)"/>
    <use xlink:href="#DejaVuSans-Bold-37" transform="translate(586.296875 0)"/>
    <use xlink:href="#DejaVuSans-Bold-29" transform="translate(654.515625 0)"/>
    <use xlink:href="#DejaVuSans-Bold-36" transform="translate(722.828125 0)"/>
    <use xlink:href="#DejaVuSans-Bold-3" transform="translate(794.84375 0)"/>
    <use xlink:href="#DejaVuSans-Bold-4b" transform="translate(829.65625 0)"/>
    <use xlink:href="#DejaVuSans-Bold-48" transform="translate(900.84375 0)"/>
    <use xlink:href="#DejaVuSans-Bold-44" transform="translate(968.671875 0)"/>
    <use xlink:href="#DejaVuSans-Bold-47" transform="translate(1036.15625 0)"/>
    <use xlink:href="#DejaVuSans-Bold-10" transform="translate(1107.734375 0)"/>
    <use xlink:href="#DejaVuSans-Bold-57" transform="translate(1149.234375 0)"/>
    <use xlink:href="#DejaVuSans-Bold-52" transform="translate(1197.03125 0)"/>
    <use xlink:href="#DejaVuSans-Bold-10" transform="translate(1265.734375 0)"/>
    <use xlink:href="#DejaVuSans-Bold-4b" transform="translate(1307.234375 0)"/>
    <use xlink:href="#DejaVuSans-Bold-48" transform="translate(1378.421875 0)"/>
    <use xlink:href="#DejaVuSans-Bold-44" transform="translate(1446.25 0)"/>
    <use xlink:href="#DejaVuSans-Bold-47" transform="translate(1513.734375 0)"/>
    <use xlink:href="#DejaVuSans-Bold-1d" transform="translate(1585.3125 0)"/>
    <use xlink:href="#DejaVuSans-Bold-3" transform="translate(1625.296875 0)"/>
    <use xlink:href="#DejaVuSans-Bold-37" transform="translate(1660.109375 0)"/>
    <use xlink:href="#DejaVuSans-Bold-4b" transform="translate(1728.328125 0)"/>
    <use xlink:href="#DejaVuSans-Bold-48" transform="translate(1799.515625 0)"/>
    <use xlink:href="#DejaVuSans-Bold-52" transform="translate(1867.34375 0)"/>
    <use xlink:href="#DejaVuSans-Bold-55" transform="translate(1936.046875 0)"/>
    <use xlink:href="#DejaVuSans-Bold-48" transform="translate(1985.359375 0)"/>
    <use xlink:href="#DejaVuSans-Bold-50" transform="translate(2053.1875 0)"/>
    <use xlink:href="#DejaVuSans-Bold-58" transform="translate(2157.390625 0)"/>
    <use xlink:href="#DejaVuSans-Bold-56" transform="translate(2228.578125 0)"/>
    <use xlink:href="#DejaVuSans-Bold-3" transform="translate(2288.09375 0)"/>
    <use xlink:href="#DejaVuSans-Bold-59" transform="translate(2322.90625 0)"/>
    <use xlink:href="#DejaVuSans-Bold-56" transform="translate(2388.09375 0)"/>
    <use xlink:href="#DejaVuSans-Bold-3" transform="translate(2447.609375 0)"/>
    <use xlink:href="#DejaVuSans-Bold-33" transform="translate(2482.421875 0)"/>
    <use xlink:href="#DejaVuSans-Bold-2c" transform="translate(2555.71875 0)"/>
    <use xlink:href="#DejaVuSans-Bold-27" transform="translate(2592.921875 0)"/>
    <use xlink:href="#DejaVuSans-Bold-10" transform="translate(2677.796875 0)"/>
    <use xlink:href="#DejaVuSans-Bold-37" transform="translate(2704.59375 0)"/>
    <use xlink:href="#DejaVuSans-Bold-55" transform="translate(2761.828125 0)"/>
    <use xlink:href="#DejaVuSans-Bold-44" transform="translate(2811.140625 0)"/>
    <use xlink:href="#DejaVuSans-Bold-51" transform="translate(2878.625 0)"/>
    <use xlink:href="#DejaVuSans-Bold-56" transform="translate(2949.8125 0)"/>
    <use xlink:href="#DejaVuSans-Bold-4c" transform="translate(3009.328125 0)"/>
    <use xlink:href="#DejaVuSans-Bold-57" transform="translate(3043.609375 0)"/>
   </g>
  </g>
  <g id="text_35">
   <!-- Intel / Windows machine (RESULTS §3.4) · same Porto NeTEx input · 7 reps + 1 warmup -->
   <g style="fill: #666666" transform="translate(228.252305 324) scale(0.075 -0.075)">
    <defs>
     <path id="DejaVuSans-12" d="M 1625 4666 
L 2156 4666 
L 531 -594 
L 0 -594 
L 1625 4666 
z
" transform="scale(0.015625)"/>
     <path id="DejaVuSans-3a" d="M 213 4666 
L 850 4666 
L 1831 722 
L 2809 4666 
L 3519 4666 
L 4500 722 
L 5478 4666 
L 6119 4666 
L 4947 0 
L 4153 0 
L 3169 4050 
L 2175 0 
L 1381 0 
L 213 4666 
z
" transform="scale(0.015625)"/>
     <path id="DejaVuSans-5a" d="M 269 3500 
L 844 3500 
L 1563 769 
L 2278 3500 
L 2956 3500 
L 3675 769 
L 4391 3500 
L 4966 3500 
L 4050 0 
L 3372 0 
L 2619 2869 
L 1863 0 
L 1184 0 
L 269 3500 
z
" transform="scale(0.015625)"/>
     <path id="DejaVuSans-38" d="M 556 4666 
L 1191 4666 
L 1191 1831 
Q 1191 1081 1462 751 
Q 1734 422 2344 422 
Q 2950 422 3222 751 
Q 3494 1081 3494 1831 
L 3494 4666 
L 4128 4666 
L 4128 1753 
Q 4128 841 3676 375 
Q 3225 -91 2344 -91 
Q 1459 -91 1007 375 
Q 556 841 556 1753 
L 556 4666 
z
" transform="scale(0.015625)"/>
     <path id="DejaVuSans-69" d="M 1184 2925 
Q 988 2781 891 2640 
Q 794 2500 794 2356 
Q 794 2119 1011 1911 
Q 1228 1703 2009 1281 
Q 2206 1422 2303 1564 
Q 2400 1706 2400 1850 
Q 2400 2084 2176 2296 
Q 1953 2509 1184 2925 
z
M 2591 4569 
L 2591 4056 
Q 2331 4178 2107 4239 
Q 1884 4300 1709 4300 
Q 1406 4300 1237 4175 
Q 1069 4050 1069 3828 
Q 1069 3547 1713 3188 
Q 1794 3141 1838 3116 
Q 2497 2744 2701 2503 
Q 2906 2263 2906 1947 
Q 2906 1666 2762 1447 
Q 2619 1228 2328 1063 
Q 2522 900 2611 729 
Q 2700 559 2700 359 
Q 2700 -84 2381 -346 
Q 2063 -609 1522 -609 
Q 1294 -609 1053 -564 
Q 813 -519 538 -428 
L 538 84 
Q 809 -38 1040 -98 
Q 1272 -159 1453 -159 
Q 1772 -159 1948 -28 
Q 2125 103 2125 341 
Q 2125 659 1434 1044 
L 1356 1088 
Q 688 1463 488 1702 
Q 288 1941 288 2259 
Q 288 2544 433 2767 
Q 578 2991 863 3144 
Q 678 3281 586 3456 
Q 494 3631 494 3847 
Q 494 4253 806 4501 
Q 1119 4750 1638 4750 
Q 1866 4750 2105 4704 
Q 2344 4659 2591 4569 
z
" transform="scale(0.015625)"/>
     <path id="DejaVuSans-79" d="M 684 2619 
L 1344 2619 
L 1344 1825 
L 684 1825 
L 684 2619 
z
" transform="scale(0.015625)"/>
     <path id="DejaVuSans-1a" d="M 525 4666 
L 3525 4666 
L 3525 4397 
L 1831 0 
L 1172 0 
L 2766 4134 
L 525 4134 
L 525 4666 
z
" transform="scale(0.015625)"/>
     <path id="DejaVuSans-e" d="M 2944 4013 
L 2944 2272 
L 4684 2272 
L 4684 1741 
L 2944 1741 
L 2944 0 
L 2419 0 
L 2419 1741 
L 678 1741 
L 678 2272 
L 2419 2272 
L 2419 4013 
L 2944 4013 
z
" transform="scale(0.015625)"/>
    </defs>
    <use xlink:href="#DejaVuSans-2c"/>
    <use xlink:href="#DejaVuSans-51" transform="translate(29.5 0)"/>
    <use xlink:href="#DejaVuSans-57" transform="translate(92.875 0)"/>
    <use xlink:href="#DejaVuSans-48" transform="translate(132.078125 0)"/>
    <use xlink:href="#DejaVuSans-4f" transform="translate(193.609375 0)"/>
    <use xlink:href="#DejaVuSans-3" transform="translate(221.390625 0)"/>
    <use xlink:href="#DejaVuSans-12" transform="translate(253.171875 0)"/>
    <use xlink:href="#DejaVuSans-3" transform="translate(286.859375 0)"/>
    <use xlink:href="#DejaVuSans-3a" transform="translate(318.640625 0)"/>
    <use xlink:href="#DejaVuSans-4c" transform="translate(415.3125 0)"/>
    <use xlink:href="#DejaVuSans-51" transform="translate(443.09375 0)"/>
    <use xlink:href="#DejaVuSans-47" transform="translate(506.46875 0)"/>
    <use xlink:href="#DejaVuSans-52" transform="translate(569.953125 0)"/>
    <use xlink:href="#DejaVuSans-5a" transform="translate(631.140625 0)"/>
    <use xlink:href="#DejaVuSans-56" transform="translate(712.921875 0)"/>
    <use xlink:href="#DejaVuSans-3" transform="translate(765.015625 0)"/>
    <use xlink:href="#DejaVuSans-50" transform="translate(796.796875 0)"/>
    <use xlink:href="#DejaVuSans-44" transform="translate(894.203125 0)"/>
    <use xlink:href="#DejaVuSans-46" transform="translate(955.484375 0)"/>
    <use xlink:href="#DejaVuSans-4b" transform="translate(1010.46875 0)"/>
    <use xlink:href="#DejaVuSans-4c" transform="translate(1073.84375 0)"/>
    <use xlink:href="#DejaVuSans-51" transform="translate(1101.625 0)"/>
    <use xlink:href="#DejaVuSans-48" transform="translate(1165 0)"/>
    <use xlink:href="#DejaVuSans-3" transform="translate(1226.53125 0)"/>
    <use xlink:href="#DejaVuSans-b" transform="translate(1258.3125 0)"/>
    <use xlink:href="#DejaVuSans-35" transform="translate(1297.328125 0)"/>
    <use xlink:href="#DejaVuSans-28" transform="translate(1366.8125 0)"/>
    <use xlink:href="#DejaVuSans-36" transform="translate(1430 0)"/>
    <use xlink:href="#DejaVuSans-38" transform="translate(1493.484375 0)"/>
    <use xlink:href="#DejaVuSans-2f" transform="translate(1566.671875 0)"/>
    <use xlink:href="#DejaVuSans-37" transform="translate(1608.625 0)"/>
    <use xlink:href="#DejaVuSans-36" transform="translate(1669.703125 0)"/>
    <use xlink:href="#DejaVuSans-3" transform="translate(1733.1875 0)"/>
    <use xlink:href="#DejaVuSans-69" transform="translate(1764.96875 0)"/>
    <use xlink:href="#DejaVuSans-16" transform="translate(1814.96875 0)"/>
    <use xlink:href="#DejaVuSans-11" transform="translate(1878.59375 0)"/>
    <use xlink:href="#DejaVuSans-17" transform="translate(1910.375 0)"/>
    <use xlink:href="#DejaVuSans-c" transform="translate(1974 0)"/>
    <use xlink:href="#DejaVuSans-3" transform="translate(2013.015625 0)"/>
    <use xlink:href="#DejaVuSans-79" transform="translate(2044.796875 0)"/>
    <use xlink:href="#DejaVuSans-3" transform="translate(2076.578125 0)"/>
    <use xlink:href="#DejaVuSans-56" transform="translate(2108.359375 0)"/>
    <use xlink:href="#DejaVuSans-44" transform="translate(2160.453125 0)"/>
    <use xlink:href="#DejaVuSans-50" transform="translate(2221.734375 0)"/>
    <use xlink:href="#DejaVuSans-48" transform="translate(2319.140625 0)"/>
    <use xlink:href="#DejaVuSans-3" transform="translate(2380.671875 0)"/>
    <use xlink:href="#DejaVuSans-33" transform="translate(2412.453125 0)"/>
    <use xlink:href="#DejaVuSans-52" transform="translate(2469.1875 0)"/>
    <use xlink:href="#DejaVuSans-55" transform="translate(2530.375 0)"/>
    <use xlink:href="#DejaVuSans-57" transform="translate(2571.484375 0)"/>
    <use xlink:href="#DejaVuSans-52" transform="translate(2610.6875 0)"/>
    <use xlink:href="#DejaVuSans-3" transform="translate(2671.875 0)"/>
    <use xlink:href="#DejaVuSans-31" transform="translate(2703.65625 0)"/>
    <use xlink:href="#DejaVuSans-48" transform="translate(2778.46875 0)"/>
    <use xlink:href="#DejaVuSans-37" transform="translate(2840 0)"/>
    <use xlink:href="#DejaVuSans-28" transform="translate(2901.078125 0)"/>
    <use xlink:href="#DejaVuSans-5b" transform="translate(2964.265625 0)"/>
    <use xlink:href="#DejaVuSans-3" transform="translate(3023.453125 0)"/>
    <use xlink:href="#DejaVuSans-4c" transform="translate(3055.234375 0)"/>
    <use xlink:href="#DejaVuSans-51" transform="translate(3083.015625 0)"/>
    <use xlink:href="#DejaVuSans-53" transform="translate(3146.390625 0)"/>
    <use xlink:href="#DejaVuSans-58" transform="translate(3209.875 0)"/>
    <use xlink:href="#DejaVuSans-57" transform="translate(3273.25 0)"/>
    <use xlink:href="#DejaVuSans-3" transform="translate(3312.453125 0)"/>
    <use xlink:href="#DejaVuSans-79" transform="translate(3344.234375 0)"/>
    <use xlink:href="#DejaVuSans-3" transform="translate(3376.015625 0)"/>
    <use xlink:href="#DejaVuSans-1a" transform="translate(3407.796875 0)"/>
    <use xlink:href="#DejaVuSans-3" transform="translate(3471.421875 0)"/>
    <use xlink:href="#DejaVuSans-55" transform="translate(3503.203125 0)"/>
    <use xlink:href="#DejaVuSans-48" transform="translate(3542.109375 0)"/>
    <use xlink:href="#DejaVuSans-53" transform="translate(3603.640625 0)"/>
    <use xlink:href="#DejaVuSans-56" transform="translate(3667.125 0)"/>
    <use xlink:href="#DejaVuSans-3" transform="translate(3719.21875 0)"/>
    <use xlink:href="#DejaVuSans-e" transform="translate(3751 0)"/>
    <use xlink:href="#DejaVuSans-3" transform="translate(3834.796875 0)"/>
    <use xlink:href="#DejaVuSans-14" transform="translate(3866.578125 0)"/>
    <use xlink:href="#DejaVuSans-3" transform="translate(3930.203125 0)"/>
    <use xlink:href="#DejaVuSans-5a" transform="translate(3961.984375 0)"/>
    <use xlink:href="#DejaVuSans-44" transform="translate(4043.765625 0)"/>
    <use xlink:href="#DejaVuSans-55" transform="translate(4105.046875 0)"/>
    <use xlink:href="#DejaVuSans-50" transform="translate(4144.40625 0)"/>
    <use xlink:href="#DejaVuSans-58" transform="translate(4241.8125 0)"/>
    <use xlink:href="#DejaVuSans-53" transform="translate(4305.1875 0)"/>
   </g>
  </g>
 </g>
 <defs>
  <clipPath id="p00d387126b">
   <rect x="43.200078" y="65.067094" width="335.858711" height="213.029602"/>
  </clipPath>
  <clipPath id="p8629fda650">
   <rect x="440.338789" y="65.067094" width="335.858711" height="213.029602"/>
  </clipPath>
 </defs>
</svg>
