<?xml version="1.0" encoding="utf-8" standalone="no"?>
<!DOCTYPE svg PUBLIC "-//W3C//DTD SVG 1.1//EN"
  "http://www.w3.org/Graphics/SVG/1.1/DTD/svg11.dtd">
<svg xmlns:xlink="http://www.w3.org/1999/xlink" width="622.644919pt" height="374.807695pt" viewBox="0 0 622.644919 374.807695" xmlns="http://www.w3.org/2000/svg" version="1.1">
 <metadata>
  <rdf:RDF xmlns:dc="http://purl.org/dc/elements/1.1/" xmlns:cc="http://creativecommons.org/ns#" xmlns:rdf="http://www.w3.org/1999/02/22-rdf-syntax-ns#">
   <cc:Work>
    <dc:type rdf:resource="http://purl.org/dc/dcmitype/StillImage"/>
    <dc:date>2026-06-30T07:52:15.176207</dc:date>
    <dc:format>image/svg+xml</dc:format>
    <dc:creator>
     <cc:Agent>
      <dc:title>Matplotlib v3.11.0, https://matplotlib.org/</dc:title>
     </cc:Agent>
    </dc:creator>
   </cc:Work>
  </rdf:RDF>
 </metadata>
 <defs>
  <style type="text/css">*{stroke-linejoin: round; stroke-linecap: butt}</style>
 </defs>
 <g id="figure_1">
  <g id="patch_1">
   <path d="M 0 374.807695 
L 622.644919 374.807695 
L 622.644919 0 
L 0 0 
z
" style="fill: #ffffff"/>
  </g>
  <g id="axes_1">
   <g id="patch_2">
    <path d="M 57.195859 317.139359 
L 615.444919 317.139359 
L 615.444919 23.229938 
L 57.195859 23.229938 
z
" style="fill: #ffffff"/>
   </g>
   <g id="matplotlib.axis_1">
    <g id="xtick_1">
     <g id="line2d_1">
      <path d="M 111.018215 317.139359 
L 111.018215 23.229938 
" clip-path="url(#pc2fa7349f8)" style="fill: none; stroke: #dddddd; stroke-width: 0.7; stroke-linecap: square"/>
     </g>
     <g id="line2d_2">
      <defs>
       <path id="m209a08de20" d="M 0 0 
L 0 3.5 
" style="stroke: #000000; stroke-width: 0.8"/>
      </defs>
      <g>
       <use xlink:href="#m209a08de20" x="111.018215" y="317.139359" style="stroke: #000000; stroke-width: 0.8"/>
      </g>
     </g>
     <g id="text_1">
      <!-- 5 -->
      <g transform="translate(107.51884 332.496781) scale(0.11 -0.11)">
       <defs>
        <path id="DejaVuSans-18" d="M 691 4666 
L 3169 4666 
L 3169 4134 
L 1269 4134 
L 1269 2991 
Q 1406 3038 1543 3061 
Q 1681 3084 1819 3084 
Q 2600 3084 3056 2656 
Q 3513 2228 3513 1497 
Q 3513 744 3044 326 
Q 2575 -91 1722 -91 
Q 1428 -91 1123 -41 
Q 819 9 494 109 
L 494 744 
Q 775 591 1075 516 
Q 1375 441 1709 441 
Q 2250 441 2565 725 
Q 2881 1009 2881 1497 
Q 2881 1984 2565 2268 
Q 2250 2553 1709 2553 
Q 1456 2553 1204 2497 
Q 953 2441 691 2322 
L 691 4666 
z
" transform="scale(0.015625)"/>
       </defs>
       <use xlink:href="#DejaVuSans-18"/>
      </g>
     </g>
    </g>
    <g id="xtick_2">
     <g id="line2d_3">
      <path d="M 184.050602 317.139359 
L 184.050602 23.229938 
" clip-path="url(#pc2fa7349f8)" style="fill: none; stroke: #dddddd; stroke-width: 0.7; stroke-linecap: square"/>
     </g>
     <g id="line2d_4">
      <g>
       <use xlink:href="#m209a08de20" x="184.050602" y="317.139359" style="stroke: #000000; stroke-width: 0.8"/>
      </g>
     </g>
     <g id="text_2">
      <!-- 10 -->
      <g transform="translate(177.051852 332.496781) scale(0.11 -0.11)">
       <defs>
        <path id="DejaVuSans-14" d="M 794 531 
L 1825 531 
L 1825 4091 
L 703 3866 
L 703 4441 
L 1819 4666 
L 2450 4666 
L 2450 531 
L 3481 531 
L 3481 0 
L 794 0 
L 794 531 
z
" transform="scale(0.015625)"/>
        <path id="DejaVuSans-13" d="M 2034 4250 
Q 1547 4250 1301 3770 
Q 1056 3291 1056 2328 
Q 1056 1369 1301 889 
Q 1547 409 2034 409 
Q 2525 409 2770 889 
Q 3016 1369 3016 2328 
Q 3016 3291 2770 3770 
Q 2525 4250 2034 4250 
z
M 2034 4750 
Q 2819 4750 3233 4129 
Q 3647 3509 3647 2328 
Q 3647 1150 3233 529 
Q 2819 -91 2034 -91 
Q 1250 -91 836 529 
Q 422 1150 422 2328 
Q 422 3509 836 4129 
Q 1250 4750 2034 4750 
z
" transform="scale(0.015625)"/>
       </defs>
       <use xlink:href="#DejaVuSans-14"/>
       <use xlink:href="#DejaVuSans-13" transform="translate(63.625 0)"/>
      </g>
     </g>
    </g>
    <g id="xtick_3">
     <g id="line2d_5">
      <path d="M 257.082988 317.139359 
L 257.082988 23.229938 
" clip-path="url(#pc2fa7349f8)" style="fill: none; stroke: #dddddd; stroke-width: 0.7; stroke-linecap: square"/>
     </g>
     <g id="line2d_6">
      <g>
       <use xlink:href="#m209a08de20" x="257.082988" y="317.139359" style="stroke: #000000; stroke-width: 0.8"/>
      </g>
     </g>
     <g id="text_3">
      <!-- 20 -->
      <g transform="translate(250.084238 332.496781) scale(0.11 -0.11)">
       <defs>
        <path id="DejaVuSans-15" d="M 1228 531 
L 3431 531 
L 3431 0 
L 469 0 
L 469 531 
Q 828 903 1448 1529 
Q 2069 2156 2228 2338 
Q 2531 2678 2651 2914 
Q 2772 3150 2772 3378 
Q 2772 3750 2511 3984 
Q 2250 4219 1831 4219 
Q 1534 4219 1204 4116 
Q 875 4013 500 3803 
L 500 4441 
Q 881 4594 1212 4672 
Q 1544 4750 1819 4750 
Q 2544 4750 2975 4387 
Q 3406 4025 3406 3419 
Q 3406 3131 3298 2873 
Q 3191 2616 2906 2266 
Q 2828 2175 2409 1742 
Q 1991 1309 1228 531 
z
" transform="scale(0.015625)"/>
       </defs>
       <use xlink:href="#DejaVuSans-15"/>
       <use xlink:href="#DejaVuSans-13" transform="translate(63.625 0)"/>
      </g>
     </g>
    </g>
    <g id="xtick_4">
     <g id="line2d_7">
      <path d="M 353.626552 317.139359 
L 353.626552 23.229938 
" clip-path="url(#pc2fa7349f8)" style="fill: none; stroke: #dddddd; stroke-width: 0.7; stroke-linecap: square"/>
     </g>
     <g id="line2d_8">
      <g>
       <use xlink:href="#m209a08de20" x="353.626552" y="317.139359" style="stroke: #000000; stroke-width: 0.8"/>
      </g>
     </g>
     <g id="text_4">
      <!-- 50 -->
      <g transform="translate(346.627802 332.496781) scale(0.11 -0.11)">
       <use xlink:href="#DejaVuSans-18"/>
       <use xlink:href="#DejaVuSans-13" transform="translate(63.625 0)"/>
      </g>
     </g>
    </g>
    <g id="xtick_5">
     <g id="line2d_9">
      <path d="M 426.658938 317.139359 
L 426.658938 23.229938 
" clip-path="url(#pc2fa7349f8)" style="fill: none; stroke: #dddddd; stroke-width: 0.7; stroke-linecap: square"/>
     </g>
     <g id="line2d_10">
      <g>
       <use xlink:href="#m209a08de20" x="426.658938" y="317.139359" style="stroke: #000000; stroke-width: 0.8"/>
      </g>
     </g>
     <g id="text_5">
      <!-- 100 -->
      <g transform="translate(416.160813 332.496781) scale(0.11 -0.11)">
       <use xlink:href="#DejaVuSans-14"/>
       <use xlink:href="#DejaVuSans-13" transform="translate(63.625 0)"/>
       <use xlink:href="#DejaVuSans-13" transform="translate(127.25 0)"/>
      </g>
     </g>
    </g>
    <g id="xtick_6">
     <g id="line2d_11">
      <path d="M 499.691325 317.139359 
L 499.691325 23.229938 
" clip-path="url(#pc2fa7349f8)" style="fill: none; stroke: #dddddd; stroke-width: 0.7; stroke-linecap: square"/>
     </g>
     <g id="line2d_12">
      <g>
       <use xlink:href="#m209a08de20" x="499.691325" y="317.139359" style="stroke: #000000; stroke-width: 0.8"/>
      </g>
     </g>
     <g id="text_6">
      <!-- 200 -->
      <g transform="translate(489.1932 332.496781) scale(0.11 -0.11)">
       <use xlink:href="#DejaVuSans-15"/>
       <use xlink:href="#DejaVuSans-13" transform="translate(63.625 0)"/>
       <use xlink:href="#DejaVuSans-13" transform="translate(127.25 0)"/>
      </g>
     </g>
    </g>
    <g id="xtick_7">
     <g id="line2d_13">
      <path d="M 572.723711 317.139359 
L 572.723711 23.229938 
" clip-path="url(#pc2fa7349f8)" style="fill: none; stroke: #dddddd; stroke-width: 0.7; stroke-linecap: square"/>
     </g>
     <g id="line2d_14">
      <g>
       <use xlink:href="#m209a08de20" x="572.723711" y="317.139359" style="stroke: #000000; stroke-width: 0.8"/>
      </g>
     </g>
     <g id="text_7">
      <!-- 400 -->
      <g transform="translate(562.225586 332.496781) scale(0.11 -0.11)">
       <defs>
        <path id="DejaVuSans-17" d="M 2419 4116 
L 825 1625 
L 2419 1625 
L 2419 4116 
z
M 2253 4666 
L 3047 4666 
L 3047 1625 
L 3713 1625 
L 3713 1100 
L 3047 1100 
L 3047 0 
L 2419 0 
L 2419 1100 
L 313 1100 
L 313 1709 
L 2253 4666 
z
" transform="scale(0.015625)"/>
       </defs>
       <use xlink:href="#DejaVuSans-17"/>
       <use xlink:href="#DejaVuSans-13" transform="translate(63.625 0)"/>
       <use xlink:href="#DejaVuSans-13" transform="translate(127.25 0)"/>
      </g>
     </g>
    </g>
    <g id="xtick_8">
     <g id="line2d_15">
      <defs>
       <path id="mde2deb8281" d="M 0 0 
L 0 2 
" style="stroke: #000000; stroke-width: 0.6"/>
      </defs>
      <g>
       <use xlink:href="#mde2deb8281" x="57.195859" y="317.139359" style="stroke: #000000; stroke-width: 0.6"/>
      </g>
     </g>
    </g>
    <g id="xtick_9">
     <g id="line2d_16">
      <g>
       <use xlink:href="#mde2deb8281" x="87.507038" y="317.139359" style="stroke: #000000; stroke-width: 0.6"/>
      </g>
     </g>
    </g>
    <g id="xtick_10">
     <g id="line2d_17">
      <g>
       <use xlink:href="#mde2deb8281" x="130.228246" y="317.139359" style="stroke: #000000; stroke-width: 0.6"/>
      </g>
     </g>
    </g>
    <g id="xtick_11">
     <g id="line2d_18">
      <g>
       <use xlink:href="#mde2deb8281" x="146.470095" y="317.139359" style="stroke: #000000; stroke-width: 0.6"/>
      </g>
     </g>
    </g>
    <g id="xtick_12">
     <g id="line2d_19">
      <g>
       <use xlink:href="#mde2deb8281" x="160.539425" y="317.139359" style="stroke: #000000; stroke-width: 0.6"/>
      </g>
     </g>
    </g>
    <g id="xtick_13">
     <g id="line2d_20">
      <g>
       <use xlink:href="#mde2deb8281" x="172.949453" y="317.139359" style="stroke: #000000; stroke-width: 0.6"/>
      </g>
     </g>
    </g>
    <g id="xtick_14">
     <g id="line2d_21">
      <g>
       <use xlink:href="#mde2deb8281" x="299.804196" y="317.139359" style="stroke: #000000; stroke-width: 0.6"/>
      </g>
     </g>
    </g>
    <g id="xtick_15">
     <g id="line2d_22">
      <g>
       <use xlink:href="#mde2deb8281" x="330.115375" y="317.139359" style="stroke: #000000; stroke-width: 0.6"/>
      </g>
     </g>
    </g>
    <g id="xtick_16">
     <g id="line2d_23">
      <g>
       <use xlink:href="#mde2deb8281" x="372.836582" y="317.139359" style="stroke: #000000; stroke-width: 0.6"/>
      </g>
     </g>
    </g>
    <g id="xtick_17">
     <g id="line2d_24">
      <g>
       <use xlink:href="#mde2deb8281" x="389.078432" y="317.139359" style="stroke: #000000; stroke-width: 0.6"/>
      </g>
     </g>
    </g>
    <g id="xtick_18">
     <g id="line2d_25">
      <g>
       <use xlink:href="#mde2deb8281" x="403.147761" y="317.139359" style="stroke: #000000; stroke-width: 0.6"/>
      </g>
     </g>
    </g>
    <g id="xtick_19">
     <g id="line2d_26">
      <g>
       <use xlink:href="#mde2deb8281" x="415.55779" y="317.139359" style="stroke: #000000; stroke-width: 0.6"/>
      </g>
     </g>
    </g>
    <g id="xtick_20">
     <g id="line2d_27">
      <g>
       <use xlink:href="#mde2deb8281" x="542.412532" y="317.139359" style="stroke: #000000; stroke-width: 0.6"/>
      </g>
     </g>
    </g>
    <g id="xtick_21">
     <g id="line2d_28">
      <g>
       <use xlink:href="#mde2deb8281" x="596.234889" y="317.139359" style="stroke: #000000; stroke-width: 0.6"/>
      </g>
     </g>
    </g>
    <g id="xtick_22">
     <g id="line2d_29">
      <g>
       <use xlink:href="#mde2deb8281" x="615.444919" y="317.139359" style="stroke: #000000; stroke-width: 0.6"/>
      </g>
     </g>
    </g>
    <g id="text_8">
     <!-- Execution time  $T_{exec}$  (s, log scale) -->
     <g transform="translate(240.510389 347.499359) scale(0.11 -0.11)">
      <defs>
       <path id="DejaVuSans-28" d="M 628 4666 
L 3578 4666 
L 3578 4134 
L 1259 4134 
L 1259 2753 
L 3481 2753 
L 3481 2222 
L 1259 2222 
L 1259 531 
L 3634 531 
L 3634 0 
L 628 0 
L 628 4666 
z
" transform="scale(0.015625)"/>
       <path id="DejaVuSans-5b" d="M 3513 3500 
L 2247 1797 
L 3578 0 
L 2900 0 
L 1881 1375 
L 863 0 
L 184 0 
L 1544 1831 
L 300 3500 
L 978 3500 
L 1906 2253 
L 2834 3500 
L 3513 3500 
z
" transform="scale(0.015625)"/>
       <path id="DejaVuSans-48" d="M 3597 1894 
L 3597 1613 
L 953 1613 
Q 991 1019 1311 708 
Q 1631 397 2203 397 
Q 2534 397 2845 478 
Q 3156 559 3463 722 
L 3463 178 
Q 3153 47 2828 -22 
Q 2503 -91 2169 -91 
Q 1331 -91 842 396 
Q 353 884 353 1716 
Q 353 2575 817 3079 
Q 1281 3584 2069 3584 
Q 2775 3584 3186 3129 
Q 3597 2675 3597 1894 
z
M 3022 2063 
Q 3016 2534 2758 2815 
Q 2500 3097 2075 3097 
Q 1594 3097 1305 2825 
Q 1016 2553 972 2059 
L 3022 2063 
z
" transform="scale(0.015625)"/>
       <path id="DejaVuSans-46" d="M 3122 3366 
L 3122 2828 
Q 2878 2963 2633 3030 
Q 2388 3097 2138 3097 
Q 1578 3097 1268 2742 
Q 959 2388 959 1747 
Q 959 1106 1268 751 
Q 1578 397 2138 397 
Q 2388 397 2633 464 
Q 2878 531 3122 666 
L 3122 134 
Q 2881 22 2623 -34 
Q 2366 -91 2075 -91 
Q 1284 -91 818 406 
Q 353 903 353 1747 
Q 353 2603 823 3093 
Q 1294 3584 2113 3584 
Q 2378 3584 2631 3529 
Q 2884 3475 3122 3366 
z
" transform="scale(0.015625)"/>
       <path id="DejaVuSans-58" d="M 544 1381 
L 544 3500 
L 1119 3500 
L 1119 1403 
Q 1119 906 1312 657 
Q 1506 409 1894 409 
Q 2359 409 2629 706 
Q 2900 1003 2900 1516 
L 2900 3500 
L 3475 3500 
L 3475 0 
L 2900 0 
L 2900 538 
Q 2691 219 2414 64 
Q 2138 -91 1772 -91 
Q 1169 -91 856 284 
Q 544 659 544 1381 
z
M 1991 3584 
L 1991 3584 
z
" transform="scale(0.015625)"/>
       <path id="DejaVuSans-57" d="M 1172 4494 
L 1172 3500 
L 2356 3500 
L 2356 3053 
L 1172 3053 
L 1172 1153 
Q 1172 725 1289 603 
Q 1406 481 1766 481 
L 2356 481 
L 2356 0 
L 1766 0 
Q 1100 0 847 248 
Q 594 497 594 1153 
L 594 3053 
L 172 3053 
L 172 3500 
L 594 3500 
L 594 4494 
L 1172 4494 
z
" transform="scale(0.015625)"/>
       <path id="DejaVuSans-4c" d="M 603 3500 
L 1178 3500 
L 1178 0 
L 603 0 
L 603 3500 
z
M 603 4863 
L 1178 4863 
L 1178 4134 
L 603 4134 
L 603 4863 
z
" transform="scale(0.015625)"/>
       <path id="DejaVuSans-52" d="M 1959 3097 
Q 1497 3097 1228 2736 
Q 959 2375 959 1747 
Q 959 1119 1226 758 
Q 1494 397 1959 397 
Q 2419 397 2687 759 
Q 2956 1122 2956 1747 
Q 2956 2369 2687 2733 
Q 2419 3097 1959 3097 
z
M 1959 3584 
Q 2709 3584 3137 3096 
Q 3566 2609 3566 1747 
Q 3566 888 3137 398 
Q 2709 -91 1959 -91 
Q 1206 -91 779 398 
Q 353 888 353 1747 
Q 353 2609 779 3096 
Q 1206 3584 1959 3584 
z
" transform="scale(0.015625)"/>
       <path id="DejaVuSans-51" d="M 3513 2113 
L 3513 0 
L 2938 0 
L 2938 2094 
Q 2938 2591 2744 2837 
Q 2550 3084 2163 3084 
Q 1697 3084 1428 2787 
Q 1159 2491 1159 1978 
L 1159 0 
L 581 0 
L 581 3500 
L 1159 3500 
L 1159 2956 
Q 1366 3272 1645 3428 
Q 1925 3584 2291 3584 
Q 2894 3584 3203 3211 
Q 3513 2838 3513 2113 
z
" transform="scale(0.015625)"/>
       <path id="DejaVuSans-3" transform="scale(0.015625)"/>
       <path id="DejaVuSans-50" d="M 3328 2828 
Q 3544 3216 3844 3400 
Q 4144 3584 4550 3584 
Q 5097 3584 5394 3201 
Q 5691 2819 5691 2113 
L 5691 0 
L 5113 0 
L 5113 2094 
Q 5113 2597 4934 2840 
Q 4756 3084 4391 3084 
Q 3944 3084 3684 2787 
Q 3425 2491 3425 1978 
L 3425 0 
L 2847 0 
L 2847 2094 
Q 2847 2600 2669 2842 
Q 2491 3084 2119 3084 
Q 1678 3084 1418 2786 
Q 1159 2488 1159 1978 
L 1159 0 
L 581 0 
L 581 3500 
L 1159 3500 
L 1159 2956 
Q 1356 3278 1631 3431 
Q 1906 3584 2284 3584 
Q 2666 3584 2933 3390 
Q 3200 3197 3328 2828 
z
" transform="scale(0.015625)"/>
       <path id="DejaVuSans-Oblique-37" d="M 378 4666 
L 4325 4666 
L 4225 4134 
L 2559 4134 
L 1759 0 
L 1125 0 
L 1925 4134 
L 275 4134 
L 378 4666 
z
" transform="scale(0.015625)"/>
       <path id="DejaVuSans-Oblique-48" d="M 3078 2063 
Q 3088 2113 3092 2166 
Q 3097 2219 3097 2272 
Q 3097 2653 2873 2875 
Q 2650 3097 2266 3097 
Q 1838 3097 1509 2826 
Q 1181 2556 1013 2059 
L 3078 2063 
z
M 3578 1613 
L 903 1613 
Q 884 1494 878 1425 
Q 872 1356 872 1306 
Q 872 872 1139 634 
Q 1406 397 1894 397 
Q 2269 397 2603 481 
Q 2938 566 3225 728 
L 3116 159 
Q 2806 34 2476 -28 
Q 2147 -91 1806 -91 
Q 1078 -91 686 257 
Q 294 606 294 1247 
Q 294 1794 489 2264 
Q 684 2734 1063 3103 
Q 1306 3334 1642 3459 
Q 1978 3584 2356 3584 
Q 2950 3584 3301 3228 
Q 3653 2872 3653 2272 
Q 3653 2128 3634 1964 
Q 3616 1800 3578 1613 
z
" transform="scale(0.015625)"/>
       <path id="DejaVuSans-Oblique-5b" d="M 3841 3500 
L 2234 1784 
L 3219 0 
L 2559 0 
L 1819 1388 
L 531 0 
L -166 0 
L 1556 1844 
L 641 3500 
L 1300 3500 
L 1972 2234 
L 3144 3500 
L 3841 3500 
z
" transform="scale(0.015625)"/>
       <path id="DejaVuSans-Oblique-46" d="M 3431 3366 
L 3316 2797 
Q 3109 2947 2876 3022 
Q 2644 3097 2394 3097 
Q 2119 3097 1870 3000 
Q 1622 2903 1453 2725 
Q 1184 2453 1037 2087 
Q 891 1722 891 1331 
Q 891 859 1127 628 
Q 1363 397 1844 397 
Q 2081 397 2348 469 
Q 2616 541 2906 684 
L 2797 116 
Q 2547 13 2283 -39 
Q 2019 -91 1741 -91 
Q 1044 -91 669 257 
Q 294 606 294 1253 
Q 294 1797 489 2255 
Q 684 2713 1069 3078 
Q 1331 3328 1684 3456 
Q 2038 3584 2456 3584 
Q 2700 3584 2940 3529 
Q 3181 3475 3431 3366 
z
" transform="scale(0.015625)"/>
       <path id="DejaVuSans-b" d="M 1984 4856 
Q 1566 4138 1362 3434 
Q 1159 2731 1159 2009 
Q 1159 1288 1364 580 
Q 1569 -128 1984 -844 
L 1484 -844 
Q 1016 -109 783 600 
Q 550 1309 550 2009 
Q 550 2706 781 3412 
Q 1013 4119 1484 4856 
L 1984 4856 
z
" transform="scale(0.015625)"/>
       <path id="DejaVuSans-56" d="M 2834 3397 
L 2834 2853 
Q 2591 2978 2328 3040 
Q 2066 3103 1784 3103 
Q 1356 3103 1142 2972 
Q 928 2841 928 2578 
Q 928 2378 1081 2264 
Q 1234 2150 1697 2047 
L 1894 2003 
Q 2506 1872 2764 1633 
Q 3022 1394 3022 966 
Q 3022 478 2636 193 
Q 2250 -91 1575 -91 
Q 1294 -91 989 -36 
Q 684 19 347 128 
L 347 722 
Q 666 556 975 473 
Q 1284 391 1588 391 
Q 1994 391 2212 530 
Q 2431 669 2431 922 
Q 2431 1156 2273 1281 
Q 2116 1406 1581 1522 
L 1381 1569 
Q 847 1681 609 1914 
Q 372 2147 372 2553 
Q 372 3047 722 3315 
Q 1072 3584 1716 3584 
Q 2034 3584 2315 3537 
Q 2597 3491 2834 3397 
z
" transform="scale(0.015625)"/>
       <path id="DejaVuSans-f" d="M 750 794 
L 1409 794 
L 1409 256 
L 897 -744 
L 494 -744 
L 750 256 
L 750 794 
z
" transform="scale(0.015625)"/>
       <path id="DejaVuSans-4f" d="M 603 4863 
L 1178 4863 
L 1178 0 
L 603 0 
L 603 4863 
z
" transform="scale(0.015625)"/>
       <path id="DejaVuSans-4a" d="M 2906 1791 
Q 2906 2416 2648 2759 
Q 2391 3103 1925 3103 
Q 1463 3103 1205 2759 
Q 947 2416 947 1791 
Q 947 1169 1205 825 
Q 1463 481 1925 481 
Q 2391 481 2648 825 
Q 2906 1169 2906 1791 
z
M 3481 434 
Q 3481 -459 3084 -895 
Q 2688 -1331 1869 -1331 
Q 1566 -1331 1297 -1286 
Q 1028 -1241 775 -1147 
L 775 -588 
Q 1028 -725 1275 -790 
Q 1522 -856 1778 -856 
Q 2344 -856 2625 -561 
Q 2906 -266 2906 331 
L 2906 616 
Q 2728 306 2450 153 
Q 2172 0 1784 0 
Q 1141 0 747 490 
Q 353 981 353 1791 
Q 353 2603 747 3093 
Q 1141 3584 1784 3584 
Q 2172 3584 2450 3431 
Q 2728 3278 2906 2969 
L 2906 3500 
L 3481 3500 
L 3481 434 
z
" transform="scale(0.015625)"/>
       <path id="DejaVuSans-44" d="M 2194 1759 
Q 1497 1759 1228 1600 
Q 959 1441 959 1056 
Q 959 750 1161 570 
Q 1363 391 1709 391 
Q 2188 391 2477 730 
Q 2766 1069 2766 1631 
L 2766 1759 
L 2194 1759 
z
M 3341 1997 
L 3341 0 
L 2766 0 
L 2766 531 
Q 2569 213 2275 61 
Q 1981 -91 1556 -91 
Q 1019 -91 701 211 
Q 384 513 384 1019 
Q 384 1609 779 1909 
Q 1175 2209 1959 2209 
L 2766 2209 
L 2766 2266 
Q 2766 2663 2505 2880 
Q 2244 3097 1772 3097 
Q 1472 3097 1187 3025 
Q 903 2953 641 2809 
L 641 3341 
Q 956 3463 1253 3523 
Q 1550 3584 1831 3584 
Q 2591 3584 2966 3190 
Q 3341 2797 3341 1997 
z
" transform="scale(0.015625)"/>
       <path id="DejaVuSans-c" d="M 513 4856 
L 1013 4856 
Q 1481 4119 1714 3412 
Q 1947 2706 1947 2009 
Q 1947 1309 1714 600 
Q 1481 -109 1013 -844 
L 513 -844 
Q 928 -128 1133 580 
Q 1338 1288 1338 2009 
Q 1338 2731 1133 3434 
Q 928 4138 513 4856 
z
" transform="scale(0.015625)"/>
      </defs>
      <use xlink:href="#DejaVuSans-28" transform="translate(0 0.015625)"/>
      <use xlink:href="#DejaVuSans-5b" transform="translate(63.183594 0.015625)"/>
      <use xlink:href="#DejaVuSans-48" transform="translate(119.363281 0.015625)"/>
      <use xlink:href="#DejaVuSans-46" transform="translate(180.886719 0.015625)"/>
      <use xlink:href="#DejaVuSans-58" transform="translate(235.867188 0.015625)"/>
      <use xlink:href="#DejaVuSans-57" transform="translate(299.246094 0.015625)"/>
      <use xlink:href="#DejaVuSans-4c" transform="translate(338.455078 0.015625)"/>
      <use xlink:href="#DejaVuSans-52" transform="translate(366.238281 0.015625)"/>
      <use xlink:href="#DejaVuSans-51" transform="translate(427.419922 0.015625)"/>
      <use xlink:href="#DejaVuSans-3" transform="translate(490.798828 0.015625)"/>
      <use xlink:href="#DejaVuSans-57" transform="translate(522.585938 0.015625)"/>
      <use xlink:href="#DejaVuSans-4c" transform="translate(561.794922 0.015625)"/>
      <use xlink:href="#DejaVuSans-50" transform="translate(589.578125 0.015625)"/>
      <use xlink:href="#DejaVuSans-48" transform="translate(686.990234 0.015625)"/>
      <use xlink:href="#DejaVuSans-3" transform="translate(748.513672 0.015625)"/>
      <use xlink:href="#DejaVuSans-3" transform="translate(780.300781 0.015625)"/>
      <use xlink:href="#DejaVuSans-Oblique-37" transform="translate(812.087891 0.015625)"/>
      <use xlink:href="#DejaVuSans-Oblique-48" transform="translate(873.171875 -14.984326) scale(0.7)"/>
      <use xlink:href="#DejaVuSans-Oblique-5b" transform="translate(916.238281 -14.984326) scale(0.7)"/>
      <use xlink:href="#DejaVuSans-Oblique-48" transform="translate(957.664062 -14.984326) scale(0.7)"/>
      <use xlink:href="#DejaVuSans-Oblique-46" transform="translate(1000.730469 -14.984326) scale(0.7)"/>
      <use xlink:href="#DejaVuSans-3" transform="translate(1041.951172 0.015625)"/>
      <use xlink:href="#DejaVuSans-3" transform="translate(1073.738281 0.015625)"/>
      <use xlink:href="#DejaVuSans-b" transform="translate(1105.525391 0.015625)"/>
      <use xlink:href="#DejaVuSans-56" transform="translate(1144.539062 0.015625)"/>
      <use xlink:href="#DejaVuSans-f" transform="translate(1196.638672 0.015625)"/>
      <use xlink:href="#DejaVuSans-3" transform="translate(1228.425781 0.015625)"/>
      <use xlink:href="#DejaVuSans-4f" transform="translate(1260.212891 0.015625)"/>
      <use xlink:href="#DejaVuSans-52" transform="translate(1287.996094 0.015625)"/>
      <use xlink:href="#DejaVuSans-4a" transform="translate(1349.177734 0.015625)"/>
      <use xlink:href="#DejaVuSans-3" transform="translate(1412.654297 0.015625)"/>
      <use xlink:href="#DejaVuSans-56" transform="translate(1444.441406 0.015625)"/>
      <use xlink:href="#DejaVuSans-46" transform="translate(1496.541016 0.015625)"/>
      <use xlink:href="#DejaVuSans-44" transform="translate(1551.521484 0.015625)"/>
      <use xlink:href="#DejaVuSans-4f" transform="translate(1612.800781 0.015625)"/>
      <use xlink:href="#DejaVuSans-48" transform="translate(1640.583984 0.015625)"/>
      <use xlink:href="#DejaVuSans-c" transform="translate(1702.107422 0.015625)"/>
     </g>
    </g>
   </g>
   <g id="matplotlib.axis_2">
    <g id="ytick_1">
     <g id="line2d_30">
      <path d="M 57.195859 317.139359 
L 615.444919 317.139359 
" clip-path="url(#pc2fa7349f8)" style="fill: none; stroke: #dddddd; stroke-width: 0.7; stroke-linecap: square"/>
     </g>
     <g id="line2d_31">
      <defs>
       <path id="mef6eabbab4" d="M 0 0 
L -3.5 0 
" style="stroke: #000000; stroke-width: 0.8"/>
      </defs>
      <g>
       <use xlink:href="#mef6eabbab4" x="57.195859" y="317.139359" style="stroke: #000000; stroke-width: 0.8"/>
      </g>
     </g>
     <g id="text_9">
      <!-- 0 -->
      <g transform="translate(43.197109 321.31807) scale(0.11 -0.11)">
       <use xlink:href="#DejaVuSans-13"/>
      </g>
     </g>
    </g>
    <g id="ytick_2">
     <g id="line2d_32">
      <path d="M 57.195859 283.549711 
L 615.444919 283.549711 
" clip-path="url(#pc2fa7349f8)" style="fill: none; stroke: #dddddd; stroke-width: 0.7; stroke-linecap: square"/>
     </g>
     <g id="line2d_33">
      <g>
       <use xlink:href="#mef6eabbab4" x="57.195859" y="283.549711" style="stroke: #000000; stroke-width: 0.8"/>
      </g>
     </g>
     <g id="text_10">
      <!-- 200 -->
      <g transform="translate(29.199609 287.728422) scale(0.11 -0.11)">
       <use xlink:href="#DejaVuSans-15"/>
       <use xlink:href="#DejaVuSans-13" transform="translate(63.625 0)"/>
       <use xlink:href="#DejaVuSans-13" transform="translate(127.25 0)"/>
      </g>
     </g>
    </g>
    <g id="ytick_3">
     <g id="line2d_34">
      <path d="M 57.195859 249.960063 
L 615.444919 249.960063 
" clip-path="url(#pc2fa7349f8)" style="fill: none; stroke: #dddddd; stroke-width: 0.7; stroke-linecap: square"/>
     </g>
     <g id="line2d_35">
      <g>
       <use xlink:href="#mef6eabbab4" x="57.195859" y="249.960063" style="stroke: #000000; stroke-width: 0.8"/>
      </g>
     </g>
     <g id="text_11">
      <!-- 400 -->
      <g transform="translate(29.199609 254.138774) scale(0.11 -0.11)">
       <use xlink:href="#DejaVuSans-17"/>
       <use xlink:href="#DejaVuSans-13" transform="translate(63.625 0)"/>
       <use xlink:href="#DejaVuSans-13" transform="translate(127.25 0)"/>
      </g>
     </g>
    </g>
    <g id="ytick_4">
     <g id="line2d_36">
      <path d="M 57.195859 216.370415 
L 615.444919 216.370415 
" clip-path="url(#pc2fa7349f8)" style="fill: none; stroke: #dddddd; stroke-width: 0.7; stroke-linecap: square"/>
     </g>
     <g id="line2d_37">
      <g>
       <use xlink:href="#mef6eabbab4" x="57.195859" y="216.370415" style="stroke: #000000; stroke-width: 0.8"/>
      </g>
     </g>
     <g id="text_12">
      <!-- 600 -->
      <g transform="translate(29.199609 220.549126) scale(0.11 -0.11)">
       <defs>
        <path id="DejaVuSans-19" d="M 2113 2584 
Q 1688 2584 1439 2293 
Q 1191 2003 1191 1497 
Q 1191 994 1439 701 
Q 1688 409 2113 409 
Q 2538 409 2786 701 
Q 3034 994 3034 1497 
Q 3034 2003 2786 2293 
Q 2538 2584 2113 2584 
z
M 3366 4563 
L 3366 3988 
Q 3128 4100 2886 4159 
Q 2644 4219 2406 4219 
Q 1781 4219 1451 3797 
Q 1122 3375 1075 2522 
Q 1259 2794 1537 2939 
Q 1816 3084 2150 3084 
Q 2853 3084 3261 2657 
Q 3669 2231 3669 1497 
Q 3669 778 3244 343 
Q 2819 -91 2113 -91 
Q 1303 -91 875 529 
Q 447 1150 447 2328 
Q 447 3434 972 4092 
Q 1497 4750 2381 4750 
Q 2619 4750 2861 4703 
Q 3103 4656 3366 4563 
z
" transform="scale(0.015625)"/>
       </defs>
       <use xlink:href="#DejaVuSans-19"/>
       <use xlink:href="#DejaVuSans-13" transform="translate(63.625 0)"/>
       <use xlink:href="#DejaVuSans-13" transform="translate(127.25 0)"/>
      </g>
     </g>
    </g>
    <g id="ytick_5">
     <g id="line2d_38">
      <path d="M 57.195859 182.780767 
L 615.444919 182.780767 
" clip-path="url(#pc2fa7349f8)" style="fill: none; stroke: #dddddd; stroke-width: 0.7; stroke-linecap: square"/>
     </g>
     <g id="line2d_39">
      <g>
       <use xlink:href="#mef6eabbab4" x="57.195859" y="182.780767" style="stroke: #000000; stroke-width: 0.8"/>
      </g>
     </g>
     <g id="text_13">
      <!-- 800 -->
      <g transform="translate(29.199609 186.959477) scale(0.11 -0.11)">
       <defs>
        <path id="DejaVuSans-1b" d="M 2034 2216 
Q 1584 2216 1326 1975 
Q 1069 1734 1069 1313 
Q 1069 891 1326 650 
Q 1584 409 2034 409 
Q 2484 409 2743 651 
Q 3003 894 3003 1313 
Q 3003 1734 2745 1975 
Q 2488 2216 2034 2216 
z
M 1403 2484 
Q 997 2584 770 2862 
Q 544 3141 544 3541 
Q 544 4100 942 4425 
Q 1341 4750 2034 4750 
Q 2731 4750 3128 4425 
Q 3525 4100 3525 3541 
Q 3525 3141 3298 2862 
Q 3072 2584 2669 2484 
Q 3125 2378 3379 2068 
Q 3634 1759 3634 1313 
Q 3634 634 3220 271 
Q 2806 -91 2034 -91 
Q 1263 -91 848 271 
Q 434 634 434 1313 
Q 434 1759 690 2068 
Q 947 2378 1403 2484 
z
M 1172 3481 
Q 1172 3119 1398 2916 
Q 1625 2713 2034 2713 
Q 2441 2713 2670 2916 
Q 2900 3119 2900 3481 
Q 2900 3844 2670 4047 
Q 2441 4250 2034 4250 
Q 1625 4250 1398 4047 
Q 1172 3844 1172 3481 
z
" transform="scale(0.015625)"/>
       </defs>
       <use xlink:href="#DejaVuSans-1b"/>
       <use xlink:href="#DejaVuSans-13" transform="translate(63.625 0)"/>
       <use xlink:href="#DejaVuSans-13" transform="translate(127.25 0)"/>
      </g>
     </g>
    </g>
    <g id="ytick_6">
     <g id="line2d_40">
      <path d="M 57.195859 149.191118 
L 615.444919 149.191118 
" clip-path="url(#pc2fa7349f8)" style="fill: none; stroke: #dddddd; stroke-width: 0.7; stroke-linecap: square"/>
     </g>
     <g id="line2d_41">
      <g>
       <use xlink:href="#mef6eabbab4" x="57.195859" y="149.191118" style="stroke: #000000; stroke-width: 0.8"/>
      </g>
     </g>
     <g id="text_14">
      <!-- 1000 -->
      <g transform="translate(22.200859 153.369829) scale(0.11 -0.11)">
       <use xlink:href="#DejaVuSans-14"/>
       <use xlink:href="#DejaVuSans-13" transform="translate(63.625 0)"/>
       <use xlink:href="#DejaVuSans-13" transform="translate(127.25 0)"/>
       <use xlink:href="#DejaVuSans-13" transform="translate(190.875 0)"/>
      </g>
     </g>
    </g>
    <g id="ytick_7">
     <g id="line2d_42">
      <path d="M 57.195859 115.60147 
L 615.444919 115.60147 
" clip-path="url(#pc2fa7349f8)" style="fill: none; stroke: #dddddd; stroke-width: 0.7; stroke-linecap: square"/>
     </g>
     <g id="line2d_43">
      <g>
       <use xlink:href="#mef6eabbab4" x="57.195859" y="115.60147" style="stroke: #000000; stroke-width: 0.8"/>
      </g>
     </g>
     <g id="text_15">
      <!-- 1200 -->
      <g transform="translate(22.200859 119.780181) scale(0.11 -0.11)">
       <use xlink:href="#DejaVuSans-14"/>
       <use xlink:href="#DejaVuSans-15" transform="translate(63.625 0)"/>
       <use xlink:href="#DejaVuSans-13" transform="translate(127.25 0)"/>
       <use xlink:href="#DejaVuSans-13" transform="translate(190.875 0)"/>
      </g>
     </g>
    </g>
    <g id="ytick_8">
     <g id="line2d_44">
      <path d="M 57.195859 82.011822 
L 615.444919 82.011822 
" clip-path="url(#pc2fa7349f8)" style="fill: none; stroke: #dddddd; stroke-width: 0.7; stroke-linecap: square"/>
     </g>
     <g id="line2d_45">
      <g>
       <use xlink:href="#mef6eabbab4" x="57.195859" y="82.011822" style="stroke: #000000; stroke-width: 0.8"/>
      </g>
     </g>
     <g id="text_16">
      <!-- 1400 -->
      <g transform="translate(22.200859 86.190533) scale(0.11 -0.11)">
       <use xlink:href="#DejaVuSans-14"/>
       <use xlink:href="#DejaVuSans-17" transform="translate(63.625 0)"/>
       <use xlink:href="#DejaVuSans-13" transform="translate(127.25 0)"/>
       <use xlink:href="#DejaVuSans-13" transform="translate(190.875 0)"/>
      </g>
     </g>
    </g>
    <g id="ytick_9">
     <g id="line2d_46">
      <path d="M 57.195859 48.422174 
L 615.444919 48.422174 
" clip-path="url(#pc2fa7349f8)" style="fill: none; stroke: #dddddd; stroke-width: 0.7; stroke-linecap: square"/>
     </g>
     <g id="line2d_47">
      <g>
       <use xlink:href="#mef6eabbab4" x="57.195859" y="48.422174" style="stroke: #000000; stroke-width: 0.8"/>
      </g>
     </g>
     <g id="text_17">
      <!-- 1600 -->
      <g transform="translate(22.200859 52.600885) scale(0.11 -0.11)">
       <use xlink:href="#DejaVuSans-14"/>
       <use xlink:href="#DejaVuSans-19" transform="translate(63.625 0)"/>
       <use xlink:href="#DejaVuSans-13" transform="translate(127.25 0)"/>
       <use xlink:href="#DejaVuSans-13" transform="translate(190.875 0)"/>
      </g>
     </g>
    </g>
    <g id="text_18">
     <!-- Peak resident memory  (MB) -->
     <g transform="translate(15.558281 248.462539) rotate(-90) scale(0.11 -0.11)">
      <defs>
       <path id="DejaVuSans-33" d="M 1259 4147 
L 1259 2394 
L 2053 2394 
Q 2494 2394 2734 2622 
Q 2975 2850 2975 3272 
Q 2975 3691 2734 3919 
Q 2494 4147 2053 4147 
L 1259 4147 
z
M 628 4666 
L 2053 4666 
Q 2838 4666 3239 4311 
Q 3641 3956 3641 3272 
Q 3641 2581 3239 2228 
Q 2838 1875 2053 1875 
L 1259 1875 
L 1259 0 
L 628 0 
L 628 4666 
z
" transform="scale(0.015625)"/>
       <path id="DejaVuSans-4e" d="M 581 4863 
L 1159 4863 
L 1159 1991 
L 2875 3500 
L 3609 3500 
L 1753 1863 
L 3688 0 
L 2938 0 
L 1159 1709 
L 1159 0 
L 581 0 
L 581 4863 
z
" transform="scale(0.015625)"/>
       <path id="DejaVuSans-55" d="M 2631 2963 
Q 2534 3019 2420 3045 
Q 2306 3072 2169 3072 
Q 1681 3072 1420 2755 
Q 1159 2438 1159 1844 
L 1159 0 
L 581 0 
L 581 3500 
L 1159 3500 
L 1159 2956 
Q 1341 3275 1631 3429 
Q 1922 3584 2338 3584 
Q 2397 3584 2469 3576 
Q 2541 3569 2628 3553 
L 2631 2963 
z
" transform="scale(0.015625)"/>
       <path id="DejaVuSans-47" d="M 2906 2969 
L 2906 4863 
L 3481 4863 
L 3481 0 
L 2906 0 
L 2906 525 
Q 2725 213 2448 61 
Q 2172 -91 1784 -91 
Q 1150 -91 751 415 
Q 353 922 353 1747 
Q 353 2572 751 3078 
Q 1150 3584 1784 3584 
Q 2172 3584 2448 3432 
Q 2725 3281 2906 2969 
z
M 947 1747 
Q 947 1113 1208 752 
Q 1469 391 1925 391 
Q 2381 391 2643 752 
Q 2906 1113 2906 1747 
Q 2906 2381 2643 2742 
Q 2381 3103 1925 3103 
Q 1469 3103 1208 2742 
Q 947 2381 947 1747 
z
" transform="scale(0.015625)"/>
       <path id="DejaVuSans-5c" d="M 2059 -325 
Q 1816 -950 1584 -1140 
Q 1353 -1331 966 -1331 
L 506 -1331 
L 506 -850 
L 844 -850 
Q 1081 -850 1212 -737 
Q 1344 -625 1503 -206 
L 1606 56 
L 191 3500 
L 800 3500 
L 1894 763 
L 2988 3500 
L 3597 3500 
L 2059 -325 
z
" transform="scale(0.015625)"/>
       <path id="DejaVuSans-30" d="M 628 4666 
L 1569 4666 
L 2759 1491 
L 3956 4666 
L 4897 4666 
L 4897 0 
L 4281 0 
L 4281 4097 
L 3078 897 
L 2444 897 
L 1241 4097 
L 1241 0 
L 628 0 
L 628 4666 
z
" transform="scale(0.015625)"/>
       <path id="DejaVuSans-25" d="M 1259 2228 
L 1259 519 
L 2272 519 
Q 2781 519 3026 730 
Q 3272 941 3272 1375 
Q 3272 1813 3026 2020 
Q 2781 2228 2272 2228 
L 1259 2228 
z
M 1259 4147 
L 1259 2741 
L 2194 2741 
Q 2656 2741 2882 2914 
Q 3109 3088 3109 3444 
Q 3109 3797 2882 3972 
Q 2656 4147 2194 4147 
L 1259 4147 
z
M 628 4666 
L 2241 4666 
Q 2963 4666 3353 4366 
Q 3744 4066 3744 3513 
Q 3744 3084 3544 2831 
Q 3344 2578 2956 2516 
Q 3422 2416 3680 2098 
Q 3938 1781 3938 1306 
Q 3938 681 3513 340 
Q 3088 0 2303 0 
L 628 0 
L 628 4666 
z
" transform="scale(0.015625)"/>
      </defs>
      <use xlink:href="#DejaVuSans-33"/>
      <use xlink:href="#DejaVuSans-48" transform="translate(56.734375 0)"/>
      <use xlink:href="#DejaVuSans-44" transform="translate(118.265625 0)"/>
      <use xlink:href="#DejaVuSans-4e" transform="translate(179.546875 0)"/>
      <use xlink:href="#DejaVuSans-3" transform="translate(237.453125 0)"/>
      <use xlink:href="#DejaVuSans-55" transform="translate(269.234375 0)"/>
      <use xlink:href="#DejaVuSans-48" transform="translate(308.140625 0)"/>
      <use xlink:href="#DejaVuSans-56" transform="translate(369.671875 0)"/>
      <use xlink:href="#DejaVuSans-4c" transform="translate(421.765625 0)"/>
      <use xlink:href="#DejaVuSans-47" transform="translate(449.546875 0)"/>
      <use xlink:href="#DejaVuSans-48" transform="translate(513.03125 0)"/>
      <use xlink:href="#DejaVuSans-51" transform="translate(574.5625 0)"/>
      <use xlink:href="#DejaVuSans-57" transform="translate(637.9375 0)"/>
      <use xlink:href="#DejaVuSans-3" transform="translate(677.140625 0)"/>
      <use xlink:href="#DejaVuSans-50" transform="translate(708.921875 0)"/>
      <use xlink:href="#DejaVuSans-48" transform="translate(806.328125 0)"/>
      <use xlink:href="#DejaVuSans-50" transform="translate(867.859375 0)"/>
      <use xlink:href="#DejaVuSans-52" transform="translate(965.265625 0)"/>
      <use xlink:href="#DejaVuSans-55" transform="translate(1026.453125 0)"/>
      <use xlink:href="#DejaVuSans-5c" transform="translate(1067.5625 0)"/>
      <use xlink:href="#DejaVuSans-3" transform="translate(1126.75 0)"/>
      <use xlink:href="#DejaVuSans-3" transform="translate(1158.53125 0)"/>
      <use xlink:href="#DejaVuSans-b" transform="translate(1190.3125 0)"/>
      <use xlink:href="#DejaVuSans-30" transform="translate(1229.328125 0)"/>
      <use xlink:href="#DejaVuSans-25" transform="translate(1315.609375 0)"/>
      <use xlink:href="#DejaVuSans-c" transform="translate(1384.21875 0)"/>
     </g>
    </g>
   </g>
   <g id="line2d_48">
    <path d="M 550.414045 185.29999 
L 550.414045 43.215778 
" clip-path="url(#pc2fa7349f8)" style="fill: none; stroke-dasharray: 1,1.65; stroke-dashoffset: 0; stroke: #d55e00"/>
   </g>
   <g id="line2d_49">
    <path d="M 424.541062 238.539583 
L 424.541062 96.455371 
" clip-path="url(#pc2fa7349f8)" style="fill: none; stroke-dasharray: 1,1.65; stroke-dashoffset: 0; stroke: #d55e00"/>
   </g>
   <g id="patch_3">
    <path d="M 57.195859 317.139359 
L 57.195859 23.229938 
" style="fill: none; stroke: #000000; stroke-width: 0.8; stroke-linejoin: miter; stroke-linecap: square"/>
   </g>
   <g id="patch_4">
    <path d="M 57.195859 317.139359 
L 615.444919 317.139359 
" style="fill: none; stroke: #000000; stroke-width: 0.8; stroke-linejoin: miter; stroke-linecap: square"/>
   </g>
   <g id="PathCollection_1">
    <defs>
     <path id="m846596f2ad" d="M 0 5.700877 
C 1.51189 5.700877 2.962061 5.100197 4.031129 4.031129 
C 5.100197 2.962061 5.700877 1.51189 5.700877 0 
C 5.700877 -1.51189 5.100197 -2.962061 4.031129 -4.031129 
C 2.962061 -5.100197 1.51189 -5.700877 0 -5.700877 
C -1.51189 -5.700877 -2.962061 -5.100197 -4.031129 -4.031129 
C -5.100197 -2.962061 -5.700877 -1.51189 -5.700877 0 
C -5.700877 1.51189 -5.100197 2.962061 -4.031129 4.031129 
C -2.962061 5.100197 -1.51189 5.700877 0 5.700877 
z
" style="stroke: #000000; stroke-width: 0.6"/>
    </defs>
    <g clip-path="url(#pc2fa7349f8)">
     <use xlink:href="#m846596f2ad" x="209.730858" y="249.624166" style="fill: #0072b2; stroke: #000000; stroke-width: 0.6"/>
    </g>
   </g>
   <g id="text_19">
    <!-- GTFS import -->
    <g transform="translate(217.730858 243.624166) scale(0.085 -0.085)">
     <defs>
      <path id="DejaVuSans-2a" d="M 3809 666 
L 3809 1919 
L 2778 1919 
L 2778 2438 
L 4434 2438 
L 4434 434 
Q 4069 175 3628 42 
Q 3188 -91 2688 -91 
Q 1594 -91 976 548 
Q 359 1188 359 2328 
Q 359 3472 976 4111 
Q 1594 4750 2688 4750 
Q 3144 4750 3555 4637 
Q 3966 4525 4313 4306 
L 4313 3634 
Q 3963 3931 3569 4081 
Q 3175 4231 2741 4231 
Q 1884 4231 1454 3753 
Q 1025 3275 1025 2328 
Q 1025 1384 1454 906 
Q 1884 428 2741 428 
Q 3075 428 3337 486 
Q 3600 544 3809 666 
z
" transform="scale(0.015625)"/>
      <path id="DejaVuSans-37" d="M -19 4666 
L 3928 4666 
L 3928 4134 
L 2272 4134 
L 2272 0 
L 1638 0 
L 1638 4134 
L -19 4134 
L -19 4666 
z
" transform="scale(0.015625)"/>
      <path id="DejaVuSans-29" d="M 628 4666 
L 3309 4666 
L 3309 4134 
L 1259 4134 
L 1259 2759 
L 3109 2759 
L 3109 2228 
L 1259 2228 
L 1259 0 
L 628 0 
L 628 4666 
z
" transform="scale(0.015625)"/>
      <path id="DejaVuSans-36" d="M 3425 4513 
L 3425 3897 
Q 3066 4069 2747 4153 
Q 2428 4238 2131 4238 
Q 1616 4238 1336 4038 
Q 1056 3838 1056 3469 
Q 1056 3159 1242 3001 
Q 1428 2844 1947 2747 
L 2328 2669 
Q 3034 2534 3370 2195 
Q 3706 1856 3706 1288 
Q 3706 609 3251 259 
Q 2797 -91 1919 -91 
Q 1588 -91 1214 -16 
Q 841 59 441 206 
L 441 856 
Q 825 641 1194 531 
Q 1563 422 1919 422 
Q 2459 422 2753 634 
Q 3047 847 3047 1241 
Q 3047 1584 2836 1778 
Q 2625 1972 2144 2069 
L 1759 2144 
Q 1053 2284 737 2584 
Q 422 2884 422 3419 
Q 422 4038 858 4394 
Q 1294 4750 2059 4750 
Q 2388 4750 2728 4690 
Q 3069 4631 3425 4513 
z
" transform="scale(0.015625)"/>
      <path id="DejaVuSans-53" d="M 1159 525 
L 1159 -1331 
L 581 -1331 
L 581 3500 
L 1159 3500 
L 1159 2969 
Q 1341 3281 1617 3432 
Q 1894 3584 2278 3584 
Q 2916 3584 3314 3078 
Q 3713 2572 3713 1747 
Q 3713 922 3314 415 
Q 2916 -91 2278 -91 
Q 1894 -91 1617 61 
Q 1341 213 1159 525 
z
M 3116 1747 
Q 3116 2381 2855 2742 
Q 2594 3103 2138 3103 
Q 1681 3103 1420 2742 
Q 1159 2381 1159 1747 
Q 1159 1113 1420 752 
Q 1681 391 2138 391 
Q 2594 391 2855 752 
Q 3116 1113 3116 1747 
z
" transform="scale(0.015625)"/>
     </defs>
     <use xlink:href="#DejaVuSans-2a"/>
     <use xlink:href="#DejaVuSans-37" transform="translate(73.921875 0)"/>
     <use xlink:href="#DejaVuSans-29" transform="translate(135 0)"/>
     <use xlink:href="#DejaVuSans-36" transform="translate(190.765625 0)"/>
     <use xlink:href="#DejaVuSans-3" transform="translate(254.25 0)"/>
     <use xlink:href="#DejaVuSans-4c" transform="translate(286.03125 0)"/>
     <use xlink:href="#DejaVuSans-50" transform="translate(313.8125 0)"/>
     <use xlink:href="#DejaVuSans-53" transform="translate(411.21875 0)"/>
     <use xlink:href="#DejaVuSans-52" transform="translate(474.703125 0)"/>
     <use xlink:href="#DejaVuSans-55" transform="translate(535.890625 0)"/>
     <use xlink:href="#DejaVuSans-57" transform="translate(577 0)"/>
    </g>
   </g>
   <g id="PathCollection_2">
    <g clip-path="url(#pc2fa7349f8)">
     <use xlink:href="#m846596f2ad" x="193.901068" y="186.643576" style="fill: #0072b2; stroke: #000000; stroke-width: 0.6"/>
    </g>
   </g>
   <g id="text_20">
    <!-- NeTEx export -->
    <g transform="translate(201.901068 180.643576) scale(0.085 -0.085)">
     <defs>
      <path id="DejaVuSans-31" d="M 628 4666 
L 1478 4666 
L 3547 763 
L 3547 4666 
L 4159 4666 
L 4159 0 
L 3309 0 
L 1241 3903 
L 1241 0 
L 628 0 
L 628 4666 
z
" transform="scale(0.015625)"/>
     </defs>
     <use xlink:href="#DejaVuSans-31"/>
     <use xlink:href="#DejaVuSans-48" transform="translate(74.8125 0)"/>
     <use xlink:href="#DejaVuSans-37" transform="translate(136.34375 0)"/>
     <use xlink:href="#DejaVuSans-28" transform="translate(197.421875 0)"/>
     <use xlink:href="#DejaVuSans-5b" transform="translate(260.609375 0)"/>
     <use xlink:href="#DejaVuSans-3" transform="translate(319.796875 0)"/>
     <use xlink:href="#DejaVuSans-48" transform="translate(351.578125 0)"/>
     <use xlink:href="#DejaVuSans-5b" transform="translate(411.359375 0)"/>
     <use xlink:href="#DejaVuSans-53" transform="translate(470.546875 0)"/>
     <use xlink:href="#DejaVuSans-52" transform="translate(534.03125 0)"/>
     <use xlink:href="#DejaVuSans-55" transform="translate(595.21875 0)"/>
     <use xlink:href="#DejaVuSans-57" transform="translate(636.328125 0)"/>
    </g>
   </g>
   <g id="PathCollection_3">
    <g clip-path="url(#pc2fa7349f8)">
     <use xlink:href="#m846596f2ad" x="97.309514" y="246.097253" style="fill: #0072b2; stroke: #000000; stroke-width: 0.6"/>
    </g>
   </g>
   <g id="text_21">
    <!-- GTFS export -->
    <g transform="translate(105.309514 240.097253) scale(0.085 -0.085)">
     <use xlink:href="#DejaVuSans-2a"/>
     <use xlink:href="#DejaVuSans-37" transform="translate(73.921875 0)"/>
     <use xlink:href="#DejaVuSans-29" transform="translate(135 0)"/>
     <use xlink:href="#DejaVuSans-36" transform="translate(190.765625 0)"/>
     <use xlink:href="#DejaVuSans-3" transform="translate(254.25 0)"/>
     <use xlink:href="#DejaVuSans-48" transform="translate(286.03125 0)"/>
     <use xlink:href="#DejaVuSans-5b" transform="translate(345.8125 0)"/>
     <use xlink:href="#DejaVuSans-53" transform="translate(405 0)"/>
     <use xlink:href="#DejaVuSans-52" transform="translate(468.484375 0)"/>
     <use xlink:href="#DejaVuSans-55" transform="translate(529.671875 0)"/>
     <use xlink:href="#DejaVuSans-57" transform="translate(570.78125 0)"/>
    </g>
   </g>
   <g id="PathCollection_4">
    <g clip-path="url(#pc2fa7349f8)">
     <use xlink:href="#m846596f2ad" x="317.748142" y="141.465499" style="fill: #0072b2; stroke: #000000; stroke-width: 0.6"/>
    </g>
   </g>
   <g id="text_22">
    <!-- NeTEx import -->
    <g transform="translate(325.748142 135.465499) scale(0.085 -0.085)">
     <use xlink:href="#DejaVuSans-31"/>
     <use xlink:href="#DejaVuSans-48" transform="translate(74.8125 0)"/>
     <use xlink:href="#DejaVuSans-37" transform="translate(136.34375 0)"/>
     <use xlink:href="#DejaVuSans-28" transform="translate(197.421875 0)"/>
     <use xlink:href="#DejaVuSans-5b" transform="translate(260.609375 0)"/>
     <use xlink:href="#DejaVuSans-3" transform="translate(319.796875 0)"/>
     <use xlink:href="#DejaVuSans-4c" transform="translate(351.578125 0)"/>
     <use xlink:href="#DejaVuSans-50" transform="translate(379.359375 0)"/>
     <use xlink:href="#DejaVuSans-53" transform="translate(476.765625 0)"/>
     <use xlink:href="#DejaVuSans-52" transform="translate(540.25 0)"/>
     <use xlink:href="#DejaVuSans-55" transform="translate(601.4375 0)"/>
     <use xlink:href="#DejaVuSans-57" transform="translate(642.546875 0)"/>
    </g>
   </g>
   <g id="PathCollection_5">
    <defs>
     <path id="mee64b1f0ab" d="M 0 5.700877 
C 1.51189 5.700877 2.962061 5.100197 4.031129 4.031129 
C 5.100197 2.962061 5.700877 1.51189 5.700877 0 
C 5.700877 -1.51189 5.100197 -2.962061 4.031129 -4.031129 
C 2.962061 -5.100197 1.51189 -5.700877 0 -5.700877 
C -1.51189 -5.700877 -2.962061 -5.100197 -4.031129 -4.031129 
C -5.100197 -2.962061 -5.700877 -1.51189 -5.700877 0 
C -5.700877 1.51189 -5.100197 2.962061 -4.031129 4.031129 
C -2.962061 5.100197 -1.51189 5.700877 0 5.700877 
z
" style="stroke: #000000; stroke-width: 0.6"/>
    </defs>
    <g clip-path="url(#pc2fa7349f8)">
     <use xlink:href="#mee64b1f0ab" x="550.414045" y="185.29999" style="fill: #d55e00; stroke: #000000; stroke-width: 0.6"/>
    </g>
   </g>
   <g id="PathCollection_6">
    <path d="M 550.414045 48.916655 
C 551.925935 48.916655 553.376106 48.315975 554.445174 47.246907 
C 555.514242 46.177839 556.114922 44.727668 556.114922 43.215778 
C 556.114922 41.703888 555.514242 40.253717 554.445174 39.184649 
C 553.376106 38.115581 551.925935 37.514901 550.414045 37.514901 
C 548.902155 37.514901 547.451984 38.115581 546.382916 39.184649 
C 545.313848 40.253717 544.713168 41.703888 544.713168 43.215778 
C 544.713168 44.727668 545.313848 46.177839 546.382916 47.246907 
C 547.451984 48.315975 548.902155 48.916655 550.414045 48.916655 
L 550.414045 48.916655 
z
" clip-path="url(#pc2fa7349f8)" style="fill: none; stroke-dasharray: 4.44,1.92; stroke-dashoffset: 0; stroke: #d55e00; stroke-width: 1.2"/>
   </g>
   <g id="text_23">
    <!-- GTFS import -->
    <g transform="translate(558.414045 179.29999) scale(0.085 -0.085)">
     <use xlink:href="#DejaVuSans-2a"/>
     <use xlink:href="#DejaVuSans-37" transform="translate(73.921875 0)"/>
     <use xlink:href="#DejaVuSans-29" transform="translate(135 0)"/>
     <use xlink:href="#DejaVuSans-36" transform="translate(190.765625 0)"/>
     <use xlink:href="#DejaVuSans-3" transform="translate(254.25 0)"/>
     <use xlink:href="#DejaVuSans-4c" transform="translate(286.03125 0)"/>
     <use xlink:href="#DejaVuSans-50" transform="translate(313.8125 0)"/>
     <use xlink:href="#DejaVuSans-53" transform="translate(411.21875 0)"/>
     <use xlink:href="#DejaVuSans-52" transform="translate(474.703125 0)"/>
     <use xlink:href="#DejaVuSans-55" transform="translate(535.890625 0)"/>
     <use xlink:href="#DejaVuSans-57" transform="translate(577 0)"/>
    </g>
   </g>
   <g id="PathCollection_7">
    <g clip-path="url(#pc2fa7349f8)">
     <use xlink:href="#mee64b1f0ab" x="424.541062" y="238.539583" style="fill: #d55e00; stroke: #000000; stroke-width: 0.6"/>
    </g>
   </g>
   <g id="PathCollection_8">
    <path d="M 424.541062 102.156248 
C 426.052952 102.156248 427.503123 101.555567 428.572191 100.486499 
C 429.641259 99.417432 430.241939 97.967261 430.241939 96.455371 
C 430.241939 94.94348 429.641259 93.49331 428.572191 92.424242 
C 427.503123 91.355174 426.052952 90.754493 424.541062 90.754493 
C 423.029172 90.754493 421.579001 91.355174 420.509933 92.424242 
C 419.440865 93.49331 418.840185 94.94348 418.840185 96.455371 
C 418.840185 97.967261 419.440865 99.417432 420.509933 100.486499 
C 421.579001 101.555567 423.029172 102.156248 424.541062 102.156248 
L 424.541062 102.156248 
z
" clip-path="url(#pc2fa7349f8)" style="fill: none; stroke-dasharray: 4.44,1.92; stroke-dashoffset: 0; stroke: #d55e00; stroke-width: 1.2"/>
   </g>
   <g id="text_24">
    <!-- NeTEx export -->
    <g transform="translate(432.541062 232.539583) scale(0.085 -0.085)">
     <use xlink:href="#DejaVuSans-31"/>
     <use xlink:href="#DejaVuSans-48" transform="translate(74.8125 0)"/>
     <use xlink:href="#DejaVuSans-37" transform="translate(136.34375 0)"/>
     <use xlink:href="#DejaVuSans-28" transform="translate(197.421875 0)"/>
     <use xlink:href="#DejaVuSans-5b" transform="translate(260.609375 0)"/>
     <use xlink:href="#DejaVuSans-3" transform="translate(319.796875 0)"/>
     <use xlink:href="#DejaVuSans-48" transform="translate(351.578125 0)"/>
     <use xlink:href="#DejaVuSans-5b" transform="translate(411.359375 0)"/>
     <use xlink:href="#DejaVuSans-53" transform="translate(470.546875 0)"/>
     <use xlink:href="#DejaVuSans-52" transform="translate(534.03125 0)"/>
     <use xlink:href="#DejaVuSans-55" transform="translate(595.21875 0)"/>
     <use xlink:href="#DejaVuSans-57" transform="translate(636.328125 0)"/>
    </g>
   </g>
   <g id="text_25">
    <!-- ← faster, lighter -->
    <g style="fill: #555555" transform="translate(99.917067 307.062465) scale(0.09 -0.09)">
     <defs>
      <path id="DejaVuSans-Oblique-b22" d="M 313 1866 
L 313 2147 
L 1541 3375 
L 1916 3000 
L 1188 2272 
L 4997 2272 
L 4997 1741 
L 1188 1741 
L 1916 1013 
L 1541 638 
L 313 1866 
z
" transform="scale(0.015625)"/>
      <path id="DejaVuSans-Oblique-3" transform="scale(0.015625)"/>
      <path id="DejaVuSans-Oblique-49" d="M 3059 4863 
L 2969 4384 
L 2419 4384 
Q 2106 4384 1964 4261 
Q 1822 4138 1753 3809 
L 1691 3500 
L 2638 3500 
L 2553 3053 
L 1606 3053 
L 1013 0 
L 434 0 
L 1031 3053 
L 481 3053 
L 563 3500 
L 1113 3500 
L 1159 3744 
Q 1278 4363 1576 4613 
Q 1875 4863 2516 4863 
L 3059 4863 
z
" transform="scale(0.015625)"/>
      <path id="DejaVuSans-Oblique-44" d="M 3438 1997 
L 3047 0 
L 2472 0 
L 2578 531 
Q 2325 219 2001 64 
Q 1678 -91 1281 -91 
Q 834 -91 548 182 
Q 263 456 263 884 
Q 263 1497 752 1853 
Q 1241 2209 2100 2209 
L 2900 2209 
L 2931 2363 
Q 2938 2388 2941 2417 
Q 2944 2447 2944 2509 
Q 2944 2788 2717 2942 
Q 2491 3097 2081 3097 
Q 1800 3097 1504 3025 
Q 1209 2953 897 2809 
L 997 3341 
Q 1322 3463 1633 3523 
Q 1944 3584 2234 3584 
Q 2853 3584 3176 3315 
Q 3500 3047 3500 2534 
Q 3500 2431 3484 2292 
Q 3469 2153 3438 1997 
z
M 2816 1759 
L 2241 1759 
Q 1534 1759 1195 1570 
Q 856 1381 856 984 
Q 856 709 1029 553 
Q 1203 397 1509 397 
Q 1978 397 2328 733 
Q 2678 1069 2791 1631 
L 2816 1759 
z
" transform="scale(0.015625)"/>
      <path id="DejaVuSans-Oblique-56" d="M 3200 3397 
L 3091 2853 
Q 2863 2978 2609 3040 
Q 2356 3103 2088 3103 
Q 1634 3103 1373 2948 
Q 1113 2794 1113 2528 
Q 1113 2219 1719 2053 
Q 1766 2041 1788 2034 
L 1972 1978 
Q 2547 1819 2739 1644 
Q 2931 1469 2931 1166 
Q 2931 609 2489 259 
Q 2047 -91 1331 -91 
Q 1053 -91 747 -37 
Q 441 16 72 128 
L 184 722 
Q 500 559 806 475 
Q 1113 391 1394 391 
Q 1816 391 2080 572 
Q 2344 753 2344 1031 
Q 2344 1331 1650 1516 
L 1591 1531 
L 1394 1581 
Q 956 1697 753 1886 
Q 550 2075 550 2369 
Q 550 2928 970 3256 
Q 1391 3584 2113 3584 
Q 2397 3584 2667 3537 
Q 2938 3491 3200 3397 
z
" transform="scale(0.015625)"/>
      <path id="DejaVuSans-Oblique-57" d="M 2706 3500 
L 2619 3053 
L 1472 3053 
L 1100 1153 
Q 1081 1047 1072 975 
Q 1063 903 1063 863 
Q 1063 663 1183 572 
Q 1303 481 1569 481 
L 2150 481 
L 2053 0 
L 1503 0 
Q 991 0 739 200 
Q 488 400 488 806 
Q 488 878 497 964 
Q 506 1050 525 1153 
L 897 3053 
L 409 3053 
L 500 3500 
L 978 3500 
L 1172 4494 
L 1747 4494 
L 1556 3500 
L 2706 3500 
z
" transform="scale(0.015625)"/>
      <path id="DejaVuSans-Oblique-55" d="M 2853 2969 
Q 2766 3016 2653 3041 
Q 2541 3066 2413 3066 
Q 1953 3066 1609 2717 
Q 1266 2369 1153 1784 
L 800 0 
L 225 0 
L 909 3500 
L 1484 3500 
L 1375 2956 
Q 1603 3259 1920 3421 
Q 2238 3584 2597 3584 
Q 2691 3584 2781 3573 
Q 2872 3563 2963 3538 
L 2853 2969 
z
" transform="scale(0.015625)"/>
      <path id="DejaVuSans-Oblique-f" d="M 575 794 
L 1234 794 
L 1131 256 
L 422 -744 
L 19 -744 
L 469 256 
L 575 794 
z
" transform="scale(0.015625)"/>
      <path id="DejaVuSans-Oblique-4f" d="M 1172 4863 
L 1747 4863 
L 800 0 
L 225 0 
L 1172 4863 
z
" transform="scale(0.015625)"/>
      <path id="DejaVuSans-Oblique-4c" d="M 1172 4863 
L 1747 4863 
L 1606 4134 
L 1031 4134 
L 1172 4863 
z
M 909 3500 
L 1484 3500 
L 800 0 
L 225 0 
L 909 3500 
z
" transform="scale(0.015625)"/>
      <path id="DejaVuSans-Oblique-4a" d="M 3816 3500 
L 3219 434 
Q 3047 -456 2561 -893 
Q 2075 -1331 1253 -1331 
Q 950 -1331 690 -1286 
Q 431 -1241 206 -1147 
L 313 -588 
Q 525 -725 762 -790 
Q 1000 -856 1269 -856 
Q 1816 -856 2167 -557 
Q 2519 -259 2631 300 
L 2681 563 
Q 2441 288 2122 144 
Q 1803 0 1434 0 
Q 903 0 598 351 
Q 294 703 294 1319 
Q 294 1803 478 2267 
Q 663 2731 997 3091 
Q 1219 3328 1514 3456 
Q 1809 3584 2131 3584 
Q 2484 3584 2746 3420 
Q 3009 3256 3138 2956 
L 3238 3500 
L 3816 3500 
z
M 2950 2216 
Q 2950 2641 2750 2872 
Q 2550 3103 2181 3103 
Q 1953 3103 1747 3012 
Q 1541 2922 1394 2759 
Q 1156 2491 1023 2127 
Q 891 1763 891 1375 
Q 891 944 1092 712 
Q 1294 481 1672 481 
Q 2219 481 2584 976 
Q 2950 1472 2950 2216 
z
" transform="scale(0.015625)"/>
      <path id="DejaVuSans-Oblique-4b" d="M 3566 2113 
L 3156 0 
L 2578 0 
L 2988 2091 
Q 3016 2238 3031 2350 
Q 3047 2463 3047 2528 
Q 3047 2791 2881 2937 
Q 2716 3084 2419 3084 
Q 1956 3084 1617 2771 
Q 1278 2459 1178 1941 
L 800 0 
L 225 0 
L 1172 4863 
L 1747 4863 
L 1375 2950 
Q 1594 3244 1934 3414 
Q 2275 3584 2650 3584 
Q 3113 3584 3367 3334 
Q 3622 3084 3622 2631 
Q 3622 2519 3608 2391 
Q 3594 2263 3566 2113 
z
" transform="scale(0.015625)"/>
     </defs>
     <use xlink:href="#DejaVuSans-Oblique-b22"/>
     <use xlink:href="#DejaVuSans-Oblique-3" transform="translate(83.796875 0)"/>
     <use xlink:href="#DejaVuSans-Oblique-49" transform="translate(115.578125 0)"/>
     <use xlink:href="#DejaVuSans-Oblique-44" transform="translate(150.78125 0)"/>
     <use xlink:href="#DejaVuSans-Oblique-56" transform="translate(212.0625 0)"/>
     <use xlink:href="#DejaVuSans-Oblique-57" transform="translate(264.15625 0)"/>
     <use xlink:href="#DejaVuSans-Oblique-48" transform="translate(303.359375 0)"/>
     <use xlink:href="#DejaVuSans-Oblique-55" transform="translate(364.890625 0)"/>
     <use xlink:href="#DejaVuSans-Oblique-f" transform="translate(396.828125 0)"/>
     <use xlink:href="#DejaVuSans-Oblique-3" transform="translate(428.609375 0)"/>
     <use xlink:href="#DejaVuSans-Oblique-4f" transform="translate(460.390625 0)"/>
     <use xlink:href="#DejaVuSans-Oblique-4c" transform="translate(488.171875 0)"/>
     <use xlink:href="#DejaVuSans-Oblique-4a" transform="translate(515.953125 0)"/>
     <use xlink:href="#DejaVuSans-Oblique-4b" transform="translate(579.4375 0)"/>
     <use xlink:href="#DejaVuSans-Oblique-57" transform="translate(642.8125 0)"/>
     <use xlink:href="#DejaVuSans-Oblique-48" transform="translate(682.015625 0)"/>
     <use xlink:href="#DejaVuSans-Oblique-55" transform="translate(743.546875 0)"/>
    </g>
   </g>
   <g id="text_26">
    <!-- Execution time vs. peak memory across tools -->
    <g transform="translate(167.730608 17.229937) scale(0.132 -0.132)">
     <defs>
      <path id="DejaVuSans-Bold-28" d="M 588 4666 
L 3834 4666 
L 3834 3756 
L 1791 3756 
L 1791 2888 
L 3713 2888 
L 3713 1978 
L 1791 1978 
L 1791 909 
L 3903 909 
L 3903 0 
L 588 0 
L 588 4666 
z
" transform="scale(0.015625)"/>
      <path id="DejaVuSans-Bold-5b" d="M 1422 1791 
L 159 3500 
L 1344 3500 
L 2059 2463 
L 2784 3500 
L 3969 3500 
L 2706 1797 
L 4031 0 
L 2847 0 
L 2059 1106 
L 1281 0 
L 97 0 
L 1422 1791 
z
" transform="scale(0.015625)"/>
      <path id="DejaVuSans-Bold-48" d="M 4031 1759 
L 4031 1441 
L 1416 1441 
Q 1456 1047 1700 850 
Q 1944 653 2381 653 
Q 2734 653 3104 758 
Q 3475 863 3866 1075 
L 3866 213 
Q 3469 63 3072 -14 
Q 2675 -91 2278 -91 
Q 1328 -91 801 392 
Q 275 875 275 1747 
Q 275 2603 792 3093 
Q 1309 3584 2216 3584 
Q 3041 3584 3536 3087 
Q 4031 2591 4031 1759 
z
M 2881 2131 
Q 2881 2450 2695 2645 
Q 2509 2841 2209 2841 
Q 1884 2841 1681 2658 
Q 1478 2475 1428 2131 
L 2881 2131 
z
" transform="scale(0.015625)"/>
      <path id="DejaVuSans-Bold-46" d="M 3366 3391 
L 3366 2478 
Q 3138 2634 2908 2709 
Q 2678 2784 2431 2784 
Q 1963 2784 1702 2511 
Q 1441 2238 1441 1747 
Q 1441 1256 1702 982 
Q 1963 709 2431 709 
Q 2694 709 2930 787 
Q 3166 866 3366 1019 
L 3366 103 
Q 3103 6 2833 -42 
Q 2563 -91 2291 -91 
Q 1344 -91 809 395 
Q 275 881 275 1747 
Q 275 2613 809 3098 
Q 1344 3584 2291 3584 
Q 2566 3584 2833 3536 
Q 3100 3488 3366 3391 
z
" transform="scale(0.015625)"/>
      <path id="DejaVuSans-Bold-58" d="M 500 1363 
L 500 3500 
L 1625 3500 
L 1625 3150 
Q 1625 2866 1622 2436 
Q 1619 2006 1619 1863 
Q 1619 1441 1641 1255 
Q 1663 1069 1716 984 
Q 1784 875 1895 815 
Q 2006 756 2150 756 
Q 2500 756 2700 1025 
Q 2900 1294 2900 1772 
L 2900 3500 
L 4019 3500 
L 4019 0 
L 2900 0 
L 2900 506 
Q 2647 200 2364 54 
Q 2081 -91 1741 -91 
Q 1134 -91 817 281 
Q 500 653 500 1363 
z
" transform="scale(0.015625)"/>
      <path id="DejaVuSans-Bold-57" d="M 1759 4494 
L 1759 3500 
L 2913 3500 
L 2913 2700 
L 1759 2700 
L 1759 1216 
Q 1759 972 1856 886 
Q 1953 800 2241 800 
L 2816 800 
L 2816 0 
L 1856 0 
Q 1194 0 917 276 
Q 641 553 641 1216 
L 641 2700 
L 84 2700 
L 84 3500 
L 641 3500 
L 641 4494 
L 1759 4494 
z
" transform="scale(0.015625)"/>
      <path id="DejaVuSans-Bold-4c" d="M 538 3500 
L 1656 3500 
L 1656 0 
L 538 0 
L 538 3500 
z
M 538 4863 
L 1656 4863 
L 1656 3950 
L 538 3950 
L 538 4863 
z
" transform="scale(0.015625)"/>
      <path id="DejaVuSans-Bold-52" d="M 2203 2784 
Q 1831 2784 1636 2517 
Q 1441 2250 1441 1747 
Q 1441 1244 1636 976 
Q 1831 709 2203 709 
Q 2569 709 2762 976 
Q 2956 1244 2956 1747 
Q 2956 2250 2762 2517 
Q 2569 2784 2203 2784 
z
M 2203 3584 
Q 3106 3584 3614 3096 
Q 4122 2609 4122 1747 
Q 4122 884 3614 396 
Q 3106 -91 2203 -91 
Q 1297 -91 786 396 
Q 275 884 275 1747 
Q 275 2609 786 3096 
Q 1297 3584 2203 3584 
z
" transform="scale(0.015625)"/>
      <path id="DejaVuSans-Bold-51" d="M 4056 2131 
L 4056 0 
L 2931 0 
L 2931 347 
L 2931 1631 
Q 2931 2084 2911 2256 
Q 2891 2428 2841 2509 
Q 2775 2619 2662 2680 
Q 2550 2741 2406 2741 
Q 2056 2741 1856 2470 
Q 1656 2200 1656 1722 
L 1656 0 
L 538 0 
L 538 3500 
L 1656 3500 
L 1656 2988 
Q 1909 3294 2193 3439 
Q 2478 3584 2822 3584 
Q 3428 3584 3742 3212 
Q 4056 2841 4056 2131 
z
" transform="scale(0.015625)"/>
      <path id="DejaVuSans-Bold-3" transform="scale(0.015625)"/>
      <path id="DejaVuSans-Bold-50" d="M 3781 2919 
Q 3994 3244 4286 3414 
Q 4578 3584 4928 3584 
Q 5531 3584 5847 3212 
Q 6163 2841 6163 2131 
L 6163 0 
L 5038 0 
L 5038 1825 
Q 5041 1866 5042 1909 
Q 5044 1953 5044 2034 
Q 5044 2406 4934 2573 
Q 4825 2741 4581 2741 
Q 4263 2741 4089 2478 
Q 3916 2216 3909 1719 
L 3909 0 
L 2784 0 
L 2784 1825 
Q 2784 2406 2684 2573 
Q 2584 2741 2328 2741 
Q 2006 2741 1831 2477 
Q 1656 2213 1656 1722 
L 1656 0 
L 531 0 
L 531 3500 
L 1656 3500 
L 1656 2988 
Q 1863 3284 2130 3434 
Q 2397 3584 2719 3584 
Q 3081 3584 3359 3409 
Q 3638 3234 3781 2919 
z
" transform="scale(0.015625)"/>
      <path id="DejaVuSans-Bold-59" d="M 97 3500 
L 1216 3500 
L 2088 1081 
L 2956 3500 
L 4078 3500 
L 2700 0 
L 1472 0 
L 97 3500 
z
" transform="scale(0.015625)"/>
      <path id="DejaVuSans-Bold-56" d="M 3272 3391 
L 3272 2541 
Q 2913 2691 2578 2766 
Q 2244 2841 1947 2841 
Q 1628 2841 1473 2761 
Q 1319 2681 1319 2516 
Q 1319 2381 1436 2309 
Q 1553 2238 1856 2203 
L 2053 2175 
Q 2913 2066 3209 1816 
Q 3506 1566 3506 1031 
Q 3506 472 3093 190 
Q 2681 -91 1863 -91 
Q 1516 -91 1145 -36 
Q 775 19 384 128 
L 384 978 
Q 719 816 1070 734 
Q 1422 653 1784 653 
Q 2113 653 2278 743 
Q 2444 834 2444 1013 
Q 2444 1163 2330 1236 
Q 2216 1309 1875 1350 
L 1678 1375 
Q 931 1469 631 1722 
Q 331 1975 331 2491 
Q 331 3047 712 3315 
Q 1094 3584 1881 3584 
Q 2191 3584 2531 3537 
Q 2872 3491 3272 3391 
z
" transform="scale(0.015625)"/>
      <path id="DejaVuSans-Bold-11" d="M 653 1209 
L 1778 1209 
L 1778 0 
L 653 0 
L 653 1209 
z
" transform="scale(0.015625)"/>
      <path id="DejaVuSans-Bold-53" d="M 1656 506 
L 1656 -1331 
L 538 -1331 
L 538 3500 
L 1656 3500 
L 1656 2988 
Q 1888 3294 2169 3439 
Q 2450 3584 2816 3584 
Q 3463 3584 3878 3070 
Q 4294 2556 4294 1747 
Q 4294 938 3878 423 
Q 3463 -91 2816 -91 
Q 2450 -91 2169 54 
Q 1888 200 1656 506 
z
M 2400 2772 
Q 2041 2772 1848 2508 
Q 1656 2244 1656 1747 
Q 1656 1250 1848 986 
Q 2041 722 2400 722 
Q 2759 722 2948 984 
Q 3138 1247 3138 1747 
Q 3138 2247 2948 2509 
Q 2759 2772 2400 2772 
z
" transform="scale(0.015625)"/>
      <path id="DejaVuSans-Bold-44" d="M 2106 1575 
Q 1756 1575 1579 1456 
Q 1403 1338 1403 1106 
Q 1403 894 1545 773 
Q 1688 653 1941 653 
Q 2256 653 2472 879 
Q 2688 1106 2688 1447 
L 2688 1575 
L 2106 1575 
z
M 3816 1997 
L 3816 0 
L 2688 0 
L 2688 519 
Q 2463 200 2181 54 
Q 1900 -91 1497 -91 
Q 953 -91 614 226 
Q 275 544 275 1050 
Q 275 1666 698 1953 
Q 1122 2241 2028 2241 
L 2688 2241 
L 2688 2328 
Q 2688 2594 2478 2717 
Q 2269 2841 1825 2841 
Q 1466 2841 1156 2769 
Q 847 2697 581 2553 
L 581 3406 
Q 941 3494 1303 3539 
Q 1666 3584 2028 3584 
Q 2975 3584 3395 3211 
Q 3816 2838 3816 1997 
z
" transform="scale(0.015625)"/>
      <path id="DejaVuSans-Bold-4e" d="M 538 4863 
L 1656 4863 
L 1656 2216 
L 2944 3500 
L 4244 3500 
L 2534 1894 
L 4378 0 
L 3022 0 
L 1656 1459 
L 1656 0 
L 538 0 
L 538 4863 
z
" transform="scale(0.015625)"/>
      <path id="DejaVuSans-Bold-55" d="M 3138 2547 
Q 2991 2616 2845 2648 
Q 2700 2681 2553 2681 
Q 2122 2681 1889 2404 
Q 1656 2128 1656 1613 
L 1656 0 
L 538 0 
L 538 3500 
L 1656 3500 
L 1656 2925 
Q 1872 3269 2151 3426 
Q 2431 3584 2822 3584 
Q 2878 3584 2943 3579 
Q 3009 3575 3134 3559 
L 3138 2547 
z
" transform="scale(0.015625)"/>
      <path id="DejaVuSans-Bold-5c" d="M 78 3500 
L 1197 3500 
L 2138 1125 
L 2938 3500 
L 4056 3500 
L 2584 -331 
Q 2363 -916 2067 -1148 
Q 1772 -1381 1288 -1381 
L 641 -1381 
L 641 -647 
L 991 -647 
Q 1275 -647 1404 -556 
Q 1534 -466 1606 -231 
L 1638 -134 
L 78 3500 
z
" transform="scale(0.015625)"/>
      <path id="DejaVuSans-Bold-4f" d="M 538 4863 
L 1656 4863 
L 1656 0 
L 538 0 
L 538 4863 
z
" transform="scale(0.015625)"/>
     </defs>
     <use xlink:href="#DejaVuSans-Bold-28"/>
     <use xlink:href="#DejaVuSans-Bold-5b" transform="translate(68.3125 0)"/>
     <use xlink:href="#DejaVuSans-Bold-48" transform="translate(132.8125 0)"/>
     <use xlink:href="#DejaVuSans-Bold-46" transform="translate(200.640625 0)"/>
     <use xlink:href="#DejaVuSans-Bold-58" transform="translate(259.921875 0)"/>
     <use xlink:href="#DejaVuSans-Bold-57" transform="translate(331.109375 0)"/>
     <use xlink:href="#DejaVuSans-Bold-4c" transform="translate(378.90625 0)"/>
     <use xlink:href="#DejaVuSans-Bold-52" transform="translate(413.1875 0)"/>
     <use xlink:href="#DejaVuSans-Bold-51" transform="translate(481.890625 0)"/>
     <use xlink:href="#DejaVuSans-Bold-3" transform="translate(553.078125 0)"/>
     <use xlink:href="#DejaVuSans-Bold-57" transform="translate(587.890625 0)"/>
     <use xlink:href="#DejaVuSans-Bold-4c" transform="translate(635.6875 0)"/>
     <use xlink:href="#DejaVuSans-Bold-50" transform="translate(669.96875 0)"/>
     <use xlink:href="#DejaVuSans-Bold-48" transform="translate(774.171875 0)"/>
     <use xlink:href="#DejaVuSans-Bold-3" transform="translate(842 0)"/>
     <use xlink:href="#DejaVuSans-Bold-59" transform="translate(876.8125 0)"/>
     <use xlink:href="#DejaVuSans-Bold-56" transform="translate(942 0)"/>
     <use xlink:href="#DejaVuSans-Bold-11" transform="translate(1001.515625 0)"/>
     <use xlink:href="#DejaVuSans-Bold-3" transform="translate(1039.5 0)"/>
     <use xlink:href="#DejaVuSans-Bold-53" transform="translate(1074.3125 0)"/>
     <use xlink:href="#DejaVuSans-Bold-48" transform="translate(1145.890625 0)"/>
     <use xlink:href="#DejaVuSans-Bold-44" transform="translate(1213.71875 0)"/>
     <use xlink:href="#DejaVuSans-Bold-4e" transform="translate(1281.203125 0)"/>
     <use xlink:href="#DejaVuSans-Bold-3" transform="translate(1347.703125 0)"/>
     <use xlink:href="#DejaVuSans-Bold-50" transform="translate(1382.515625 0)"/>
     <use xlink:href="#DejaVuSans-Bold-48" transform="translate(1486.71875 0)"/>
     <use xlink:href="#DejaVuSans-Bold-50" transform="translate(1554.546875 0)"/>
     <use xlink:href="#DejaVuSans-Bold-52" transform="translate(1658.75 0)"/>
     <use xlink:href="#DejaVuSans-Bold-55" transform="translate(1727.453125 0)"/>
     <use xlink:href="#DejaVuSans-Bold-5c" transform="translate(1776.765625 0)"/>
     <use xlink:href="#DejaVuSans-Bold-3" transform="translate(1841.953125 0)"/>
     <use xlink:href="#DejaVuSans-Bold-44" transform="translate(1876.765625 0)"/>
     <use xlink:href="#DejaVuSans-Bold-46" transform="translate(1944.25 0)"/>
     <use xlink:href="#DejaVuSans-Bold-55" transform="translate(2003.53125 0)"/>
     <use xlink:href="#DejaVuSans-Bold-52" transform="translate(2052.84375 0)"/>
     <use xlink:href="#DejaVuSans-Bold-56" transform="translate(2121.546875 0)"/>
     <use xlink:href="#DejaVuSans-Bold-56" transform="translate(2181.0625 0)"/>
     <use xlink:href="#DejaVuSans-Bold-3" transform="translate(2240.578125 0)"/>
     <use xlink:href="#DejaVuSans-Bold-57" transform="translate(2275.390625 0)"/>
     <use xlink:href="#DejaVuSans-Bold-52" transform="translate(2323.1875 0)"/>
     <use xlink:href="#DejaVuSans-Bold-52" transform="translate(2391.890625 0)"/>
     <use xlink:href="#DejaVuSans-Bold-4f" transform="translate(2460.59375 0)"/>
     <use xlink:href="#DejaVuSans-Bold-56" transform="translate(2494.875 0)"/>
    </g>
   </g>
   <g id="legend_1">
    <g id="line2d_50">
     <path d="M 65.295859 35.018531 
L 74.295859 35.018531 
L 83.295859 35.018531 
" style="fill: none; stroke: #ffffff; stroke-width: 1.5; stroke-linecap: square"/>
     <defs>
      <path id="m98ee516c04" d="M 0 5.5 
C 1.458617 5.5 2.857689 4.920485 3.889087 3.889087 
C 4.920485 2.857689 5.5 1.458617 5.5 0 
C 5.5 -1.458617 4.920485 -2.857689 3.889087 -3.889087 
C 2.857689 -4.920485 1.458617 -5.5 0 -5.5 
C -1.458617 -5.5 -2.857689 -4.920485 -3.889087 -3.889087 
C -4.920485 -2.857689 -5.5 -1.458617 -5.5 0 
C -5.5 1.458617 -4.920485 2.857689 -3.889087 3.889087 
C -2.857689 4.920485 -1.458617 5.5 0 5.5 
z
" style="stroke: #000000"/>
     </defs>
     <g>
      <use xlink:href="#m98ee516c04" x="74.295859" y="35.018531" style="fill: #0072b2; stroke: #000000"/>
     </g>
    </g>
    <g id="text_27">
     <!-- PID-Transit (embedded SQLite) -->
     <g transform="translate(90.495859 38.168531) scale(0.09 -0.09)">
      <defs>
       <path id="DejaVuSans-2c" d="M 628 4666 
L 1259 4666 
L 1259 0 
L 628 0 
L 628 4666 
z
" transform="scale(0.015625)"/>
       <path id="DejaVuSans-27" d="M 1259 4147 
L 1259 519 
L 2022 519 
Q 2988 519 3436 956 
Q 3884 1394 3884 2338 
Q 3884 3275 3436 3711 
Q 2988 4147 2022 4147 
L 1259 4147 
z
M 628 4666 
L 1925 4666 
Q 3281 4666 3915 4102 
Q 4550 3538 4550 2338 
Q 4550 1131 3912 565 
Q 3275 0 1925 0 
L 628 0 
L 628 4666 
z
" transform="scale(0.015625)"/>
       <path id="DejaVuSans-10" d="M 313 2009 
L 1997 2009 
L 1997 1497 
L 313 1497 
L 313 2009 
z
" transform="scale(0.015625)"/>
       <path id="DejaVuSans-45" d="M 3116 1747 
Q 3116 2381 2855 2742 
Q 2594 3103 2138 3103 
Q 1681 3103 1420 2742 
Q 1159 2381 1159 1747 
Q 1159 1113 1420 752 
Q 1681 391 2138 391 
Q 2594 391 2855 752 
Q 3116 1113 3116 1747 
z
M 1159 2969 
Q 1341 3281 1617 3432 
Q 1894 3584 2278 3584 
Q 2916 3584 3314 3078 
Q 3713 2572 3713 1747 
Q 3713 922 3314 415 
Q 2916 -91 2278 -91 
Q 1894 -91 1617 61 
Q 1341 213 1159 525 
L 1159 0 
L 581 0 
L 581 4863 
L 1159 4863 
L 1159 2969 
z
" transform="scale(0.015625)"/>
       <path id="DejaVuSans-34" d="M 2522 4238 
Q 1834 4238 1429 3725 
Q 1025 3213 1025 2328 
Q 1025 1447 1429 934 
Q 1834 422 2522 422 
Q 3209 422 3611 934 
Q 4013 1447 4013 2328 
Q 4013 3213 3611 3725 
Q 3209 4238 2522 4238 
z
M 3406 84 
L 4238 -825 
L 3475 -825 
L 2784 -78 
Q 2681 -84 2626 -87 
Q 2572 -91 2522 -91 
Q 1538 -91 948 567 
Q 359 1225 359 2328 
Q 359 3434 948 4092 
Q 1538 4750 2522 4750 
Q 3503 4750 4090 4092 
Q 4678 3434 4678 2328 
Q 4678 1516 4351 937 
Q 4025 359 3406 84 
z
" transform="scale(0.015625)"/>
       <path id="DejaVuSans-2f" d="M 628 4666 
L 1259 4666 
L 1259 531 
L 3531 531 
L 3531 0 
L 628 0 
L 628 4666 
z
" transform="scale(0.015625)"/>
      </defs>
      <use xlink:href="#DejaVuSans-33"/>
      <use xlink:href="#DejaVuSans-2c" transform="translate(60.296875 0)"/>
      <use xlink:href="#DejaVuSans-27" transform="translate(89.796875 0)"/>
      <use xlink:href="#DejaVuSans-10" transform="translate(166.796875 0)"/>
      <use xlink:href="#DejaVuSans-37" transform="translate(193.703125 0)"/>
      <use xlink:href="#DejaVuSans-55" transform="translate(240.078125 0)"/>
      <use xlink:href="#DejaVuSans-44" transform="translate(281.1875 0)"/>
      <use xlink:href="#DejaVuSans-51" transform="translate(342.46875 0)"/>
      <use xlink:href="#DejaVuSans-56" transform="translate(405.84375 0)"/>
      <use xlink:href="#DejaVuSans-4c" transform="translate(457.9375 0)"/>
      <use xlink:href="#DejaVuSans-57" transform="translate(485.71875 0)"/>
      <use xlink:href="#DejaVuSans-3" transform="translate(524.921875 0)"/>
      <use xlink:href="#DejaVuSans-b" transform="translate(556.703125 0)"/>
      <use xlink:href="#DejaVuSans-48" transform="translate(595.71875 0)"/>
      <use xlink:href="#DejaVuSans-50" transform="translate(657.25 0)"/>
      <use xlink:href="#DejaVuSans-45" transform="translate(754.65625 0)"/>
      <use xlink:href="#DejaVuSans-48" transform="translate(818.140625 0)"/>
      <use xlink:href="#DejaVuSans-47" transform="translate(879.671875 0)"/>
      <use xlink:href="#DejaVuSans-47" transform="translate(943.15625 0)"/>
      <use xlink:href="#DejaVuSans-48" transform="translate(1006.640625 0)"/>
      <use xlink:href="#DejaVuSans-47" transform="translate(1068.171875 0)"/>
      <use xlink:href="#DejaVuSans-3" transform="translate(1131.65625 0)"/>
      <use xlink:href="#DejaVuSans-36" transform="translate(1163.4375 0)"/>
      <use xlink:href="#DejaVuSans-34" transform="translate(1226.921875 0)"/>
      <use xlink:href="#DejaVuSans-2f" transform="translate(1305.640625 0)"/>
      <use xlink:href="#DejaVuSans-4c" transform="translate(1361.359375 0)"/>
      <use xlink:href="#DejaVuSans-57" transform="translate(1389.140625 0)"/>
      <use xlink:href="#DejaVuSans-48" transform="translate(1428.34375 0)"/>
      <use xlink:href="#DejaVuSans-c" transform="translate(1489.875 0)"/>
     </g>
    </g>
    <g id="line2d_51">
     <path d="M 65.295859 48.519234 
L 74.295859 48.519234 
L 83.295859 48.519234 
" style="fill: none; stroke: #ffffff; stroke-width: 1.5; stroke-linecap: square"/>
     <defs>
      <path id="mfa2df97935" d="M 0 5.5 
C 1.458617 5.5 2.857689 4.920485 3.889087 3.889087 
C 4.920485 2.857689 5.5 1.458617 5.5 0 
C 5.5 -1.458617 4.920485 -2.857689 3.889087 -3.889087 
C 2.857689 -4.920485 1.458617 -5.5 0 -5.5 
C -1.458617 -5.5 -2.857689 -4.920485 -3.889087 -3.889087 
C -4.920485 -2.857689 -5.5 -1.458617 -5.5 0 
C -5.5 1.458617 -4.920485 2.857689 -3.889087 3.889087 
C -2.857689 4.920485 -1.458617 5.5 0 5.5 
z
" style="stroke: #000000"/>
     </defs>
     <g>
      <use xlink:href="#mfa2df97935" x="74.295859" y="48.519234" style="fill: #d55e00; stroke: #000000"/>
     </g>
    </g>
    <g id="text_28">
     <!-- chouette-core (Ruby worker) -->
     <g transform="translate(90.495859 51.669234) scale(0.09 -0.09)">
      <defs>
       <path id="DejaVuSans-4b" d="M 3513 2113 
L 3513 0 
L 2938 0 
L 2938 2094 
Q 2938 2591 2744 2837 
Q 2550 3084 2163 3084 
Q 1697 3084 1428 2787 
Q 1159 2491 1159 1978 
L 1159 0 
L 581 0 
L 581 4863 
L 1159 4863 
L 1159 2956 
Q 1366 3272 1645 3428 
Q 1925 3584 2291 3584 
Q 2894 3584 3203 3211 
Q 3513 2838 3513 2113 
z
" transform="scale(0.015625)"/>
       <path id="DejaVuSans-35" d="M 2841 2188 
Q 3044 2119 3236 1894 
Q 3428 1669 3622 1275 
L 4263 0 
L 3584 0 
L 2988 1197 
Q 2756 1666 2539 1819 
Q 2322 1972 1947 1972 
L 1259 1972 
L 1259 0 
L 628 0 
L 628 4666 
L 2053 4666 
Q 2853 4666 3247 4331 
Q 3641 3997 3641 3322 
Q 3641 2881 3436 2590 
Q 3231 2300 2841 2188 
z
M 1259 4147 
L 1259 2491 
L 2053 2491 
Q 2509 2491 2742 2702 
Q 2975 2913 2975 3322 
Q 2975 3731 2742 3939 
Q 2509 4147 2053 4147 
L 1259 4147 
z
" transform="scale(0.015625)"/>
       <path id="DejaVuSans-5a" d="M 269 3500 
L 844 3500 
L 1563 769 
L 2278 3500 
L 2956 3500 
L 3675 769 
L 4391 3500 
L 4966 3500 
L 4050 0 
L 3372 0 
L 2619 2869 
L 1863 0 
L 1184 0 
L 269 3500 
z
" transform="scale(0.015625)"/>
      </defs>
      <use xlink:href="#DejaVuSans-46"/>
      <use xlink:href="#DejaVuSans-4b" transform="translate(54.984375 0)"/>
      <use xlink:href="#DejaVuSans-52" transform="translate(118.359375 0)"/>
      <use xlink:href="#DejaVuSans-58" transform="translate(179.546875 0)"/>
      <use xlink:href="#DejaVuSans-48" transform="translate(242.921875 0)"/>
      <use xlink:href="#DejaVuSans-57" transform="translate(304.453125 0)"/>
      <use xlink:href="#DejaVuSans-57" transform="translate(343.65625 0)"/>
      <use xlink:href="#DejaVuSans-48" transform="translate(382.859375 0)"/>
      <use xlink:href="#DejaVuSans-10" transform="translate(444.390625 0)"/>
      <use xlink:href="#DejaVuSans-46" transform="translate(480.46875 0)"/>
      <use xlink:href="#DejaVuSans-52" transform="translate(535.453125 0)"/>
      <use xlink:href="#DejaVuSans-55" transform="translate(596.640625 0)"/>
      <use xlink:href="#DejaVuSans-48" transform="translate(635.546875 0)"/>
      <use xlink:href="#DejaVuSans-3" transform="translate(697.078125 0)"/>
      <use xlink:href="#DejaVuSans-b" transform="translate(728.859375 0)"/>
      <use xlink:href="#DejaVuSans-35" transform="translate(767.875 0)"/>
      <use xlink:href="#DejaVuSans-58" transform="translate(832.875 0)"/>
      <use xlink:href="#DejaVuSans-45" transform="translate(896.25 0)"/>
      <use xlink:href="#DejaVuSans-5c" transform="translate(959.734375 0)"/>
      <use xlink:href="#DejaVuSans-3" transform="translate(1018.921875 0)"/>
      <use xlink:href="#DejaVuSans-5a" transform="translate(1050.703125 0)"/>
      <use xlink:href="#DejaVuSans-52" transform="translate(1132.484375 0)"/>
      <use xlink:href="#DejaVuSans-55" transform="translate(1193.671875 0)"/>
      <use xlink:href="#DejaVuSans-4e" transform="translate(1234.78125 0)"/>
      <use xlink:href="#DejaVuSans-48" transform="translate(1289.125 0)"/>
      <use xlink:href="#DejaVuSans-55" transform="translate(1350.65625 0)"/>
      <use xlink:href="#DejaVuSans-c" transform="translate(1391.765625 0)"/>
     </g>
    </g>
    <g id="line2d_52">
     <path d="M 65.295859 62.019938 
L 74.295859 62.019938 
L 83.295859 62.019938 
" style="fill: none; stroke-dasharray: 5.55,2.4; stroke-dashoffset: 0; stroke: #ffffff; stroke-width: 1.5"/>
     <defs>
      <path id="md1df42cde8" d="M 0 5.5 
C 1.458617 5.5 2.857689 4.920485 3.889087 3.889087 
C 4.920485 2.857689 5.5 1.458617 5.5 0 
C 5.5 -1.458617 4.920485 -2.857689 3.889087 -3.889087 
C 2.857689 -4.920485 1.458617 -5.5 0 -5.5 
C -1.458617 -5.5 -2.857689 -4.920485 -3.889087 -3.889087 
C -4.920485 -2.857689 -5.5 -1.458617 -5.5 0 
C -5.5 1.458617 -4.920485 2.857689 -3.889087 3.889087 
C -2.857689 4.920485 -1.458617 5.5 0 5.5 
z
" style="stroke: #d55e00"/>
     </defs>
     <g>
      <use xlink:href="#md1df42cde8" x="74.295859" y="62.019938" style="fill-opacity: 0; stroke: #d55e00"/>
     </g>
    </g>
    <g id="text_29">
     <!-- chouette-core incl. PostGIS server (+846 MB) -->
     <g transform="translate(90.495859 65.169938) scale(0.09 -0.09)">
      <defs>
       <path id="DejaVuSans-11" d="M 684 794 
L 1344 794 
L 1344 0 
L 684 0 
L 684 794 
z
" transform="scale(0.015625)"/>
       <path id="DejaVuSans-59" d="M 191 3500 
L 800 3500 
L 1894 563 
L 2988 3500 
L 3597 3500 
L 2284 0 
L 1503 0 
L 191 3500 
z
" transform="scale(0.015625)"/>
       <path id="DejaVuSans-e" d="M 2944 4013 
L 2944 2272 
L 4684 2272 
L 4684 1741 
L 2944 1741 
L 2944 0 
L 2419 0 
L 2419 1741 
L 678 1741 
L 678 2272 
L 2419 2272 
L 2419 4013 
L 2944 4013 
z
" transform="scale(0.015625)"/>
      </defs>
      <use xlink:href="#DejaVuSans-46"/>
      <use xlink:href="#DejaVuSans-4b" transform="translate(54.984375 0)"/>
      <use xlink:href="#DejaVuSans-52" transform="translate(118.359375 0)"/>
      <use xlink:href="#DejaVuSans-58" transform="translate(179.546875 0)"/>
      <use xlink:href="#DejaVuSans-48" transform="translate(242.921875 0)"/>
      <use xlink:href="#DejaVuSans-57" transform="translate(304.453125 0)"/>
      <use xlink:href="#DejaVuSans-57" transform="translate(343.65625 0)"/>
      <use xlink:href="#DejaVuSans-48" transform="translate(382.859375 0)"/>
      <use xlink:href="#DejaVuSans-10" transform="translate(444.390625 0)"/>
      <use xlink:href="#DejaVuSans-46" transform="translate(480.46875 0)"/>
      <use xlink:href="#DejaVuSans-52" transform="translate(535.453125 0)"/>
      <use xlink:href="#DejaVuSans-55" transform="translate(596.640625 0)"/>
      <use xlink:href="#DejaVuSans-48" transform="translate(635.546875 0)"/>
      <use xlink:href="#DejaVuSans-3" transform="translate(697.078125 0)"/>
      <use xlink:href="#DejaVuSans-4c" transform="translate(728.859375 0)"/>
      <use xlink:href="#DejaVuSans-51" transform="translate(756.640625 0)"/>
      <use xlink:href="#DejaVuSans-46" transform="translate(820.015625 0)"/>
      <use xlink:href="#DejaVuSans-4f" transform="translate(875 0)"/>
      <use xlink:href="#DejaVuSans-11" transform="translate(902.78125 0)"/>
      <use xlink:href="#DejaVuSans-3" transform="translate(934.5625 0)"/>
      <use xlink:href="#DejaVuSans-33" transform="translate(966.34375 0)"/>
      <use xlink:href="#DejaVuSans-52" transform="translate(1023.078125 0)"/>
      <use xlink:href="#DejaVuSans-56" transform="translate(1084.265625 0)"/>
      <use xlink:href="#DejaVuSans-57" transform="translate(1136.359375 0)"/>
      <use xlink:href="#DejaVuSans-2a" transform="translate(1175.5625 0)"/>
      <use xlink:href="#DejaVuSans-2c" transform="translate(1253.046875 0)"/>
      <use xlink:href="#DejaVuSans-36" transform="translate(1282.546875 0)"/>
      <use xlink:href="#DejaVuSans-3" transform="translate(1346.03125 0)"/>
      <use xlink:href="#DejaVuSans-56" transform="translate(1377.8125 0)"/>
      <use xlink:href="#DejaVuSans-48" transform="translate(1429.90625 0)"/>
      <use xlink:href="#DejaVuSans-55" transform="translate(1491.4375 0)"/>
      <use xlink:href="#DejaVuSans-59" transform="translate(1532.546875 0)"/>
      <use xlink:href="#DejaVuSans-48" transform="translate(1591.734375 0)"/>
      <use xlink:href="#DejaVuSans-55" transform="translate(1653.265625 0)"/>
      <use xlink:href="#DejaVuSans-3" transform="translate(1694.375 0)"/>
      <use xlink:href="#DejaVuSans-b" transform="translate(1726.15625 0)"/>
      <use xlink:href="#DejaVuSans-e" transform="translate(1765.171875 0)"/>
      <use xlink:href="#DejaVuSans-1b" transform="translate(1848.96875 0)"/>
      <use xlink:href="#DejaVuSans-17" transform="translate(1912.59375 0)"/>
      <use xlink:href="#DejaVuSans-19" transform="translate(1976.21875 0)"/>
      <use xlink:href="#DejaVuSans-3" transform="translate(2039.84375 0)"/>
      <use xlink:href="#DejaVuSans-30" transform="translate(2071.625 0)"/>
      <use xlink:href="#DejaVuSans-25" transform="translate(2157.90625 0)"/>
      <use xlink:href="#DejaVuSans-c" transform="translate(2226.515625 0)"/>
     </g>
    </g>
   </g>
  </g>
  <g id="text_30">
   <!-- AMD Ryzen 7 5700U · 16 threads · 34.6 GiB · Ubuntu 24.04 · Porto GTFS (461 359 passing times) -->
   <g style="fill: #666666" transform="translate(131.964687 365.805938) scale(0.075 -0.075)">
    <defs>
     <path id="DejaVuSans-24" d="M 2188 4044 
L 1331 1722 
L 3047 1722 
L 2188 4044 
z
M 1831 4666 
L 2547 4666 
L 4325 0 
L 3669 0 
L 3244 1197 
L 1141 1197 
L 716 0 
L 50 0 
L 1831 4666 
z
" transform="scale(0.015625)"/>
     <path id="DejaVuSans-5d" d="M 353 3500 
L 3084 3500 
L 3084 2975 
L 922 459 
L 3084 459 
L 3084 0 
L 275 0 
L 275 525 
L 2438 3041 
L 353 3041 
L 353 3500 
z
" transform="scale(0.015625)"/>
     <path id="DejaVuSans-1a" d="M 525 4666 
L 3525 4666 
L 3525 4397 
L 1831 0 
L 1172 0 
L 2766 4134 
L 525 4134 
L 525 4666 
z
" transform="scale(0.015625)"/>
     <path id="DejaVuSans-38" d="M 556 4666 
L 1191 4666 
L 1191 1831 
Q 1191 1081 1462 751 
Q 1734 422 2344 422 
Q 2950 422 3222 751 
Q 3494 1081 3494 1831 
L 3494 4666 
L 4128 4666 
L 4128 1753 
Q 4128 841 3676 375 
Q 3225 -91 2344 -91 
Q 1459 -91 1007 375 
Q 556 841 556 1753 
L 556 4666 
z
" transform="scale(0.015625)"/>
     <path id="DejaVuSans-79" d="M 684 2619 
L 1344 2619 
L 1344 1825 
L 684 1825 
L 684 2619 
z
" transform="scale(0.015625)"/>
     <path id="DejaVuSans-16" d="M 2597 2516 
Q 3050 2419 3304 2112 
Q 3559 1806 3559 1356 
Q 3559 666 3084 287 
Q 2609 -91 1734 -91 
Q 1441 -91 1130 -33 
Q 819 25 488 141 
L 488 750 
Q 750 597 1062 519 
Q 1375 441 1716 441 
Q 2309 441 2620 675 
Q 2931 909 2931 1356 
Q 2931 1769 2642 2001 
Q 2353 2234 1838 2234 
L 1294 2234 
L 1294 2753 
L 1863 2753 
Q 2328 2753 2575 2939 
Q 2822 3125 2822 3475 
Q 2822 3834 2567 4026 
Q 2313 4219 1838 4219 
Q 1578 4219 1281 4162 
Q 984 4106 628 3988 
L 628 4550 
Q 988 4650 1302 4700 
Q 1616 4750 1894 4750 
Q 2613 4750 3031 4423 
Q 3450 4097 3450 3541 
Q 3450 3153 3228 2886 
Q 3006 2619 2597 2516 
z
" transform="scale(0.015625)"/>
     <path id="DejaVuSans-1c" d="M 703 97 
L 703 672 
Q 941 559 1184 500 
Q 1428 441 1663 441 
Q 2288 441 2617 861 
Q 2947 1281 2994 2138 
Q 2813 1869 2534 1725 
Q 2256 1581 1919 1581 
Q 1219 1581 811 2004 
Q 403 2428 403 3163 
Q 403 3881 828 4315 
Q 1253 4750 1959 4750 
Q 2769 4750 3195 4129 
Q 3622 3509 3622 2328 
Q 3622 1225 3098 567 
Q 2575 -91 1691 -91 
Q 1453 -91 1209 -44 
Q 966 3 703 97 
z
M 1959 2075 
Q 2384 2075 2632 2365 
Q 2881 2656 2881 3163 
Q 2881 3666 2632 3958 
Q 2384 4250 1959 4250 
Q 1534 4250 1286 3958 
Q 1038 3666 1038 3163 
Q 1038 2656 1286 2365 
Q 1534 2075 1959 2075 
z
" transform="scale(0.015625)"/>
    </defs>
    <use xlink:href="#DejaVuSans-24"/>
    <use xlink:href="#DejaVuSans-30" transform="translate(68.40625 0)"/>
    <use xlink:href="#DejaVuSans-27" transform="translate(154.6875 0)"/>
    <use xlink:href="#DejaVuSans-3" transform="translate(231.6875 0)"/>
    <use xlink:href="#DejaVuSans-35" transform="translate(263.46875 0)"/>
    <use xlink:href="#DejaVuSans-5c" transform="translate(327.484375 0)"/>
    <use xlink:href="#DejaVuSans-5d" transform="translate(386.671875 0)"/>
    <use xlink:href="#DejaVuSans-48" transform="translate(439.15625 0)"/>
    <use xlink:href="#DejaVuSans-51" transform="translate(500.6875 0)"/>
    <use xlink:href="#DejaVuSans-3" transform="translate(564.0625 0)"/>
    <use xlink:href="#DejaVuSans-1a" transform="translate(595.84375 0)"/>
    <use xlink:href="#DejaVuSans-3" transform="translate(659.46875 0)"/>
    <use xlink:href="#DejaVuSans-18" transform="translate(691.25 0)"/>
    <use xlink:href="#DejaVuSans-1a" transform="translate(754.875 0)"/>
    <use xlink:href="#DejaVuSans-13" transform="translate(818.5 0)"/>
    <use xlink:href="#DejaVuSans-13" transform="translate(882.125 0)"/>
    <use xlink:href="#DejaVuSans-38" transform="translate(945.75 0)"/>
    <use xlink:href="#DejaVuSans-3" transform="translate(1018.9375 0)"/>
    <use xlink:href="#DejaVuSans-79" transform="translate(1050.71875 0)"/>
    <use xlink:href="#DejaVuSans-3" transform="translate(1082.5 0)"/>
    <use xlink:href="#DejaVuSans-14" transform="translate(1114.28125 0)"/>
    <use xlink:href="#DejaVuSans-19" transform="translate(1177.90625 0)"/>
    <use xlink:href="#DejaVuSans-3" transform="translate(1241.53125 0)"/>
    <use xlink:href="#DejaVuSans-57" transform="translate(1273.3125 0)"/>
    <use xlink:href="#DejaVuSans-4b" transform="translate(1312.515625 0)"/>
    <use xlink:href="#DejaVuSans-55" transform="translate(1375.890625 0)"/>
    <use xlink:href="#DejaVuSans-48" transform="translate(1414.796875 0)"/>
    <use xlink:href="#DejaVuSans-44" transform="translate(1476.328125 0)"/>
    <use xlink:href="#DejaVuSans-47" transform="translate(1537.609375 0)"/>
    <use xlink:href="#DejaVuSans-56" transform="translate(1601.09375 0)"/>
    <use xlink:href="#DejaVuSans-3" transform="translate(1653.1875 0)"/>
    <use xlink:href="#DejaVuSans-79" transform="translate(1684.96875 0)"/>
    <use xlink:href="#DejaVuSans-3" transform="translate(1716.75 0)"/>
    <use xlink:href="#DejaVuSans-16" transform="translate(1748.53125 0)"/>
    <use xlink:href="#DejaVuSans-17" transform="translate(1812.15625 0)"/>
    <use xlink:href="#DejaVuSans-11" transform="translate(1875.78125 0)"/>
    <use xlink:href="#DejaVuSans-19" transform="translate(1907.5625 0)"/>
    <use xlink:href="#DejaVuSans-3" transform="translate(1971.1875 0)"/>
    <use xlink:href="#DejaVuSans-2a" transform="translate(2002.96875 0)"/>
    <use xlink:href="#DejaVuSans-4c" transform="translate(2080.453125 0)"/>
    <use xlink:href="#DejaVuSans-25" transform="translate(2108.234375 0)"/>
    <use xlink:href="#DejaVuSans-3" transform="translate(2176.84375 0)"/>
    <use xlink:href="#DejaVuSans-79" transform="translate(2208.625 0)"/>
    <use xlink:href="#DejaVuSans-3" transform="translate(2240.40625 0)"/>
    <use xlink:href="#DejaVuSans-38" transform="translate(2272.1875 0)"/>
    <use xlink:href="#DejaVuSans-45" transform="translate(2345.375 0)"/>
    <use xlink:href="#DejaVuSans-58" transform="translate(2408.859375 0)"/>
    <use xlink:href="#DejaVuSans-51" transform="translate(2472.234375 0)"/>
    <use xlink:href="#DejaVuSans-57" transform="translate(2535.609375 0)"/>
    <use xlink:href="#DejaVuSans-58" transform="translate(2574.8125 0)"/>
    <use xlink:href="#DejaVuSans-3" transform="translate(2638.1875 0)"/>
    <use xlink:href="#DejaVuSans-15" transform="translate(2669.96875 0)"/>
    <use xlink:href="#DejaVuSans-17" transform="translate(2733.59375 0)"/>
    <use xlink:href="#DejaVuSans-11" transform="translate(2797.21875 0)"/>
    <use xlink:href="#DejaVuSans-13" transform="translate(2829 0)"/>
    <use xlink:href="#DejaVuSans-17" transform="translate(2892.625 0)"/>
    <use xlink:href="#DejaVuSans-3" transform="translate(2956.25 0)"/>
    <use xlink:href="#DejaVuSans-79" transform="translate(2988.03125 0)"/>
    <use xlink:href="#DejaVuSans-3" transform="translate(3019.8125 0)"/>
    <use xlink:href="#DejaVuSans-33" transform="translate(3051.59375 0)"/>
    <use xlink:href="#DejaVuSans-52" transform="translate(3108.328125 0)"/>
    <use xlink:href="#DejaVuSans-55" transform="translate(3169.515625 0)"/>
    <use xlink:href="#DejaVuSans-57" transform="translate(3210.625 0)"/>
    <use xlink:href="#DejaVuSans-52" transform="translate(3249.828125 0)"/>
    <use xlink:href="#DejaVuSans-3" transform="translate(3311.015625 0)"/>
    <use xlink:href="#DejaVuSans-2a" transform="translate(3342.796875 0)"/>
    <use xlink:href="#DejaVuSans-37" transform="translate(3416.71875 0)"/>
    <use xlink:href="#DejaVuSans-29" transform="translate(3477.796875 0)"/>
    <use xlink:href="#DejaVuSans-36" transform="translate(3533.5625 0)"/>
    <use xlink:href="#DejaVuSans-3" transform="translate(3597.046875 0)"/>
    <use xlink:href="#DejaVuSans-b" transform="translate(3628.828125 0)"/>
    <use xlink:href="#DejaVuSans-17" transform="translate(3667.84375 0)"/>
    <use xlink:href="#DejaVuSans-19" transform="translate(3731.46875 0)"/>
    <use xlink:href="#DejaVuSans-14" transform="translate(3795.09375 0)"/>
    <use xlink:href="#DejaVuSans-3" transform="translate(3858.71875 0)"/>
    <use xlink:href="#DejaVuSans-16" transform="translate(3890.5 0)"/>
    <use xlink:href="#DejaVuSans-18" transform="translate(3954.125 0)"/>
    <use xlink:href="#DejaVuSans-1c" transform="translate(4017.75 0)"/>
    <use xlink:href="#DejaVuSans-3" transform="translate(4081.375 0)"/>
    <use xlink:href="#DejaVuSans-53" transform="translate(4113.15625 0)"/>
    <use xlink:href="#DejaVuSans-44" transform="translate(4176.640625 0)"/>
    <use xlink:href="#DejaVuSans-56" transform="translate(4237.921875 0)"/>
    <use xlink:href="#DejaVuSans-56" transform="translate(4290.015625 0)"/>
    <use xlink:href="#DejaVuSans-4c" transform="translate(4342.109375 0)"/>
    <use xlink:href="#DejaVuSans-51" transform="translate(4369.890625 0)"/>
    <use xlink:href="#DejaVuSans-4a" transform="translate(4433.265625 0)"/>
    <use xlink:href="#DejaVuSans-3" transform="translate(4496.75 0)"/>
    <use xlink:href="#DejaVuSans-57" transform="translate(4528.53125 0)"/>
    <use xlink:href="#DejaVuSans-4c" transform="translate(4567.734375 0)"/>
    <use xlink:href="#DejaVuSans-50" transform="translate(4595.515625 0)"/>
    <use xlink:href="#DejaVuSans-48" transform="translate(4692.921875 0)"/>
    <use xlink:href="#DejaVuSans-56" transform="translate(4754.453125 0)"/>
    <use xlink:href="#DejaVuSans-c" transform="translate(4806.546875 0)"/>
   </g>
  </g>
 </g>
 <defs>
  <clipPath id="pc2fa7349f8">
   <rect x="57.195859" y="23.229937" width="558.24906" height="293.909422"/>
  </clipPath>
 </defs>
</svg>
